/* XPM */
static char *_7aafe5c58724f37f88742b2f6866055KLWPoSPWdX6lVOuN[] = {
/* columns rows colors chars-per-pixel */
"62 62 237 2 ",
"   c None",
".  c #000407",
"X  c #091516",
"o  c #29030E",
"O  c #0A2B04",
"+  c #142A00",
"@  c #3B3A00",
"#  c #302F06",
"$  c #001B2A",
"%  c #000824",
"&  c #04232A",
"*  c #1E2225",
"=  c #282727",
"-  c #2B2A2A",
";  c #252424",
":  c #302E2E",
">  c #352E24",
",  c #36362B",
"<  c #28373D",
"1  c #343434",
"2  c #383737",
"3  c #3B3A3A",
"4  c #373839",
"5  c #302E36",
"6  c #453B37",
"7  c #46372A",
"8  c #423E18",
"9  c #39493C",
"0  c #4C4418",
"q  c #51461A",
"w  c #654C00",
"e  c #594A27",
"r  c #464638",
"t  c #56463A",
"y  c #63532E",
"u  c #665021",
"i  c #645431",
"p  c #675539",
"a  c #775939",
"s  c #654C31",
"d  c #75603E",
"f  c #002C44",
"g  c #023B47",
"h  c #173A45",
"j  c #003E53",
"k  c #383C45",
"l  c #243C42",
"z  c #413948",
"x  c #014658",
"c  c #1A4658",
"v  c #2B444A",
"b  c #3C4647",
"n  c #294A57",
"m  c #374C57",
"M  c #39525E",
"N  c #3F5242",
"B  c #004D67",
"V  c #05526B",
"C  c #18536A",
"Z  c #025C79",
"A  c #015774",
"S  c #165C77",
"D  c #164E64",
"F  c #285366",
"G  c #395564",
"H  c #215D75",
"J  c #1B627D",
"K  c #02607B",
"L  c #326477",
"P  c #444444",
"I  c #454B4D",
"U  c #4B4B4B",
"Y  c #494747",
"T  c #575649",
"R  c #4A4F50",
"E  c #454D52",
"W  c #4A5356",
"Q  c #535354",
"!  c #5A5654",
"~  c #535759",
"^  c #53585B",
"/  c #5C5C5C",
"(  c #5A5955",
")  c #4E524B",
"_  c #675447",
"`  c #775948",
"'  c #645B58",
"]  c #735D56",
"[  c #5D6254",
"{  c #7B6345",
"}  c #686858",
"|  c #79645B",
" . c #65674F",
".. c #4E5C62",
"X. c #5D6264",
"o. c #5D6766",
"O. c #4D6D77",
"+. c #646464",
"@. c #6C6C6C",
"#. c #666968",
"$. c #786964",
"%. c #6D7469",
"&. c #777867",
"*. c #6E7072",
"=. c #677775",
"-. c #737373",
";. c #7B7B7B",
":. c #757776",
">. c #6D6F70",
",. c #675E61",
"<. c #865D4D",
"1. c #846548",
"2. c #896956",
"3. c #946C58",
"4. c #8B725D",
"5. c #9D735D",
"6. c #997858",
"7. c #87714F",
"8. c #A8775F",
"9. c #826A61",
"0. c #876E65",
"q. c #887269",
"w. c #9D7B6C",
"e. c #977866",
"r. c #947D72",
"t. c #A77A64",
"y. c #A67F70",
"u. c #7C816D",
"i. c #7B8375",
"p. c #858875",
"a. c #988673",
"s. c #8B8874",
"d. c #A88469",
"f. c #B58A6E",
"g. c #A98574",
"h. c #B78A74",
"j. c #A7927D",
"k. c #BC957A",
"l. c #C6967B",
"z. c #C28E75",
"x. c #026788",
"c. c #156987",
"v. c #087497",
"b. c #1A7A9D",
"n. c #187495",
"m. c #27728F",
"M. c #057EA4",
"N. c #197EA3",
"B. c #005E82",
"V. c #546F88",
"C. c #1B81A6",
"Z. c #1E86AC",
"A. c #1E89AF",
"S. c #1383A9",
"D. c #1F8AB1",
"F. c #178CB5",
"G. c #2287AC",
"H. c #208BB3",
"J. c #768685",
"K. c #848484",
"L. c #8C8C8C",
"P. c #838A86",
"I. c #8D9385",
"U. c #939582",
"Y. c #9B9C8A",
"T. c #929292",
"R. c #9D9D9D",
"E. c #9A9F91",
"W. c #898C90",
"Q. c #B69984",
"!. c #AB9681",
"~. c #9EA292",
"^. c #ABAD9D",
"/. c #A5A797",
"(. c #B7A591",
"). c #969DAF",
"_. c gray64",
"`. c #A9A9A9",
"'. c #ADAFA1",
"]. c #B4B3A4",
"[. c #B4B4B4",
"{. c #B9B9B9",
"}. c #B3B2B8",
"|. c #B6AFAA",
" X c #90A5BF",
".X c #CB9B83",
"XX c #D49D85",
"oX c #C9A586",
"OX c #DCA58C",
"+X c #D8AA8C",
"@X c #DBAD92",
"#X c #CBB694",
"$X c #DCB594",
"%X c #EAB295",
"&X c #E2BC9D",
"*X c #EAB898",
"=X c #E9B294",
"-X c #CFB7AC",
";X c #E4BDA5",
":X c #F1C39E",
">X c #DAC3A1",
",X c #D7C6BF",
"<X c #EBC5A4",
"1X c #E6C7A9",
"2X c #F2CCA9",
"3X c #F2C6A6",
"4X c #F7D2AD",
"5X c #EFCDB3",
"6X c #E8D4B6",
"7X c #FAD5B3",
"8X c #FCDAB5",
"9X c #F9D8B9",
"0X c #EDD0AA",
"qX c #FEE4BD",
"wX c #FFE9BF",
"eX c #9FB3CA",
"rX c #B6C8D4",
"tX c #CCD3D9",
"yX c #D2CECE",
"uX c #E6DAD5",
"iX c #FFDFC0",
"pX c #FFEAC4",
"aX c #FBE3C6",
"sX c #FFF1CA",
"dX c #FDEDDB",
"fX c #F9EAD6",
"gX c #FFF3D6",
"hX c #FFF3DB",
"jX c #FFF8D8",
"kX c #EFE3D3",
"lX c #CADAF1",
"zX c #FEF5E3",
"xX c #FFF9E6",
"cX c #FFFBEA",
"vX c #FEFEF8",
"bX c #EEF3F2",
"nX c #DEEFFE",
/* pixels */
"                                              - : - - - - - - : - - - 1 -                                                   ",
"                                            1 1 3 4 3 4 3 3 3 3 3 4 4 3 1 1                                                 ",
"                                      - = ; 1 P U Y Y U U Q U ) Y Y Y Y P 1 ; = =                                           ",
"                                    1 3 P P ( #.>.@.@./ ! Q ~ ( X.#.>.@.#.! P P 4 1                                         ",
"                              = = = 4 U ! X.*.P.L.L.K.>./ Q Q ' >.r.W.W.K.$.} ' Y 4 = = -                                   ",
"                            1 P U U ' @.V.L.R._.R.T.L.K.-.X.X.-.K.L.T._._.R.T.V.@./ R U P 4                                 ",
"                        = : P Q / #.:.K.(.}.{.}.`.T.L.L.K.@.*.K.L.L.T.`.{.{.|.R.K.;.#.^ U P -                               ",
"                      - 2 P Q / -.K.T.`.{.-X}.`.R.T.L.L.L.K.K.L.T.L.T.R.`.}.{.[._.T.r.=.' Q P 1 -                           ",
"                    = 1 P Q ,.>.;.L.R.[.{.[._.T.K.L.L.L.L.L.L.L.L.L.L.L.T.`.[.{.[.R.L.;.@./ Q P 1 =                         ",
"                  1 4 Y ~ +.:.K.;.;.L._._.R._.`.R.K.;.L.T.T.T.T.!.V.K._.`._.R._._.L.;.;.K.:.+.! Y 4 1                       ",
"                = 4 U ! X.>.r.L.K.@.:.L.L.L._.[._.*.@.K.L.L.L.L.K.>.:._.[.R.L.L.K.:.@.K.L.K.@.,.! Y 1 =                     ",
"                * 1 ! #.@.=.#.@.;.K.;.-.L.`.`.T.;.! +.L.T.;.K.L.K.+...r.T.`.`.L.-.;.K.:.@.@.>.@.#.Q : *                     ",
"                = 3 ,.@.*.@.~ Q *.L.r.#.T.[.R.@.Q ! @.L.K.@.@.K.L.#.! U -._.[.L.@.K.L.@.R ( @.*.@./ 3 =                     ",
"              1 6 U +.*.+.! ! X.@.:.V.J.T._.L./ / ;.;.;.@.W W >.a.V.;./ ' L.R.T.K.;.;.@.,.! ~ +.>.+.R 3 1                   ",
"            = 3 U ~ +.#./ ! #.:.@.,.s.T.W.K.*.R #.W.Y.$.' ] | / >.L.L.+.R :.K.T.L.;.,.@.-.#.Q X.#.+.! U 3 -                 ",
"            = 4 U ! ! ~ / @.;.K.-.' -.T.L.;.X.k +.W.V.m ] z.f.' M P.L.X.v X.;.L.L.>.^ -.K.;.#.' / Q Q Y 2 =                 ",
"            - 4 Y Q U Q ' -.K.L.-.Q #.K.;.X.' 9.q.V.V.e.Q.;X;Xk.q.i.V.q.0.] X.;.K.#.Q :.T.K.@.X.Q U Q U 4 =                 ",
"            = 4 U Q Q Q +.-.K.L.:.Q ,.-.X.n q.XXz._ $.+X7XdXfX5XoX@.' z..X0.n X.-./ Q ;.L.K.>.' Q Q Q Y 1 =                 ",
"            = 4 U Q E E ~ #.;.K.>.W E ,.$.0..X3X&Xg.(.6XgXcXcXgX5XQ.g.&X;X.X0.$.X.E E -.K.;.+.~ I R Q Y 1 =                 ",
"            = 4 Y Q E b I ! #.-.X.b v E w.XX5XaX9X3X6XdXcXcXcXcXdX6X<XqXqX3XXXw.I v I X.*.#.! E b I Q Y 4 -                 ",
"            = 3 P / q.y.9.Q m ^ 0.w.<.: ` h.oX#X>X2X9XgXzXhXhXxXgXiX3X>X#X.Xh.] > | y.9.^ m Q 9.a.q.! P 4 =                 ",
"            = 4 l ' k.OXg.R g U g.OXt.7   6 - . a.<X8XqXpXpXpXpXpX8X&Xe.. - 6   7 h.OXg.I g Q g.OXk.' l 4 =                 ",
"              1 $ ' .X%Xg.R | h.+X;X-X).V.% E W.-X;X7XqXwXwXwXwXqX7X;X-XJ.m % V.).-X*XOXd.| R h.%X.X! $ 1                   ",
"                  t l.OXy.Q y.OX*X2XuXlX X5 K.tXuX5X4XqXpXwXpXpX9X5X5XuXtX;.k  XlXuX3X*XOXw.Q g.OXk.6                       ",
"                  6 3.d.2.Q e.oX%X2XkXnXeXz ,.-X,X1X4XqXwXwXwXwXqX4X1XyX`.' E rXnXkX2X$X.Xe.~ 9.y.3.                        ",
"                    % & l Q 0.f.+X3XbXbXrXQ o V.(.<X7XpXpXpXpXpXwX8X<X(.-.o ^ tXbXgX:X+Xg.4.Q < $ %                         ",
"                        $ Y 4.k.$X2XzXvXtX/   Y !.0XpXgXhXzXgXhXgXpX0X!.z   +.tXvXzX2X@Xf.4.P $                             ",
"                          : 1.g.+X3XdXvXyX,.  . !.6XhXcXcXcXcXcXxXjX6Xa.    @.yXvXdX<XoXg.{ -                               ",
"                            e { l.*X9XaX-XQ     Y.kXcXcXcXcXcXcXcXcXkXL.    ,.-XaX9X%Xl.{ t                                 ",
"                              0 6.l.%X3X+Xr.$.$.|.dXvXcXcXcXzXcXcXcXfX].$.$.a.@X;X%Xl.5.@                                   ",
"                              r p 1.z.%X*X1X>X1XaXzXcXcXcXzXcXcXcXcXzXkX0X1X&X*X=Xh.<.p r                                   ",
"                            +.} N O 1.z.@X<X8XwXgXhXcXzXcXcXcXcXxXxXgXsXwX4X:X@Xh.{ O 9  .(                                 ",
"                          r u.s.@.h 7 a 6.l.>X4XqXpXgXxXcXcXcXcXcXgXpXaX0X&Xk.6.a 7 h [ &.} r                               ",
"                        [ &.Y./.p.j f g _ 7.f.oX:X0XqXfXhXgXhXhXfXqX2X&XoXf.7.T g f c i.U.s.&.[                             ",
"                      ) u.s./.'.P.F B c...q w y d.OX3X4XqX4X6XqX2X3X+Xd.y w e ..J B F J.^./.I.&.)                           ",
"                    T &.Y./.'./.J.H B.v.n.L x & p t.l.l.#Xl.l.oXl.z.8.s & x L m.v.Z F I.'.'./.U.&.T                         ",
"                9 ) } u.E.'./.Y.i.c.v.S.G.G.n.V r e u y y y y y i u e b V n.H.H.Z.K F P.'.].^.~.p.u.                        ",
"              p 4.k.s.i.I.E.Y.s.=.J v.D.F.D.S.v.Z B N T T }  . .T v B K v.S.F.F.G.K W p./.'.'./.s.u.                        ",
"            + a l.+Xk.u.u.p.p.u.o.D x.G.H.Z.Z.Z.M.x.O.:.s.s.Y.p.u.O.x.S.A.A.A.S.G.L T u.Y./.^./.Y.u.[ r                     ",
"            + { l.*X$Xk.a.}  .%.) c Z n.C.Z.D.D.Z.M.m.O.%.%.u.o.O.m.S.S.D.A.Z.S.m.G T i.E././.~.I.u.[ r                     ",
"            + p l.OX%XOXd.) 9 T k h B c.n.G.D.Z.H.H.b.A j j f j Z N.H.Z.Z.A.Z.v.c.m T s.].{.].^.Y.p.T r                     ",
"                3.f.f.d.2.      l g V J b.Z.D.Z.H.H.N.x.B j B B x.C.H.H.Z.D.Z.b.J x p (.6X6X6X6X6X(.[ &                     ",
"                @ @ @ @           h C J n.G.C.G.Z.Z.N.n.S D C c.n.b.Z.Z.Z.D.C.v.J & p #XwXsXwXwXwX>X .                      ",
"                                  < c A x.n.N.G.Z.b.c.B.B j j B Z c.b.G.H.N.c.x.V $ p >XsXsXsXwXqX#X_                       ",
"                                  : k n C S n.N.b.c.C F n l l n F S c.b.C.n.S C n & y #XwXwXwX8X3X.Xy .                     ",
"                                  : Y ^ G B A Z A A F ..~ ~ ..~ ..F A Z Z A V G Q , i l.<X8XqX1XoXd.i #                     ",
"                                  5 Y ~ ....G G n c m Q ! ! ! ! W m n n G n M ^ ! 9 y 8.l.$X$XoXd.{ e                       ",
"                                - 5 6 Y ^ #.*.*.+.I k Y U Y U U Y b E +.*.#.X.! Y     a 7.7.7.7.a i                         ",
"                                  : 1 3 / -.;.;.@.U r k 6 3 3 3 3 3 U #.-.>.,.Q 3       + O   + @                           ",
"                                    4 6 +.-.;.:.@./ U 4 : 1 1 : 5 4 E X.@.+.~ Q b                                           ",
"                                      b / #.@.*.#.X.E 5 ; - : , 6 t _ ] ] ' ' T r                                           ",
"                                      P Q ~ +.#.#./ U k *     0 i ` ` <.<.<.` p e                                           ",
"                                      r _ _ ] 9.9.2.] _ t       e p ` a <.a p s q                                           ",
"                                      q p <.3.5.5.t.3.<.`         q e e e e e                                               ",
"                                      q <.5.8.8.t.t.e.3.`           0 0   0                                                 ",
"                                      q a 3.8.5.5.5.3.<.`                                                                   ",
"                                                                                                                            ",
"                                                                                                                            ",
"                                                                                                                            ",
"                                                                                                                            ",
"                                              : 1 : : : : : : : : : : : :                                                   ",
"                                              : 4 1 1 1 1 : 1 1 1 2 1 2 :                                                   "
};
