/* XPM */
static char *_7bb3fa7b96b46ffadeddb7c240db4c42mqHtZAhraucX8xf[] = {
/* columns rows colors chars-per-pixel */
"61 61 238 2 ",
"   c #3A5B2D",
".  c #3D7135",
"X  c #4D5E2E",
"o  c #575A32",
"O  c #476935",
"+  c #546A39",
"@  c #46783B",
"#  c #57743D",
"$  c #646B3A",
"%  c #4F6C4B",
"&  c #4C7849",
"*  c #587845",
"=  c #567A58",
"-  c #647B44",
";  c #617450",
":  c #787C5A",
">  c #567D68",
",  c #3A8A3C",
"<  c #3A943D",
"1  c #37A03F",
"2  c #458D3E",
"3  c #3E9542",
"4  c #3C9B42",
"5  c #4B8644",
"6  c #578647",
"7  c #5C8C4B",
"8  c #449444",
"9  c #4B9445",
"0  c #499747",
"q  c #449D45",
"w  c #4C954A",
"e  c #469C48",
"r  c #4C9B4B",
"t  c #569646",
"y  c #54944C",
"u  c #5B944D",
"i  c #549C4C",
"p  c #5B9B4D",
"a  c #4D8D55",
"s  c #598758",
"d  c #569552",
"f  c #5C9552",
"g  c #569B52",
"h  c #5C9C53",
"j  c #5E9B59",
"k  c #66874B",
"l  c #648C4B",
"z  c #63944E",
"x  c #6A944E",
"c  c #639B4E",
"v  c #6A994E",
"b  c #73954F",
"n  c #678B56",
"m  c #7D885A",
"M  c #639552",
"N  c #6C9553",
"B  c #649C53",
"V  c #6B9C54",
"C  c #67975B",
"Z  c #649C59",
"A  c #6B9C59",
"S  c #739554",
"D  c #739C55",
"F  c #7A9956",
"G  c #7A9C55",
"H  c #739D59",
"J  c #47A649",
"K  c #4CA44C",
"L  c #4EAD4E",
"P  c #54A34D",
"I  c #59A74E",
"U  c #48B14B",
"Y  c #51B34E",
"T  c #4EA651",
"R  c #55A353",
"E  c #5CA353",
"W  c #54AD52",
"Q  c #5BAA54",
"!  c #5EA459",
"~  c #57A95A",
"^  c #5DAB5B",
"/  c #4DB154",
"(  c #54B353",
")  c #5CB457",
"_  c #66A44E",
"`  c #64A354",
"'  c #6BA355",
"]  c #63AB55",
"[  c #6BAB56",
"{  c #64A35A",
"}  c #6CA45A",
"|  c #64AB5B",
" . c #6CAB5B",
".. c #73A355",
"X. c #7AA355",
"o. c #74AA56",
"O. c #73A45A",
"+. c #7BA45B",
"@. c #73AB5B",
"#. c #7CAC5C",
"$. c #63B156",
"%. c #63B35B",
"&. c #6CB35C",
"*. c #69B85C",
"=. c #75B65A",
"-. c #74B35C",
";. c #7CB35D",
":. c #73B95E",
">. c #4B8165",
",. c #57876B",
"<. c #5A8973",
"1. c #5B947A",
"2. c #638A67",
"3. c #73956B",
"4. c #648975",
"5. c #64957A",
"6. c #67A961",
"7. c #6CAC62",
"8. c #7DA660",
"9. c #73AC61",
"0. c #7BAD61",
"q. c #6DB362",
"w. c #68B761",
"e. c #74B463",
"r. c #7CB462",
"t. c #7CBA63",
"y. c #78B867",
"u. c #849B56",
"i. c #8D965C",
"p. c #839D59",
"a. c #83A55C",
"s. c #85AB5C",
"d. c #89A85A",
"f. c #95A55D",
"g. c #83B35C",
"h. c #89B55C",
"j. c #94B95E",
"k. c #848C64",
"l. c #8E9669",
"z. c #92976C",
"x. c #84A661",
"c. c #83AC62",
"v. c #82B363",
"b. c #8AB465",
"n. c #86B967",
"m. c #95B66B",
"M. c #8BC36E",
"N. c #A0C160",
"B. c #4C6B95",
"V. c #536E98",
"C. c #54739B",
"Z. c #56789F",
"A. c #597AA2",
"S. c #5D8E8C",
"D. c #5E9884",
"F. c #679988",
"G. c #749B85",
"H. c #659D96",
"J. c #5FA384",
"K. c #6BA38A",
"L. c #75A58A",
"P. c #68A899",
"I. c #74AA95",
"U. c #68B69B",
"Y. c #71B19E",
"T. c #5D88A4",
"R. c #6A8FAF",
"E. c #639AA9",
"W. c #6598A8",
"Q. c #609CBD",
"!. c #67A6A6",
"~. c #6BACAB",
"^. c #71ADAA",
"/. c #66B9A7",
"(. c #6CB3AE",
"). c #6CBCAB",
"_. c #74B7A3",
"`. c #73B5AB",
"'. c #73BDAD",
"]. c #7ABDAC",
"[. c #67A8B6",
"{. c #6CAEB4",
"}. c #74ABB7",
"|. c #6DB2B4",
" X c #6BB9B7",
".X c #6EB5B9",
"XX c #72B3B6",
"oX c #74BBB2",
"OX c #7ABCB2",
"+X c #72B5B9",
"@X c #78B7B9",
"#X c #73BABC",
"$X c #65C2A7",
"%X c #6CC3AC",
"&X c #73C3AD",
"*X c #7AC3AE",
"=X c #74C9AE",
"-X c #7ACAAE",
";X c #74C3B1",
":X c #7BC4B2",
">X c #75CAB1",
",X c #7BCAB2",
"<X c #79C6BB",
"1X c #7AD0B2",
"2X c #4D82C3",
"3X c #5388C2",
"4X c #5994C0",
"5X c #74BDC1",
"6X c #7DC8C9",
"7X c #81AD94",
"8X c #83BCAC",
"9X c #82C4AD",
"0X c #83C5B2",
"qX c #82CBB3",
"wX c #86C8B9",
"eX c #8ACCBC",
"rX c #95CABB",
"tX c #87D2BC",
"yX c #88AFC7",
"uX c #89CEC6",
"iX c #97D6C5",
"pX c #95D1CB",
"aX c #9CD7CB",
"sX c #9DDACD",
"dX c #83CED1",
"fX c #84D1D4",
"gX c #A3D7CE",
"hX c #A2DACE",
"jX c #ABDBCF",
"kX c #A5DCD1",
"lX c #AADDD2",
"zX c #9FE2CD",
"xX c #A4E2CE",
"cX c #A9E2CF",
"vX c #A5E1D1",
"bX c #ABE1D3",
"nX c #B0E1D3",
"mX c #C7F4FA",
/* pixels */
"0.G [ j.' h P *.@.X.;.;.X.{ 9.f 9.v.d 5 x E =.i | h D ;.' { [ _ r { #.D =.j.h p W e.' +.:.d.V @.A C r.9.w y N Q &.w | u X.",
" .+.] X.M @.D ` &.@.N { v.n.O.} ) 0.j } F p  .9.3 ` V @.] ` r.-... .@.O.` G B @.N ] e.D { } n.v.} ^ &.o.Z S S E 0.7.4 } V ",
"h l ..H N 0.V y #.o.S D [ =.O.:.Q _ i n.d E ! n.{ p i j.g.c a.j.r.B c x X.D N v.u p g.] G V &.o.;.&.Q p } 0.y E | y.g f B ",
"f &.D S z v.[ h ` [ ` O.v...&.$.` D r / ! g.! ] e.{ u B D ;.h.o.| A d &.S N ` n.p p ' &.M v.X.@.&.| ' c K ( } g.E [ :.f u ",
"y r.] F x z 0 g Z w t B ` A 6.J h ` M @.E ~ n.Z 9.6.' H R &.@.V a.F p r.| b x p 8 { C 3 u E V 7.~ r E B } } R &.b.d y.%...",
"#.M Z L O.C ] B 8 T ! y u i q d d E ] } +.T ` +.'  .:.E W | y V g.n.G j { R H f ] u 3 %.d u y 0 r d h ] ` @.+.K ' X.}  .:.",
"V b.` y [ i y M ~ e.{ w +.+.i ' h.{ e [ B M ;.@.{ ' c.p 4 w B @.&.O.O.;.p p [ 8 M f ) y.8 { x.V i +.#.R P ` h V ;.O.B @.c.",
"V o.Q w #.0 w 9.9.9. .! f A X._ s.4 ! { } r...N L [ [ { } h | q.| c D  .R u @.< f e.7.@.{ j f +.' #.[ r { { +.r.V B L @.[ ",
"( z < h q.o.w 9.M ' #.} | r ;.g.z 8 2 e S n.` V | ^ h h } #.-.] O.E W l 3 { 7.' w c.8 g.} r.i $.h.X.u < 2 i +.r.E V ^ | h ",
"-.%.M d A N O.| B O.a.=.W E ;.D N V 0 V o.b.d.#.V a.H K I ` { } M B :.| z y O.A  .] M @.a.$.K  .o.N S u y D 0.b.d.O.V a.Z ",
"D &.v.f N { &.B I q.&.K ] @.;.s.F c.e.S f a...c...d.p K ~ i X.#.} H } -.0.u D ! q.7 ( y.Q K } -.g.+.x.r.@.N c s.X.b.D s.< ",
"a.B Y U o.-.#.] w.e.@.#.Q q p v.r.0.&.z M s.=.h y n.e.R K ! } } #.#.+.I L L +.=.8.( y.@.+.-.I < l D X.r.[ z V s.] p c M.^ ",
"` O.U R 0 _ B @.:.[ ` ' ] , ! $.#.' e.L u &...0  .&.E G s.[ {  .@.@.' ' U h w ' B ;.-.] z @.2 & a s x O.q.J c @.V K e.&.d ",
"] M &.0 y p v B B { ! B M P Y W B M c.T c s.c ` | ' E ..;.' w y M B h { ) 8 u M B B h { ] u & a K.5.= l O.K ..#.M | ] } ] ",
"y y $.J u w B N r p @.] w L [ B } 9.i i _ V u y y M D x 9.j y h h l y i W r f 8 N M 3 6 5   ,.*XiX9XF.6 w h V c y w h N X.",
"u C a.E  .E y J %.' ` h V s.@.O.0.[ e E 7 k 2 # * k ; = = s = s & * O * # @ 5 . . @ s 2.K.I.rXjXvXrXL.@ r ` c ..B u.v.r.+.",
"-.u N B n.G d.o.-.9.h 9 t X.' D O.} M 8 s 2.5.G.K.7X7X7XI.I.I.I.I.I.L.F.L.5.7XG.7XL.7X8XwXiXlXbXcXrXK.6 ^ W ' ' { X.o.n.v.",
"h.[ u [ ' a.v.v...B { c i c c [ M 6 s ,.5.I.-XeXiXhXxXvXcXcXzXiXsXxXcXsXsXxXsXlXhXxXxXxXlXhXhXgXxX0X1.#  .%.B c I c V } &.",
"e.n.Z n.h #.e.` p Q ` A { w h 6 * ,.P.;XeXiXkXkXjXsXkXvXsXkXxXxXlXkXbXbXkXbXhXbXvXhXhXhXkXkXhXhXiX9XF.@ E } A &.o.l V 0 @.",
"O. .@.@.u ' P r h H c y O...@ ,.K.U.:XiXbXbXsXkXxXhXhXhXsXsXsXvXlXkXlXlXbXvXgXvXhXhXhXhXaXhXbXhXtX_.1.2 h D x.%.0 R 7.E E ",
"M D G B e i ` ' 9.` 9 B ..n 4.P.OXtXiXkXbXkXsXbXzXkXlXkXkXkXkXkXvXkXgXjXkXsXaXhXhXkXkXkXaXkXbXjXqXY.1.t P A 0.E W m./ 7.+.",
"] f.z Z | j E V @.E T B * 5.`.1X0XhXsXaXkXkXvXlXkXgXgXlXvXlXgXsXkXsXkXlXaXkXkXhXhXhXvXsXsXbXhXuX1XI.3.c J d 9.' e.n.R N } ",
"r.S B [  .o.w A O.e.! 5 F._.>X,XeXhXkXkXkXgXsXkXkXkXsXhXbXbXgXaXaXkXlXgXkXkXkXkXsXkXkXbXsXvXsXwX1XI.2.A { M S p E +.M A 0 ",
"O.h.O.r c ' u I E B s <._.&X=X,XiXhXlXkXlXhXkXkXlXkXaXhXlXvXbXhXsXlXlXlXkXsXgXhXgXhXsXlXvXsXeX).1XY.,.u } H +.g B +.r.E 3 ",
"f j.B  .V c V ) [ * <.Y.;X]./.:XpXkXkXkXlXbXsXkXkXsXkXkXkXlXnXlXkXlXkXnXsXkXhXhXkXxXlXhXsXeXOX_.%X_.5.6 i X.b. .h } ] r O.",
"` #.y c.q.B N #.H ; K.,X&X0X*X;XiXaXkXkXkXlXkXkXgXhXkXsXhXvXlXlXkXkXkXkXkXbXkXhXkXlXlXhXiXoX&X0X=X9XI.O E ' o.v.q.M S E $.",
"[ g O.` $.&.' S # 1.'.-X%XqX:X%XeXaXlXlXhXlXkXkXgXvXhXsXkXxXlXlXsXsXkXgXkXgXvXlXjXlXaXuXeX%X,X,X&X-XU.& V O.B a. .c S r.1 ",
"h G @.K p [ ;.x # U.,X-X>X=X%X/.'.iXlXlXlXkXkXkXhXkXhXhXsXhXlXkXkXkXgXlXkXsXkXvXjXpXtX,X;X=X>X%X/.=XU.4.S @.O.D E ! u -.w ",
"H u.@.} 8 ] ;.C ,._.-X>X;X'./.;X).eXrXcXjXgXgXlXkXgXsXaXkXkXgXkXkXlXlXlXkXhXaXhXiX0X*X'.>X>X;X/.).&X'.L.n N H E P #.y h e ",
"X. .| 9.g ] ` n K.`.=X%X'.).%X:X'.=X9XtXgXlXkXlXkXgXjXkXvXbXkXkXkXkXlXkXlXgXtXqX*X=X=X'.%X>X'.).;X:X'.Y.s M N B E b.h y ..",
"E %.r } | D l s _.).%X%X).'.;XqX]. X[.[.@X8XeXaXpXaXjXgXkXkXhXaXhXaXiXuXwXqX<X[.[.{.(.).%X/.'.'.,XqX;X/.s p 0.B C c.P [ f.",
"%.~ ~ 6. .D n 2.'.%X%X:X*XoX).;X`.E.yXlX}.~.oX:X:XtXeXeXeXeXtXeXeXtX,X>X=X XR.}.lXyXE./.=X*XOX'.'.;X;X/.>.u n.[ V c E =...",
"&.N &.r.@.h f 4.=X*X:XqX8X'.'.).E.T.pXmXyXA.!././.%X'.=X'.).=X%X).%X=X'.,X!.T.yXmXyXA.W.-X9X].oX'.'.:X&X>.7 O.$.@.3 &.` z ",
"@.+.` h.V u 6 1.-X:X;X:X:XqX:X`.T.A.R.yXR.A.E.=X%X%X].=X=X;X:X=X'.;X0X].-XE.C.R.yXR.C.W.*X-X,X0XOX;X,X,X<.s x ! -.h R B X.",
"` D ....N V n 1.-X-X'.*X,XqX*X;XE.C.C.A.V.C.!.,X).&X'.0X*X&XqX0X,X:X;X*X*XE.C.V.R.V.C.W.].=XqX0X-X;X-X&X4.3.x E 7.0.8 { V ",
"f B G D x S ,.D.*X-X].OX:X*X-X,X(.T.B.B.V.R.{.,X=X'.).0X9X-X0X0X:XoX).].8X^.W.C.B.V.T.XX].*X,X:X-X=X&X$X1.6.h o.! y.| u p ",
"y e.[ S z z = D.&X%X'.].0X;X>X=X'.~.W.T.E.'.-X&X,X;X'.'.'.,X-X].&X'.).,X*X].(.E.T.E.~.%X).0X].:X>X%X;X'.1.g ' ;.@.E e.` B ",
"V @.] B S 6 a F.).%X).).).'.%X/.).%X'.'.&X%X0X*X:X=X-X].%X=X&X'.0X9X&X*X=X]._.)./.'.).$X).).'.%X%X/.%X&X5.C ] ~ v.V 7. .@.",
"+.} C K  .y s <./.=X;X).'.'.$X'.*X&X%X=X:X).&X].'.&X:X).).).(.;X:X0XOXoX).$X-X(.&X).$X-X/.'.'.).).'.>X%X1.C ..R o.+.` @.;.",
"V g.] y o.8 & 2.=X1X;X).:X:X&X;X0X).).oX(.OXOXXX|.oX@X(.|.(.|.oXoXXXXXOX(.|.oX/.(.'.;X<X).&X:X*X&X0X,X%X,.n B +.@.' E o.#.",
"] B P g 0.i & 2.;X:X-X].).oXuX<X5X|.|.{.|.XX}.{.{.|.|..X+X}.[..XXX|.XX{.{.{.+X~.|.oX X<X6X<X).:X-X9X&X/.>.6 9.r.B B ( [ ` ",
"$.B 9 d  .o.6 s P.&X:X].'.<XfXfX6X5X{.~.|.@XXXXX.X{..X{.Q.Q.Q.[.{.|.|.|.{.|..X}.{.+X#XdXdXdX<X&X8X].'.P.& 6 +.v...} { ' f ",
"@.w.+.y N V } s 1.`.OX'.oX6XfXdXdX6X|.}.|.@X}.@X}.XX[.3X2X2X2X3X3X[.+X|.|.{.XXXXXX+X6XfXfX6X6XoX^.8X^.D.s x O.b.a.#.D d.h ",
"H [ e.P D [  .7 & P.oX(.#X6XfXfXdXuX#X{.{.XX+XXXXX#XQ.2X2X2X2X2X2X[.XXXX.X{.XX|.XX|.6XdXfX6X6X#X@X@XI.; V l x s.[ a.' b.q ",
"a.V J U } -...c # <.P.oX.X5X6X6XdX#XXX|.{.+XXX{.{.@X[.Q.Q.3X4X4X4X[.+X.X(. X{. XXXXX5X6XfX6X5X[.|.P.4.+ p i N ;.] 8 { M.| ",
"I } Y R 8 p u N k X > !.#X X5X6X+XXX+X|.{.+X{.{.+X|..X}.}.[.[..X+X}..X}. X{.[.|.{.+X+X+X5X5X X5X!.<.o 7 B K ` o.M E e.! p ",
"h h &.q u y z 7 5 & = > S.~. X5X+X|.XX|.|.XX{.|.|.}.{.}.+X|.{.{.|.{.{.{.|.{.{.{.XX{.|..X5X X[.D.,.& + n z p ..O.f ] E V [ ",
"y i [ P ` w z z y 6 * O % D.H.!.|.+X{.+XXX+X.X|.|.+X+X+X+X X|. X.X}.{..X.X.X+X X+X+X|.{.~.H.1.> o * A u 3 B _ z u u A O.X.",
"B V p.c t.` V J [ V 6 & + $ % 4.F.!.~.{.{.XXXXXX+X@X#X}.|.+X|. X.X#X+X+XXXXX@X|.+X(.~.H.> % o $ z N D ` R ! B ..V a.g.M.+.",
"t.p 7 ` g.p.f.g.@. .f 5 2 6 * * ; = > ,.1.S.H.P.P.^.`.^.!.~.!.!.~.^.~.H.H.H.G.4.: > = % % . * 7 l x } 9.%.( ' V ` ' v g.t.",
"n.r.M r.h s.e.;.V h V V z y 6 7 - O * s = s > > > > <.<.> <.,.> > 4.4.2.> 2.= 2.s - O 6 * 7 y u ] [ Z d 7.q.h ] E u V g $.",
"@.n.{ n.d o.7.r i | h C D p h I x.w 5 7 - 7 # + # O + + O O + * * + - - * k @ k 7 , u Z d S ` h r 0.r.e i V X.&.} N 6.e @.",
"S B ;.' u E 0 h { S u y #.b.p p $.Y E M f.&.< E ^ { u 9 9 u u h ] k N c X.u y B q M } S y u n.@.u _ ) Y h G b.^ 4 | w. .h ",
"u d.N B K i [ @.0.E e [ =.o...` D ;.Y d 7.f / m.) B p.r.{ G D | &.p x p.z f e h @.O.e.e y :.=.o.' V X.&.K ! 7.p w.m.J A a.",
"&.i.u Z 9.{ w z ..] ) | o...{ ;.a.c.R 8 H D q.r.{ N p +.r.;.c 8 d | #.u.y 7. .j 0 V o.Q ) [ ..v &.#.x.#.q h G O.q.#.B M h ",
"r.M [ ] ' O.i } } e.&.K @.@.7.q.V [ 9.A F f 8 O...} 8 i g.b.} 8 4 ] 8.M [ ] ' O.w 0.B y./ ` #.O.q.[ '  .7.S C d t +.} A < ",
"B N.O.0 z c M L P Z } ! h u P e.{ ] ` B m.{ } V n.] K ` V #.b.@.' c.X.j.Z 0 B B M U g B | E B 0 | 9.B ] ` +.b.! H O.n.J r ",
"p j.w y.O.c ..&.#.H E ! F G y c d.6.K V a.n.E { i w  .o.X.a.b.+.' O.' h.e n.V M ..&.c.A ! j p.V y X.#.~ i G c.e.P { w u -.",
" .h Z a.*.] V +.O.O.v.o.K ;.s.[ d.q | } i #.y.B F ..Y < [ ;.v.#.i `  .j A s.) V D a.H 9.n.i ] v.o.s.' K | { ` n.y.M G ' J ",
"B E 0.e Q =.' N i ) 7.{ &.e.6.K [ _ { s.] i.{ E z r.i ^ ) $...A | Y c ' 9.4 &.e.B N J w.A ] =.7.T I ' _ X.+.` k.h p V t.< ",
"j u.o.E y ` g.O.@.o.#.:.$.I 8 d u [ h.;.+.{ h | y ' B e 8 g k : k.l.z.k.m m k.z.z.k.l.l.l.: $ @ O : m : : : : l.k.+ 6 } s "
};
