/* XPM */
static char *_3bc97198af44624c0fc49d1ba57c537AxRUBSUwaNmcnpdN[] = {
/* columns rows colors chars-per-pixel */
"62 62 238 2 ",
"   c None",
".  c #000000",
"X  c #00070D",
"o  c #091516",
"O  c #29030E",
"+  c #0A2B04",
"@  c #142B00",
"#  c #3B3A00",
"$  c #302F06",
"%  c #001B2A",
"&  c #000824",
"*  c #04232A",
"=  c #1E2225",
"-  c #282727",
";  c #2B2A2A",
":  c #252424",
">  c #302E2E",
",  c #352E24",
"<  c #36362B",
"1  c #28373D",
"2  c #343434",
"3  c #383737",
"4  c #3B3A3A",
"5  c #373839",
"6  c #302E36",
"7  c #453B37",
"8  c #46372A",
"9  c #423E18",
"0  c #39493C",
"q  c #4C4419",
"w  c #51461A",
"e  c #654C00",
"r  c #594A27",
"t  c #464638",
"y  c #56463A",
"u  c #63532E",
"i  c #665021",
"p  c #645431",
"a  c #675539",
"s  c #775939",
"d  c #654C31",
"f  c #75603E",
"g  c #002C44",
"h  c #023B47",
"j  c #173A45",
"k  c #003E53",
"l  c #383C45",
"z  c #243C42",
"x  c #413948",
"c  c #014658",
"v  c #1A4658",
"b  c #2B444A",
"n  c #3C4647",
"m  c #294A57",
"M  c #374C57",
"N  c #39525E",
"B  c #3F5242",
"V  c #004D67",
"C  c #05526B",
"Z  c #18536A",
"A  c #025C79",
"S  c #015774",
"D  c #165C77",
"F  c #164E64",
"G  c #285366",
"H  c #395564",
"J  c #215D75",
"K  c #1B627D",
"L  c #02607B",
"P  c #326477",
"I  c #444444",
"U  c #454B4D",
"Y  c #4B4B4B",
"T  c #494747",
"R  c #575649",
"E  c #4A4F50",
"W  c #454D52",
"Q  c #4A5356",
"!  c #535354",
"~  c #5A5654",
"^  c #535759",
"/  c #53585B",
"(  c #5C5C5C",
")  c #5A5955",
"_  c #4E524B",
"`  c #675447",
"'  c #775948",
"]  c #645B58",
"[  c #735D56",
"{  c #5D6254",
"}  c #7B6345",
"|  c #686858",
" . c #79645B",
".. c #65674F",
"X. c #4E5C62",
"o. c #5D6264",
"O. c #5D6766",
"+. c #4D6D77",
"@. c #646464",
"#. c #6C6C6C",
"$. c #666968",
"%. c #786964",
"&. c #6D7469",
"*. c #777867",
"=. c #6E7072",
"-. c #677775",
";. c #737373",
":. c #7B7B7B",
">. c #757776",
",. c #6D6F70",
"<. c #675E61",
"1. c #865D4D",
"2. c #846548",
"3. c #896956",
"4. c #946C58",
"5. c #8B725D",
"6. c #9D735D",
"7. c #997858",
"8. c #87714F",
"9. c #A8775F",
"0. c #826A61",
"q. c #876E65",
"w. c #887269",
"e. c #9D7B6C",
"r. c #977866",
"t. c #947D72",
"y. c #A77A64",
"u. c #A67F70",
"i. c #7C816D",
"p. c #7B8375",
"a. c #858875",
"s. c #988673",
"d. c #8B8874",
"f. c #A88469",
"g. c #B58A6E",
"h. c #A98574",
"j. c #B78A74",
"k. c #A7927D",
"l. c #BC957A",
"z. c #C6967B",
"x. c #C28E75",
"c. c #026788",
"v. c #156987",
"b. c #087497",
"n. c #1A7A9D",
"m. c #187495",
"M. c #27728F",
"N. c #057EA4",
"B. c #197EA3",
"V. c #005E82",
"C. c #546F88",
"Z. c #1B81A6",
"A. c #1E86AC",
"S. c #1E89AF",
"D. c #1383A9",
"F. c #1F8AB1",
"G. c #178CB5",
"H. c #2287AC",
"J. c #208BB3",
"K. c #768685",
"L. c #848484",
"P. c #8C8C8C",
"I. c #838A86",
"U. c #8D9385",
"Y. c #939582",
"T. c #9B9C8A",
"R. c #929292",
"E. c #9D9D9D",
"W. c #9A9F91",
"Q. c #898C90",
"!. c #B69984",
"~. c #AB9681",
"^. c #9EA292",
"/. c #ABAD9D",
"(. c #A5A797",
"). c #B7A591",
"_. c #969DAF",
"`. c gray64",
"'. c #A9A9A9",
"]. c #ADAFA1",
"[. c #B4B3A4",
"{. c #B4B4B4",
"}. c #B9B9B9",
"|. c #B3B2B8",
" X c #B6AFAA",
".X c #90A5BF",
"XX c #CB9B83",
"oX c #D49D85",
"OX c #C9A586",
"+X c #DCA58C",
"@X c #D8AA8C",
"#X c #DBAD92",
"$X c #CBB694",
"%X c #DCB594",
"&X c #EAB295",
"*X c #E2BC9D",
"=X c #EAB898",
"-X c #E9B294",
";X c #CFB7AC",
":X c #E4BDA5",
">X c #F1C39E",
",X c #DAC3A1",
"<X c #D7C6BF",
"1X c #EBC5A4",
"2X c #E6C7A9",
"3X c #F2CCA9",
"4X c #F2C6A6",
"5X c #F7D2AD",
"6X c #EFCDB3",
"7X c #E8D4B6",
"8X c #FAD5B3",
"9X c #FCDAB5",
"0X c #F9D8B9",
"qX c #EDD0AA",
"wX c #FEE4BD",
"eX c #FFE9BF",
"rX c #9FB3CA",
"tX c #B6C8D4",
"yX c #CCD3D9",
"uX c #D2CECE",
"iX c #E6DAD5",
"pX c #FFDFC0",
"aX c #FFEAC4",
"sX c #FBE3C6",
"dX c #FFF1CA",
"fX c #FDEDDB",
"gX c #F9EAD6",
"hX c #FFF3D6",
"jX c #FFF3DB",
"kX c #FFF8D8",
"lX c #EFE3D3",
"zX c #CADAF1",
"xX c #FFF9E6",
"cX c #FFFBEA",
"vX c #FEF5E3",
"bX c #FEFEF8",
"nX c #EEF3F2",
"mX c #DEEFFE",
/* pixels */
"                                              ; > ; ; ; > ; ; ; ; ; > > ;                                                   ",
"                                            2 2 4 5 5 5 4 4 4 4 5 5 5 4 3 2                                                 ",
"                                      ; - : 2 T Y T Y Y E Y ! Y Y T T Y T 2 : - ;                                           ",
"                                    2 4 I T ~ $.#.#.#.( ) ! ! ) ( #.#.#.@.^ I I 5 2                                         ",
"                              ; - - 5 Y ~ ( ;.L.P.P.L.=.<.! ! ( ;.L.P.P.L.,.( ~ T 5 - - ;                                   ",
"                            2 I T ! ] #.C.R.E.`.E.R.P.L.;.( o.>.L.P.R.E.`.E.R.:.#.( E T I 3                                 ",
"                        - > I Y ( $.>.L./.{.|.{.'.R.I.Q.K.,.=.L.P.L.R.'.{.}.{.E.L.:.$.X.Y I >                               ",
"                      ; 2 T ! @.,.L.R.'.;X}.{.'.E.R.P.R.P.t.L.P.R.R.R.E.'.{.}.{.`.R.t.,.( ! I 2 ;                           ",
"                    - 2 T ~ ( #.:.P.`.{.}.{.`.R.L.P.P.Q.P.P.P.P.P.P.P.P.R.'.{.}.|.`.L.:.,.] ! I 2 -                         ",
"                  2 4 T ~ @.>.L.:.:.R.`.`.E.`.'.E.L.:.P.R.R.R.P.P.:.L.E.'.`.E.`.`.P.:.L.L.>.@.^ T 3 2                       ",
"                - 3 T ) @.#.C.P.t.,.>.L.P.P.`.{.`.;.#.P.R.R.P.R.L.#.>.`.{.E.P.P.L.>.#.a.P.C.#.<.~ T 2 -                     ",
"                = 3 ~ $.#.;.w.#.>.K.:.;.P.'.'.R.:.~ @.L.R.C.t.P.L.<.( :.R.'.'.P.;.:.L.:.#.w.,.#.@.! > =                     ",
"                : 4 <.,.,.#.~ ! ;.Q.:.,.R.{.`.=.Y ! #.P.d.$.,.L.P.$.~ ! =.`.{.R.#.C.R.;.! ~ $.,.#.( 7 -                     ",
"              2 7 Y @.=.@.~ ~ o.#.>.:.L.R.E.I.( <.:.L.:.,.Q Q =.s.C.:.( ] P.E.R.L.t.:.%.o.~ ~ $.;.@.Y l 2                   ",
"            - 4 E ~ @.$.( ~ $.;.#.$.:.P.R.L.=.W $.P.T.%.] [ [ <.#.P.P.@.Q ;.L.R.P.>.@.#.;.$.^ ( $.@.~ T 5 -                 ",
"            - 5 Y ! ^ ~ ( #.:.L.=.~ ;.R.P.>.o.l @.Q.C.M [ x.j.] N I.P.o.b o.:.P.P.;.~ ;.L.:.$.( ) ^ ! T 2 ;                 ",
"            ; 3 T ! Y ! ] ;.L.P.;.! $.L.C.%.[ 0.w.:.:.w.~.:X:X~.w.:.C.w.q.[ o.:.L.$.! :.R.L.#.<.E ! ! T 2 ;                 ",
"            - 3 T ! ! ! ( ;.L.R.;.~ <.;.O.b w.XXj.! ;.@X6XfXgX6XOX&.] x.z.q.m o.;.( ! :.P.L.,.] ! _ ! Y 2 ;                 ",
"            - 3 Y ! E W / $.:.L.=.E W ( %.w.XX4X:Xh.!.6XfXcXcXhX6X!.h.*X4XXXq.%.o.E E ,.L.:.$.^ U E ! T 2 ;                 ",
"            - 3 T ! U U U ^ $.;.o.n b Q e.oX3XsX0X1X7XvXcXcXcXcXfX7X1XwXsX4XoXr.W b n @.=.$.! T n E ! Y 2 -                 ",
"            ; 4 U ) w.u.0.Y M / w.e.1., ' j.OX$X,X3X0XhXvXjXjXvXhX0X3X,X$XXXj.' >  .u.%./ M ! 0.s.w.~ I 2 ;                 ",
"            - 5 z ] l.+Xh.E h Y h.+Xu.8 . 7 ; X s.1X9XeXaXaXaXaXaX9X*Xr.. ; 3 X 8 g.+Xg.U h ^ h.+Xl.] z 2 ;                 ",
"              2 % ] XX&Xh.!  .g.+X=X;X_.C.& M Q.;X:X8XwXeXeXeXeXwX8X:X XQ.M & C._.;X=X+Xh.[ Q j.&XXX! % 2                   ",
"                . y z.+Xu.! u.+X=X6XiXzX.X6 L.yXiX6X5XwXaXeXeXaXpX3X6XiXyX:.l .XzXiX4X=X+Xy.! h.+Xx.7 .                     ",
"                  7 4.f.3.^ r.OX&X3XlXmXrXx <.|.<X2X5XeXeXeXeXeXwX5X2XuX X] W tXmXlX3X%XXXr.~ %.u.4.                        ",
"                    & * 1 ! 5.k.@X4XnXnXtXE O :.).1X9XsXaXaXaXaXeX9X:X).;.O / yXbXgX3X@Xh.5.! 1 * &                         ",
"                        % T r.j.#X3XvXbXyX<.. T ~.qXaXhXjXjXfXjXhXaX2X~.l . @.yXbXvX3X@Xg.5.I %                             ",
"                          > ' g.@X4XfXbXuX<.. X k.7XkXcXcXcXcXcXcXkX7Xs.. . %.yXbXgX4XOXh.} >                               ",
"                            r } z.=X0XsX;X! . . T.lXcXcXcXcXcXcXxXcXlXY.. . <.;XsX0X&Xx.} y                                 ",
"                              q 7.z.&X4X@Xt.%.%. XfXbXcXcXcXcXcXcXbXgX[.%.%.s.#X:X&Xz.6.#                                   ",
"                              t a 2.x.&X=X2X,X2XsXvXcXcXcXvXxXcXcXcXjXlXqX,X*X=X-Xj.2.a t                                   ",
"                            | @.B + 2.x.#X1X9XeXhXjXvXcXcXcXcXcXcXxXhXdXaX9X1X+Xl.} + 0 { )                                 ",
"                          t *.d.#.j 8 s 7.z.*X5XeXeXkXxXcXcXcXbXvXhXaXeXqX*Xl.7.s 8 j { *.| t                               ",
"                        { *.W.(.a.k g h ` 8.g.OX,X3XsXdXjXhXjXjXgXwX3X*XOXg.8.R c g v >.d.Y.*.{                             ",
"                      R i.d.(.].I.G V v.X.r e u f.+X4X8XwX5X5XwX3X4X@Xf.i e u H D V G I./.(.U.*.R                           ",
"                    R &.T.(.].(.K.J V.b.m.P c % a y.x.z.$Xz.z.).z.x.9.d * c P M.b.S G U.].[.^.Y.| {                         ",
"                0 t | p.W.].(.T.p.v.b.D.H.H.m.C I r i u p u u u p i r n C m.H.S.Z.L G U.].[./.^.a.i.                        ",
"              a f.k.s.i.U.^.T.d.-.K b.S.G.S.D.b.L c b a ..| ....R b V L b.D.G.G.S.K N i.(./.].(.d.i.                        ",
"            + s z.@Xl.i.i.i.a.i.O.F c.H.J.A.S.S.D.c.+.>.i.a.Y.a.i.+.c.D.S.S.S.G.H.P R i.T.(./.(.T.i.{ t                     ",
"            @ 2.OX&X%X!.s.| ..*._ v A m.Z.A.S.F.D.D.M.+.&.i.i.O.+.M.D.D.S.S.A.D.n.H R p.W.(./.^.U.i.{ t                     ",
"            + s x.+X-X+Xf._ 0 _ l j V K m.H.S.S.J.J.n.S k k g k A B.J.S.A.S.A.m.K M R d.[.[.[./.T.a.R t                     ",
"                8.g.x.y.3.      z h C v.n.A.F.S.J.J.B.c.V k V S c.Z.J.F.A.F.A.b.K c ..).7X7X7X7X7X).{ *                     ",
"                # # # #           j F v.m.H.Z.H.A.A.B.m.D F Z D m.n.H.A.A.S.H.b.K * a $XeXdXeXdXeX,X...                     ",
"                                  6 v S c.m.B.H.A.n.v.V.V k k V L v.n.A.J.B.v.c.F * a $XdXdXdXeXwX$X` .                     ",
"                                  > l m Z D m.B.n.v.Z G m z m m G D v.n.B.m.D Z m o p $XeXeXeX9X4XXXu .                     ",
"                                  > U ^ H V S A S S G X.^ ! ! ^ X.G S A S S C H / 0 p z.1X9X9X2XOXf.p $                     ",
"                                  > T ^ X.X.H H m v M ! ~ ~ ~ ~ E M v M H G N ^ ! 0 r 9.z.%X%XOXf.} r                       ",
"                                ; 6 7 T / $.=.=.@.U l T T Y Y Y T n W @.=.$.o.) T     s 8.7.8.8.s p                         ",
"                                  > 2 4 ] ;.:.:.#.! 7 4 4 l 4 4 4 4 Y #.;.,.<.^ 4       @ + . @ #                           ",
"                                    3 4 @.;.:.>.#.( Y 3 > 3 2 > 6 5 U @.$.@.^ ! n                                           ",
"                                      n ) #.#.;.$.o.W 6 : - > < t y R [ %.] ` ~ t                                           ",
"                                      I Q ^ o.$.o.( E l =     q d ' ' 1.1.1.' a r                                           ",
"                                      t ` ` [ 0.0.3.[ ` y       r a ' s s s s d w                                           ",
"                                      w s 1.4.6.9.9.4.1.'         w r r r r r                                               ",
"                                      w 1.6.9.9.9.y.r.4.'           q q   q                                                 ",
"                                      w s 4.6.6.6.r.4.1.'                                                                   ",
"                                                                                                                            ",
"                                                                                                                            ",
"                                                                                                                            ",
"                                                                                                                            ",
"                                              > 2 > > > > > > > > > > > >                                                   ",
"                                              > 3 2 2 2 > 2 2 2 2 3 2 3 >                                                   "
};
