/* XPM */
static char *d82692ba209841bbbe11fc33c558e95cKbLEDNa9hRR56IHb[] = {
/* columns rows colors chars-per-pixel */
"61 61 204 2 ",
"   c #4B6C3B",
".  c #51603B",
"X  c #467B3B",
"o  c #616545",
"O  c #747758",
"+  c #767C58",
"@  c #7A7D5B",
"#  c #3D8F3D",
"$  c #2D923A",
"%  c #34933B",
"&  c #3C943E",
"*  c #33993D",
"=  c #44953F",
"-  c #3D9541",
";  c #379943",
":  c #3C9A43",
">  c #3AB145",
",  c #468E45",
"<  c #538547",
"1  c #568E4B",
"2  c #5C8E4B",
"3  c #449444",
"4  c #4B9445",
"5  c #449B45",
"6  c #4B9B44",
"7  c #469549",
"8  c #4C954A",
"9  c #459D49",
"0  c #4C9B4B",
"q  c #519645",
"w  c #5E9147",
"e  c #539A47",
"r  c #5A9B46",
"t  c #54944C",
"y  c #5B944D",
"u  c #539B4D",
"i  c #5B9B4E",
"p  c #588D52",
"a  c #4F9450",
"s  c #4B9F51",
"d  c #569552",
"f  c #5C9552",
"g  c #559C52",
"h  c #5C9C53",
"j  c #5E9C59",
"k  c #68864D",
"l  c #628F4D",
"z  c #688D4E",
"x  c #718F4F",
"c  c #63944E",
"v  c #6B934F",
"b  c #639B4E",
"n  c #6A9A4E",
"m  c #71974F",
"M  c #71994F",
"N  c #648F51",
"B  c #7A8E50",
"V  c #7D855D",
"C  c #639552",
"Z  c #6C9553",
"A  c #649C53",
"S  c #6B9C54",
"D  c #649759",
"F  c #639C59",
"G  c #6C9C59",
"H  c #739554",
"J  c #7B9553",
"K  c #739C55",
"L  c #7A9D54",
"P  c #759758",
"I  c #739D59",
"U  c #7B9E5A",
"Y  c #42A346",
"T  c #4CA247",
"R  c #42AC46",
"E  c #4EA847",
"W  c #47A24A",
"Q  c #4CA44C",
"!  c #42AE4B",
"~  c #4EAC4D",
"^  c #53A34D",
"/  c #5BA34E",
"(  c #54AC4D",
")  c #5BAA4F",
"_  c #45B149",
"`  c #4CB24D",
"'  c #52B24E",
"]  c #51B84E",
"[  c #4EA452",
"{  c #4EAA51",
"}  c #55A352",
"|  c #5CA353",
" . c #54AC52",
".. c #5BAB54",
"X. c #5DA459",
"o. c #57A95A",
"O. c #5DAB5A",
"+. c #4CB352",
"@. c #54B353",
"#. c #5CB454",
"$. c #5EB857",
"%. c #5CB35A",
"&. c #5EBA5C",
"*. c #62A34F",
"=. c #6EA74D",
"-. c #63A354",
";. c #6BA355",
":. c #63AB55",
">. c #6BAB56",
",. c #64A45A",
"<. c #6CA45A",
"1. c #64AB5B",
"2. c #6CAB5B",
"3. c #73A355",
"4. c #7BA355",
"5. c #72AA56",
"6. c #7BAB56",
"7. c #73A45B",
"8. c #7BA45B",
"9. c #73AC5B",
"0. c #7CAC5C",
"q. c #62B255",
"w. c #6EB056",
"e. c #61B857",
"r. c #69B857",
"t. c #64B35B",
"y. c #6CB35C",
"u. c #64B95C",
"i. c #6DB85D",
"p. c #71B257",
"a. c #73B35C",
"s. c #7BB35D",
"d. c #73B95D",
"f. c #78BA5C",
"g. c #6BA760",
"h. c #64AC61",
"j. c #6CAC62",
"k. c #74A661",
"l. c #7CA761",
"z. c #74AD61",
"x. c #7BAC62",
"c. c #7FAF68",
"v. c #64B361",
"b. c #6CB362",
"n. c #67BA60",
"m. c #6DB963",
"M. c #74B462",
"N. c #7CB362",
"B. c #7EB164",
"V. c #75B964",
"C. c #7CBA63",
"Z. c #7BB66A",
"A. c #76BA68",
"S. c #7DB96B",
"D. c #898C5F",
"F. c #829B56",
"G. c #899955",
"H. c #849D5A",
"J. c #8D9D59",
"K. c #83A656",
"L. c #89A555",
"P. c #83AC57",
"I. c #8AAA57",
"U. c #83A45B",
"Y. c #8AA55B",
"T. c #84AB5C",
"R. c #8DAC5D",
"E. c #93A35B",
"W. c #91AD5F",
"Q. c #83B35D",
"!. c #8BB35B",
"~. c #83B95E",
"^. c #90B35F",
"/. c #92B95C",
"(. c #9BBE5E",
"). c #858D64",
"_. c #8C9564",
"`. c #8E966C",
"'. c #8E9869",
"]. c #91966C",
"[. c #94996D",
"{. c #84A660",
"}. c #83AD61",
"|. c #8AAC63",
" X c #87AC68",
".X c #94AE62",
"XX c #98AA61",
"oX c #83B463",
"OX c #8AB364",
"+X c #84BA63",
"@X c #8BBA64",
"#X c #82B569",
"$X c #8AB569",
"%X c #81BA6A",
"&X c #8BBB69",
"*X c #8AB96A",
"=X c #98B865",
"-X c #8AB771",
";X c #98B977",
":X c #9ABB78",
">X c #86C06B",
",X c #89C26C",
"<X c #92C871",
"1X c #A0C160",
/* pixels */
"x.L :./.<.f ( i.>.4.0.s.4.,.k.C k.Z.y , v | a.u O.h K p.<.1.>.-.e ,.0.L 2./.h i ( V.;.K.d.I.;.g.G D B.z.8 1 C :.a.8 1.y 3.",
"9.7.:.4.Z 2.K -.d.7.Z -.oX&X<.<.&.0.j <.J h w.z.- -.S s.-.>.N.9.;.7.9.9.-.4.D 9.Z q.V.Z A <.&XoX<.1.y.7.F I H | M.g.; <.S ",
"h c 4.K Z x.S t 0.9.Z K 2.a.4.d.X.-.u &Xf | X.%X,.d i !.P.-.K./.M.;.y Z 4.Z Z #Xy h ~.-.J ;.i.3.a.y.:.r 2.}.t X.1.%Xg f A ",
"p y.K H y oX>.i -.w.-.8.oX;.i.t.-.K 0 ` | Q.| :.V.-.y A L s.!.5.,.F j a.L Z A +Xh i ;.w.C oX4.9.y.:.;.A Q ~ >.Q.} w.d.f w ",
"t oXe.J H c 4 g F 8 q A A <.h.T i -.F 9.h ..&XF z.t.<.G } i.5.Z H.J | C.q.B c A 3 ,.D , y | Z j...0 h | G <.} y.@Xj z.1.K ",
"8.f F ~ 7.D :.h , { X.1 y e 5 d d -.:.<.0.[ ,.4.<.9.a.-.o.O.t ;.oX+XL d F } I d :.y - %.d t f 5 0 d h ,.,.9.7.Q ;.4.<.2.a.",
"S +X-.t >.0 y f o.V.,.a l.4.u ;.!.1.5 ,.h C 0.9.A <.}.r : 8 A 9.i.9.7.N.h u >.6 C f #.S.7 F {.-.g 6.Q.} ^ -.A S s.3.A 7.oX",
"S 7...t 0.6 1 z.b.k.2.X.f G 3.;.P.: X.,.<.oX3.Z ~ >.>.,.<.j 1.b.,.c 3.>.| y 9.% f V.j.7.>.j f 8.;.0.;.9 ,.g.7.s.S F ` a.>.",
"@.v & h b.7.8 k.F ;.0.<.:.Q C.Q.C - 3 5 Z #X-.S O.X.j i ;.0.p.:.3.| ..w - ,.y.S 8 x.3 ~.<.x.0 :.~.4.y & - e 8.x.b ;.O.X.h ",
"a.u.C d G Z 9.:.A 3.0.s.( | s.H Z Z 4 Z 7.@XY.0.G K.I [ } -.;.<.C F y.1.c d I G 9.-.Z 7.T.r.T a.4.Z K f t K x.OXY.9.Z U.F ",
"G w.oXy M -.y.A ^ m.2.Q 1.9.s.}.8.}.d.P y I.3.OX3.T.r { o.g 3.0.7.I <.d.x.y M ,.b.2 @.Z.| { <.a.Q.U.U.N.9.H A I.3.OX3.P.& ",
"U.;.( ! 7.a.0...m.M.9.0...3 r T.f.U.a.f C T.9.h t &XV.g Q o.<.7.9.0.8./ ' ~ 8.d.k.@.A.2.8.d.^ - S N.s.x.>.y Z Q.>.y F <XO.",
"-.7._ | 0 *.A 0.a.2.-.;.-.& :.e.9.;.M.{ y >.3.6 2.y.-.H P.>.,.g.2.9.;.;.R j 6 ;.A s.a.:.i 9.6 t %.i.;.7.u.Q b 9.A Q M.y.h ",
"-.F u.6 t i A A -.,.X.-.C u ` ..A Z {.{ b s.F -.1.<.| 3.Q.;.8 u C A -.F %.4 y h n A -.,.:.F f E ` -.D 8.9.^ 3.0.A ,.:.F -.",
"t t q.Q y 7 A Z 0 i 9.:.4 ( >.F <.9.0 i =.Z y u g C 3.K B.>.h ,.-.z u h %.6 f 3 Z G : Z y.y Y #.;.S z.-.e i ;.c t e h G 4.",
"y F U.b 2.| t T q.<.A h Z Q.9.<.x.>.9 X.i K | J T.S.0.H F } G :.%.>.y I 4./ b.u e E M.-.,.y 4.0.;.9.0.| [ j b 3.A F.N.#X4.",
"p.i v b +XJ Y.5.w.z.g 4 r 4.S K 7.a.>.+.;.3.A 3.;.+XS.U.c h i 0 ,.M.>.y v >.@XJ W...N.2.f - ;.3.S K 9.z.O.@.S 3.S 4.9.@XC.",
"+X>.y 5.;.Y.oXQ.7.,.<.b u i b 2.F F j.u.,.A ..i n S w.2.K >.( $ t 9.~.-.c p.S |.s.T.A ,.S e i c ;.>.j G b.%.A *.( i S ;.y.",
"M.&Xj S.h 0.V.,.r 1.X.Z -.0 -.1. Xu h 1.A :.a.C K 8 >.z.g | ,.>.9.;.#X+XF S.t Q.b.r *.1.D 7.u f  .x.9.0 | <.F 2.9.l S 8 9.",
"I 9.0.9.h -.^ 0 j G C t 8.N.u i d._ h F E.m.t 0 <.1.| 0 8 X.g >.9.G 7.2.9.7.y >.9 g F K 8 c oX>.t >.q.~ j L R.t.8 } j...j ",
"c 3.L F 9 u >.;.9.-.q A s.s.S b S r...h x.,.R -X%.;.8.2.| S K 2.d.A c 8.K h 3 -.>.<.k.i t >.s.0.A A >.r.} <.x.} ( -X+.7.4.",
",.E.c F ,.| h A 9.| { 2.5.;.;.a.H.oXE 7 k.K v.$XO.G G 0.b.0.n } ,.j 3.J.d ,.1.g | Z 9.Q ..y.9.S >.7.U.p.Y f k.;.M.$Xo.Z K ",
"N.H b >.2.7.8 G 7.a.t. .5.0.<.a.3.9.2.h H F g 6.S G 8 -.+X+X-.& 5 ..x.Z -.>.>.<.7 8.;.V.{ :.0.7.b.2.8.9.,.C H h | 6.C G 3 ",
"<.!.7.0 b ;.y | } <.2.o.F -.X.V.F -.2.G |.g h K oX:.5 i 8.P.0.| / 9.0.I.F 0 S ;.y ..g z.O.| ,.i b.j.-.>.,.8.{.d A 7.s.| 5 ",
"i =Xh 2.S b G q.>.G j | K H 8 <.8.,.^ Z .XM.| ;.>.u ,.9.L 8.OX0.S T.3./.g 2.v b S #.7.Z X.X.U w h 3.7.O.r 4.OXj.-.<.:.u <.",
">.6.y oXb.A K 5.8.8.z.>.b 0.3.S I.{ o.;.S N.M.,.Z A q.e 7.0.+X0.A ;.<.;.h $Xt.b I x.l.>.s.i 3.8.S 6.5. .X.<.3.#X2.F v | q.",
"-.g 7.A e.w.S K -.t.z.<...N.z.) 6.^ ,.0.h U.9.h v N.E ^ q.r.9.8.|  .-.| 7.-.e.>.Z 8./ b.0.X.w.S.:.>.=.^ >.7.A T.2.y K a.; ",
"h U 9.Q g >.s.K -.2.9.y.y.:.} [ A >.0.Q.<.8.-.X.y 9.h } Q u 7.;.1.t.C U.>.9 F w.0.Z q.>.9.y.>.X.s f | 5.T.0.7.K | X.c N.0 ",
"I F.9.2.7 :.~.7.2.;.>.d.>.i : F f s.L.>.8.-.6 z.A h e 3 -.F S 3.:.M.P U 2.,.3 a.+XS a.Z d.y.>.= u j -.T.T.7.4.} ^ 0.t h 9 ",
"3.2.1.k.u 1.2.2.>.F | ..F f | z.A a.Z :.Z G 0 @X;.t ;.S x.M.;.Z <.;.7.>.g.<.0 y.>.j.,.j ^ X.C t >.7.<.3.S ,.Z A | OXf t 3.",
"F u.0 <.1.;.K 7.<.h } } y A <.C.K Q j %.M.S f }.i ,.R.3.3.s.w.| F A 1.t.g 2.1.S K 7.<.u  .g C A M.x.A s ..q.z.A F T.u >.W.",
"1...o.j.1.I 8.3.S u } <.K G i <.I t 0 ^ $Xy.<.b u p.9.;.S F :.:.<.>.o.} O.j.>.I x.Z ;.6 1.;.I h h 8.G 0 0 >.#X2.G c ) f.K ",
"w.Z y.C.9.h u.p.;.Z 9.s.K.f D C 7.7.3 t U 1.N.3 O.>.b 5.<.j :.:.-.,.>.G i.oX>.D m.>.*.K d.I.Z F f Z k.A 3 C 3.t.9.- 1.>.n ",
"z.8.-.!.S F h y.a.3.7.9.0.0.7.D y.#Xf t x } a.,.} f 3.a.,.:.a.;.i >.0.7.5.I.g -./ V.2.U >.0.0.x.G ,.M.x.d c Z X.a.j } b 3.",
";.S ;.8.Z 9.K h d.9.Z S M.+X7.b.$.;.h oXZ h 1.S.e h A Q.5.-.0.Q.9.<.<.K ;.K G x.v -.C.S K ;.%Xx.9.e.y.-.<.x.C | g.B.3 -.S ",
"d A L K C oX;.y 3.w.S 8.p.9.9.i.-.A u M.g 5.g N.y.h t P.P.3.I.!.a.F y ;.L G Z +Xi y 5.>.H 9.9.5.a.y.-.r | 2.A >.X.V.>.y i ",
"t V.>.P c 6.| h F | i <.6.;.y. .A S u  .| 0.9.| M.>.A A F s.Q.;.S K f V.;.m b 9.0 -.F ..y 0.3.9.t.| A A ^ ( ;.s.2.,.N.| C ",
";.7.%.n Z C e h d 8 u y i D o.0 u ,.,.9.;.{ +XS g.b.9.<...q.A A |.8.S 9.1.v H d e j d W y e f X.[ 8 h -.<.9.-.o.Q.F j.1.9.",
"8.<.F 0 >.j -.i 6 %.,.d F A 5 C G ,...;.8.g >.8.S ;.N.r Q } f <.N.+X4.G h Q 9.d -.y : m.d f Z e u S <.| | 3.7.} 9.8.-.9.s.",
"S oX-.t 5.6 1 F 1.V.<.g I 4.-.;.!.} Q -.h 7.0.7.| >.0.-.0 8 F a.t.S 7.M./ y >.& f <.v. Xs ,.4.7.h P.0.[ } -.S 7.0.;./ 9.T.",
":.S u g z.i t V.j.7.9.,.h h s.5.3.% | g 7.#X;.C  .t.,.,.7.<.2.t.-.i :.A Q h 0.8 d S.F 8.2.,.t <.9.6.b 5 g ,.9.B.b D @.>.X.",
"%.A 4 d >.7.h 2.h ;.0.9.1.T C.K.N t # e G $X3.3.,.<.A u | 0.2.,.S ,.q.y , F 2.G h x.q s.8.V.6 t.Q.L c 4 = i 0.oX3.;.,.<.f ",
"9.y.7.f Z G 9.,.A 2.0.p. .:.s.L L 8.| P ;.OXY.T.Z I.S Q  .u ;.8.G G V.y.K t K G d.g ;.9.0.%.} a.8.K 8.<.A H 8.OXU.T.K L.h ",
"I >.a.^ K >.2.A ..m.>.| 1.;.5.|.U.oXV.Z 1 U.>.0.;.OX/ } o.| 7.0.7.3.K a.9.u 3.y.2.y &.V.*...;.-.x.T.T.#X9.C v U.>.0.3.+X5 ",
"0.Z > _ -.a.3.w.m.9.3.0.:.$ e a.s.8.y.g C 0.9.4 i >XM.F X.1.,.<.9.0.8./ > ' <.p.8.e.S.;.4.N.6 % -.a.9.9.q.u Z s.:.3 ,.,X1.",
"| <.' h 4 i c 9.9.,.| -.A 3 O.@.;.G N.` y w.G ^ w.:.u L !.5.h ,.<.;.| <.( u 3 A f P.:.:.g <.q } @.q.S 7.b.Q -.5.C | V.X.i ",
"h i y.W y t n b u | <.,.f ^ @.| A G 8.u S 0.A j | G ;.3.x.>.8 t D c | A q.3 f t Z f u ,.2.h f '  .-.F I ;.i 3.3.f ,.| Z ;.",
"t i >.^ F 0 i F } b >.,.e q.9.S z.a.; i *.b y w A <.4.K k.1.-.:.:.Z t i :.^ F 0 b -.Q Z y.y E 2.K <.x...5 A ;.y i w <.7.K.",
"A S H.A N.;.A E y.9.i e L Y.5.7.0.>.} o.h 3.-.F.Q.,X}.8.y u F ) #.d.A K F.-.C.h b R #X-.i t U.U.3.9.0.:.} ..C 3.S L.oX,X8.",
"+Xu w -.~.F..XP.9.2.X.8 6 A c ;.S a.z.+.<.S A ;.b 0.C.0.Z A ^ 3 j z.a.t c 5.!.F.=X9.0.1.f - i b S S <.z.t.@.<.S -.;.A Q.C.",
"+XN.C N.y T.M.0.K h ;.S h u | w.<.d <.m.| h ) r S y ,.v.F >.) 5 i 7.+X9.A s.y OXy.T.y ,.3.A i i :.9.F h 2.v.A / / y G g q.",
"z.+X,.#Xh 9.j.Q ^ -.j F 7.h j ..$X[ 8 <.L y.9.F I 0 >.<.0 ^ -.z.M.S x.oX,.Z.t 0.h.: -.:.d I -.j Q x.a.0 f 3.3.b.<.C <.8 9.",
"H -.0.;.t | 6 f ,.I y t 0.@Xi y :.] | A XXb.& ..v.1.F 6 0 F F :.w.A S ;.0.b t -.= F <.H t i @Xa.y b #.' | U .Xo.- t.v.2.h ",
"t Y.v F 0 g >.9.0.X.3 >.a.5.3.-.K d. .d j.C +.:X%.-.U.N.,.L 3.1.y.h v U.C j 5 | 9.9.M.9 t a.a.3.>.S 8.i.Q X.j.i n.;X! K U.",
"w.E.y <.z.,.0 c 3.:.o.1.5.3.;.C.H.oX^ 3 8.K b.M.<.Z h 8.C.s.b 3 g ,.0.G.t j.9.j 7 Z 5.o.O.>.5.Z a.0.Y.9.6 d 8.7.b.0.j Z h ",
"}.f -.:.;.7.u <.<.N.u.^ 9.9.h.b.;.;.z.G P f 4 3.S 7.3 e Q.+X>.3 5 1.l.f >.:.;.7.8 0.A %X+...0.7.b.>.;.j.j.I Z 8 q 4.S <.& ",
"F 1X7.8 c *.C ( Q D ,.1.h r u M.,.-.,.S =X,.<.S +X:.0 -.3.8.$X9.-.}.5.(.F 0 c b C _ g G 1.| A 4 1.j.-.-.h 8.$XX.S 3.oXQ 0 ",
"i !.0 S.7.b S a.0.I | | I F.t n L.h.W S U.#X} <.u 0 <.9.3.U.OX8.;.8.3.P.0 S.G b 3.y.l.G X.j H.n t L T.o.^ L }.N.} <.0 g x.",
">.h D U.i.-.S 8.I 9.#X3.0 N.}.>.P.: 1.>.f s.%X-.J 7.' * 7.a.~.x.u -.>.j G T.&.A K T.I a.+Xe ,.Q.7.6.=.Q 2.,.-.#XA.v J >._ ",
"A -.M.5 ..f.;.Z / %.j.,.r.z.h.T >.>.;.{.-.H.-.h c C.e 1.#.q.;.G 1.' A -.z.: >.a.S Z Q v.G t.a.M.} ) >.-.7.8.S F.h i A oX% ",
"j J.3. .t -.~.I >.9.0.d.>.^ 5 f d >.W.s.0.-.h 1.t <.F 3 5 i k + ).`.].).D.V ).`.[.V '.`._.+ o X   O V V @ O @ ).).. < <.p "
};
