/* XPM */
static char *d405004c544743cb969b1a11de72f2a8FuHv5kuTbiQoGxZl[] = {
/* columns rows colors chars-per-pixel */
"62 62 137 2 ",
"   c #448E5E",
".  c #4A8E5B",
"X  c #508E5B",
"o  c #47925F",
"O  c #4B935E",
"+  c #4F9A5F",
"@  c #53955D",
"#  c #5A955D",
"$  c #519B5F",
"%  c #5B9A5D",
"&  c #619B57",
"*  c #60945D",
"=  c #69915B",
"-  c #639C5D",
";  c #689B5B",
":  c #5FA05F",
">  c #64A055",
",  c #63A25D",
"<  c #6AA75D",
"1  c #6CAB5E",
"2  c #71A85C",
"3  c #6FB05F",
"4  c #70B15F",
"5  c #7EB35D",
"6  c #448C60",
"7  c #488E60",
"8  c #479160",
"9  c #4C9662",
"0  c #4E9964",
"q  c #4F9769",
"w  c #4E9B69",
"e  c #529662",
"r  c #5A9662",
"t  c #549B64",
"y  c #5B9C63",
"u  c #52966A",
"i  c #539E69",
"p  c #5A9E6A",
"a  c #669661",
"s  c #6A9460",
"d  c #639C63",
"f  c #6A9D62",
"g  c #739766",
"h  c #7A9760",
"j  c #55A166",
"k  c #5DA264",
"l  c #5DAA66",
"z  c #55A26A",
"x  c #5AA36B",
"c  c #55A86E",
"v  c #5DAB6B",
"b  c #55A571",
"n  c #5AA671",
"m  c #55AC74",
"M  c #5AA972",
"N  c #55AF78",
"B  c #5AAC78",
"V  c #5DB172",
"C  c #63A364",
"Z  c #68A465",
"A  c #65AA65",
"S  c #6CAC63",
"D  c #63A56A",
"F  c #6CA669",
"G  c #63AC6C",
"H  c #6CAD6B",
"J  c #73A664",
"K  c #74AA64",
"L  c #7AAB65",
"P  c #71A56A",
"I  c #7AA669",
"U  c #73AB6A",
"Y  c #7BAA6A",
"T  c #6CB062",
"R  c #6CB066",
"E  c #60B169",
"W  c #61B169",
"Q  c #60B06B",
"!  c #62B16B",
"~  c #64B06E",
"^  c #69B36B",
"/  c #6BB36B",
"(  c #6FB069",
")  c #68B16C",
"_  c #68B36C",
"`  c #6FB26D",
"'  c #6BB56C",
"]  c #68B46E",
"[  c #6AB56E",
"{  c #6BB66E",
"}  c #6FB46C",
"|  c #71B065",
" . c #71B264",
".. c #72B265",
"X. c #7DB166",
"o. c #73B06B",
"O. c #73B36A",
"+. c #74B268",
"@. c #7AB469",
"#. c #64AE71",
"$. c #61A875",
"%. c #60A876",
"&. c #63AB77",
"*. c #64AB77",
"=. c #67AE75",
"-. c #69AF76",
";. c #61AB78",
":. c #63AC7A",
">. c #66AF7B",
",. c #69AF79",
"<. c #63B172",
"1. c #6DB270",
"2. c #6CB173",
"3. c #66B079",
"4. c #68B078",
"5. c #68B27B",
"6. c #70B270",
"7. c #71B376",
"8. c #74B377",
"9. c #76B578",
"0. c #839C5F",
"q. c #82B45C",
"w. c #83B55C",
"e. c #829E6B",
"r. c #84A565",
"t. c #8AA262",
"y. c #8FA463",
"u. c #83AE60",
"i. c #83A56F",
"p. c #88A16E",
"a. c #80B264",
"s. c #84B269",
"d. c #82A570",
"f. c #8DA470",
"g. c #65A682",
"h. c #65A884",
"j. c #6AAC8B",
/* pixels */
">.:.c 4 w.y.( N N Y B 9.A G c K c G u.8.! #.S %.F G 3.Z 1.c A =.>.:.z 2 5 t.H m m L B 9.Z v c L c ! u.9.[ <.T 4.` Q 3.A 1.m ",
"[ L R G 1.K L 7.[ Y N :.m >.A l M H z A < 1 A j k c G v c Q c H [ J S v A ; J H G F B n c *.C ! ;.O.c G 1 | { G [ B <.! c G ",
"| T X.G c K c ! L ~ G v l x D j j n n p t , & q 0 p D S F v M K S A J % 9 # 9 y < k p p j j D v l 3.>.;.c | 5 m V 4.4...H G ",
"[ B ( G A ! M G c v G S A f y q i p k a y @ r 0 t y y d C x k p k p k e $ @ 9 e e @ @ % y a y i z c ^ J A v 1.m B O.~ | R G ",
"B 3.o.[ ` ! v <.4.n z y % = O e p e @ $ @ % r @ ; j % # e k e y 0 r r y O @ t e 9 9 o # @ * o e p p C C K A c @.K 1.6.O.H { ",
"N @.Y O.[ B B <.( l , # O 8 y e 9 9 O i x t O q D t t O t i 9 e 8 # . e y p 9 - e . O y . O y t e t @ y C C Z m i.S +.v G c ",
"8.N p.1 M 2.2.5.F C y . ; e e + t p o + 9 9 7 e x   O @ 9 i O @ e O x j j 9 i + 8 i   9 - e 0 0 y e O @ r C A ' <.G c v G j.",
"T X.G c H c H L H C O % O e i z d z i i o 9 7 e 9 p i y r 8 u j t t n t x e O $ 8 z $ 9 9 0 j j y t 0 9 # 0 k S T ~ H H ~ N ",
"m H v A v M G i y % e e z p C n k c D c 0 9 i i i b x i i 9 O n k j n z z 9 9 z O $ t 0 M j C n k z k p e p p z 1 q.I v <.N ",
"=.` 1.o.G l z p t e t e x i Z M t e D n i u M x D 0 d z 9 9 O M $ i t M k 9 o i + j k t n i Z n y 0 D p @ e r C k G S A M H ",
"O.H 1.] M c i , - y y t c z O z O z t i 0 C i z x i + 8 z 0 O t + w y + j 0 f j H c k j M z 9 z   t @ i e % @ - y k S c v G ",
"m d.T c *.D y # % x y e 0 n 8 z 9 9 t i O p 0 c z O + o z o o f + 9 o 0 Z k d + C n t 0 0 n o z 9 9 t i 9 y e t e % Z G v G ",
"B <.Q l l h % @ % y @ o t z   e t 0 x 9 9 M i C n + j O + e t $ o w   9 C z + i y i + o e b 8 0 t 0 x 9 9 x 0 y i w e.1 A c ",
"4.3.[ I C > @ . e   9   i 9 b z d d O w + M e c n 9 i + o j 0 $ O 0 O o j i + 8 i   9   i 9 z z d d 9 i 0 n e t t t x l c ! ",
"O.~ ~ A A % @ . 0 9 9 y u i z D z z t O j M M 0 A M e t C n 0 j O + t 9 M i O o 0 9 9 t i e z D x i t O t c x 9 y % < v F s.",
"N T O.K k % $ O 9 t 9 n p C 9 C i 0 0 e z 0 n z o z 8 i $ n + z $ z C $ c 0 i o + t 9 n z C 9 Z z 9 9 e z 0 M i O 0 , A U { ",
"' H O.x y % 6 e O 0 k e j k w t o z 9 O z i 0 M   z 9 9 y n + z Z B x O i z 8 i o 8 k w z k w + O z 9 O z t e b . e i v Z q.",
"A v >.l y i O e 9 8 t 0 0 j o + o z 0 9 z Z t M   0 t 9 x 9 t k 0 z j t i 0 O z 0 o t 0 e z o $ o z 0 8 i Z t z . # $ t K c ",
"c H G x t y @ . O 6 p 9 t M 9 j O $ k O o Z 9 9 0 n C d 9 i C $ 0 j 9 C 0 z 0   8 6 j 0 t x 9 j O + C 9 8 F 0 9 9 e t C c M ",
"{ ~ M n @ - 9 9 9 e i 9 c M 9 i + o z 9 e x 0 z 0 D z i t O C c z Z M k 9 Z q 9 0 e p 9 c M 9 i + o z 9 9 x 9 t e t t G c V ",
"S ! n j e d p t 9 B z 0 e c t O Z o z 0 o z 9 Z 9 C p 9 9 9 % M 0 Z M O 0 Z M t 0 n z 0 0 n t O Z o z 9 o i 9 C 9 * @ < z ' ",
"G b k 0 r @ b 9 d e z x j z 0 e G w $ e d n z y i + o z 9 O o M z 8 z   z @ c 9 C 0 z x t z 0 9 G 0 t e d M t k i O O i c B ",
"<.D J 0 r # x 9 z 0 z x c y 0 o i + z C d n C n t 8 O v o z O O n 9 x 0 9 t n 0 z 0 z x x t 0 o z + j C d M C x @ X @ x A G ",
"5 0.y 0 9 t 9 9 B w Z 0 x j 0 f j Z M x + z j 9 + 8 t M   t t t B 9 j t 9 x 0 0 M i Z 0 M x + f j Z M x $ p p 9 $ . & f k S ",
"G G ; ; a O i 9 q e c z 9 C k d + Z M i t 9 i   9 0 z 9 n c d x w M c C d 9 w 0 w e c j 0 C k f + A M p t O i   @ . d # x @.",
"Z i ; 8 e # 9 $ 9 i 0 8 9 y i + j k z p @ O w 8 9 y z z M A x w t 0 9 O i t O + 9 q 0 O 8 y i O j C z z @ 8 i 7 O # e ; C A ",
"G C j e % O e t 9 0 0 + i 9 8 e   z   9 0 0 0 e 0 e p i Z M 9 x d d 9 i y e i j 9 0 9 + i 9 7 t 6 z   8 0 0 9 t 9 e # , P ` ",
"[ H l $ 9 9 i z k 9 + j   9 6 p   z 8 8 e i 0 M 0 x p 9 i M 8 G x i t O $ 0 z z k 0 + z   9   x   z o 8 e i 9 x O y y t l ,.",
"[ ' b w y e C M x z Z M t 9 x i O +   9 0 Z w 9 z M t z 9 x t f z 0 9 9 M j C M x z Z M t 9 x p o + 6 0 0 C i 9 t y y n B G ",
"1 c $.z p 9 k x y 0 Z M y 9 n z z o p 0 e c M 9 i 0 z M i c 0 t o j 0 o n 0 G M j e Z M t 9 M j z   p 0 e c x O r O i x n 5.",
"c L z : f p 9 z O z @ M 9 C 0 z $ + n t w w M t 0 0 z M c j 9 + o z 0 9 M z 0 z 8 z @ M 0 k 0 z + $ n i z e n e 9 @ j n G G ",
"c G < , t # y e t O $ o z 0 9 M z o z o p $ i $ 8 z   0 C w i O 0 O j 0 0 + z $ t O t 8 j 0 9 M z o z   z @ i e O p j v ' N ",
"3.$.z , & d t e 9 e z O + e 8 0 n 7 z O 0 t O + o j 0 i i 0 z p z + + t 9 n z + 0 0 j O + e 8 0 n 6 z O 0 i O @ O $ x Z o.c ",
"[ I A k @ r O . 9 8 i O 0 y 8 $ z 8 0 t 9 x 9 z O + t i M i Z 0 c i z k 8 z 8 8 0 o z O 0 y 8 e z 8 0 j O j 9 i @ 9 x v c ! ",
"T A 2 % O e 9 j e d j y z t   i 0 n c C d 9 o i + z C j M i D C i D M C O w 0 z + d i y z t   p 0 n x k f 9 O e O t D S | B ",
"/ n C @ O O w j t y 0 k i y e i c M D w p t d j Z M k j n z 9 d + Z v $ 0 @ i j t y O k z y e w b n G i z e d i d y y Z A G ",
"B D - t @ @ n k 9 w 0 $ z 9 9 9 n i 0 w w y d 0 Z M : 9 0 n 8 z 9 y 0 x 9 t n j 9 w 0 t z 0 9 9 M w 0 w @ p d e f j % Z A O.",
"n F * @ % p 8 f i 9 8 j   9 x x 9 0 o j n x 8 i G j z 9 t m 9 j 8 0   9 d x 9 f w 9 8 j o o x x 0 e o j M z 8 i D % % i v c ",
"1.c g % 0 9 e $ o i   0 k 0 t t t z O 0 9 9 8 0 n 8 0 e 0 e 0 0 0 0 c z j O i + o j   9 k w i $ e z 9 0 9 9 8 9 p . 9 e k j.",
"A K p O t e O e o z + 0 $ w j z k z i z 8 9 7 q 9 z w t y 8 i z t t M z c y o + o z + 0 $ 0 j j k z w z 8 9 7 0 9 e e d x m ",
"M H x % e 8 O j O + t 0 M j Z M C z D x 0 0 p w i b j i i 9 O M k j M z z 0 9 j O + t 0 M j C M k z G c 9 9 p w t y # @ x m ",
"#.G C y @ O O p + j k t M t Z M j 0 D c e 0 n x D 0 f z 0 9 0 M j w t M t 9 o z + z k t M i Z M t 0 D n t e n z C e # % t G ",
"+.F G k p 9 # j C M C j M z 8 z o i e z 0 k i z j p + o j 9 o + + 0 y $ k 0 f j S n k j M z 9 z o z e z 0 C i p t e # O j G ",
"B I < i y y d $ C n j 9 0 M o z O 0 t i 0 x q c z 8 $ o z 8 9 f @ 9 O 0 C k d + C n t 0 0 n 8 j O 0 t i 9 x 0 z t @ % t z A ",
"B #.v j , = + e t i $ 8 t z 8 0 t 9 j 9 0 M i Z M 0 j O $ @ t $ o 0   O k z 0 i t i 9 7 t z 8 0 t 0 x 9 0 M e C z O g , A c ",
",.>./ J y % O O e 6 9   t 9 z z C d 9 i 0 M e c M 9 w + o z 9 $ o w 0 8 z i + o i 6 9   t 9 z z d d O i e M e z p $ x k c ! ",
"O.! G j A % O . 0 9 0 y i i z D x i t O t M M 0 Z M $ 0 Z M 0 z O $ t 0 n j O o 0 O 0 y i i z D j z t O i M n 9 y % , v F s.",
"N ..+.K C # t O + e 0 n t D 9 C i 0 0 t z 0 M z o j   z @ M + i + j k + n + i o + t 0 M t C 9 D i 0 0 e z 0 x i O 0 , A K ' ",
"[ / H v y % O 0 . 9 C e i k i + o z 0 o z j 0 M   z 9 9 t M $ j A M k 9 i z 8 w   9 k 0 i y i 0 o z 9 o z i 0 z . @ @ v G u.",
"H Q -.x y @ O e 9 6 t 0 0 z o $ o j 9 9 i Z t M   0 t 9 x 9 t C e z j t z 0 + j 0 8 y 0 0 z O $ o z 0 9 i C e z O # t z K c ",
"c ^ G G y y % X O   p 0 t M e z + + k O 8 Z 0 9 q c k d O i C $ 0 z 0 k 0 z 9   8 6 p 9 i x 9 j O $ C O o C 0 9 0 t e C v M ",
"( <.M B x ; O O O e i 8 z M 9 u + o z 0 0 x 9 z q A x w t O k n z Z n k 9 Z q 9 9 i i 9 x B 9 i + o j 0 e y . r @ e i A c M ",
"2 ! m #.x Z e e @ p e t e x e 8 Z o z 9 o z 9 Z 0 f z 9 0 e $ M e C M O 0 Z M t 9 M z 0 e x y 9 Z O z 9 O y 9 e 0 d y 1 m 1.",
"~ m ! V -.F p 0 r 9 p z p j 9 e x 0 t e f n i k i $ o z 9 o O n z 9 z   w $ M 0 C 0 i x z z 9 O k w @ @ * y r y k k k m V V ",
"V 1.s.B @.U x i y O t C j @ 9 O j $ z C d n C b t o O x   j O @ x 9 x 0 9 t n 9 x 0 c x x $ 9 8 i $ t y @ r t y k A ^ G ! G ",
"w.y.~ B B H c x i y y @ t y @ r j d x y 0 i y 9 9 . y x . $ e t x e t t 9 p 8 0 x i d e z y @ r t % p # e p x C v A 5 r.' | ",
"<.1.K u.8.! G n g.z p r t % % r O d x 0 e 7 e   9 e r e p k - y e x y - a O e 0 0 0 p t e % % r @ y p 9 0 i D A U G @.U G @.",
"A c L c ! u.9.| M m S ; y % 0 e y y % % r . e 7 @ # e % y y ; ; # 9 #   t % e @ 8 0 # X e % w 0 p C , < D k v M a.A H @.O.~ ",
"G A ! :.G m ! S | #.n e., i p x p : @ e u 9 9 @ @ 9 r - Z A , C j - e u @ 9 @ # @ e 8 s % t p D x A C H h.m M H ( v H K U O.",
"[ ` ! ! <.M ;.c T v v #.S v M / x G : 0 y @ 9 y @ y D k j >.H H / A k j x e e 9 & e y x C j M / v [ A c #.A c A G <.H ! ! 5.",
"[ [ B B #.~ G 5 J M A T T c ! V #.H c n j j k z C v / B B G [ Y ` / M b M k k 2 f z C S A c ! v -.H c M G v H B G G { B B <.",
"S M 1.4.5.G A / v G c 3 1.Y s.B @.K c n k H t.A p.A c M #.3.S f.S n 4.=.>.G l H l x c 3 [ L s.B @.Y c m v T y.[ p.G m <.G 4."
};
