/* XPM */
static char *e3151ee7402948119c845485dee8fac8m9SBtAGh90I7WSVt[] = {
/* columns rows colors chars-per-pixel */
"61 61 252 2 ",
"   c #4B6D3B",
".  c #616545",
"X  c #787C5A",
"o  c #3A943E",
"O  c #37A03F",
"+  c #3E9542",
"@  c #548F4D",
"#  c #449445",
"$  c #479945",
"%  c #4D954B",
"&  c #4C9C4B",
"*  c #519645",
"=  c #54944D",
"-  c #5B944D",
";  c #539C4C",
":  c #5C9B4E",
">  c #5C9652",
",  c #569B53",
"<  c #5C9B53",
"1  c #599956",
"2  c #62954D",
"3  c #6A964F",
"4  c #639B4F",
"5  c #718B55",
"6  c #649553",
"7  c #6C9553",
"8  c #649C53",
"9  c #6B9C54",
"0  c #649759",
"q  c #649C59",
"w  c #6B9C59",
"e  c #789754",
"r  c #739C55",
"t  c #739D59",
"y  c #4CA54C",
"u  c #48A84B",
"i  c #53A34D",
"p  c #58A84E",
"a  c #46B14A",
"s  c #4EA754",
"d  c #56A756",
"f  c #5CA453",
"g  c #5DA359",
"h  c #5BAC5B",
"j  c #4FB151",
"k  c #59B558",
"l  c #67A54E",
"z  c #64A354",
"x  c #6BA455",
"c  c #62AA55",
"v  c #6AAB56",
"b  c #64A35A",
"n  c #6CA45B",
"m  c #64AB5C",
"M  c #6CAB5B",
"N  c #73A355",
"B  c #7BA355",
"V  c #75A956",
"C  c #73A45B",
"Z  c #7BA45B",
"A  c #73AB5C",
"S  c #7CAC5D",
"D  c #66B55A",
"F  c #63B25C",
"G  c #6CB35C",
"H  c #74B45C",
"J  c #7BB35E",
"K  c #74B95D",
"L  c #659F63",
"P  c #779E63",
"I  c #5AA963",
"U  c #4FB578",
"Y  c #5AB779",
"T  c #67A865",
"R  c #6CAC63",
"E  c #73AB62",
"W  c #7AAD62",
"Q  c #76A868",
"!  c #6AB564",
"~  c #74B463",
"^  c #7CB463",
"/  c #77B867",
"(  c #7AB36C",
")  c #72AB73",
"_  c #69B67B",
"`  c #77B777",
"'  c #59C67B",
"]  c #71C278",
"[  c #849C57",
"{  c #8D965C",
"}  c #82A45D",
"|  c #87AA5A",
" . c #86B55D",
".. c #93B45D",
"X. c #848C64",
"o. c #8F966A",
"O. c #86AB63",
"+. c #82B463",
"@. c #8AB464",
"#. c #8FB66F",
"$. c #86B968",
"%. c #8BC271",
"&. c #A0C160",
"*. c #4ABD86",
"=. c #5ABC85",
"-. c #69BA86",
";. c #76BB88",
":. c #72BE92",
">. c #23CD9E",
",. c #30D3A9",
"<. c #2AD9B5",
"1. c #39DAB5",
"2. c #36E1BC",
"3. c #54C490",
"4. c #58C699",
"5. c #68C588",
"6. c #78C487",
"7. c #74C38D",
"8. c #68C797",
"9. c #79C796",
"0. c #65D39B",
"q. c #77D199",
"w. c #5ACDA5",
"e. c #4ED3A9",
"r. c #5AD3AB",
"t. c #49DBBA",
"y. c #59DAB8",
"u. c #66CDA5",
"i. c #77CCA4",
"p. c #67D4A9",
"a. c #73D3AB",
"s. c #79D5A8",
"d. c #69D7B4",
"f. c #63DCBB",
"g. c #6CDBBC",
"h. c #78D8B3",
"j. c #74DBBC",
"k. c #7CDCBD",
"l. c #4AE2BE",
"z. c #69E1BC",
"x. c #7AE1BC",
"c. c #34E1C0",
"v. c #58DFC3",
"b. c #6ADEC1",
"n. c #77DEC2",
"m. c #4DE4C3",
"M. c #59E4C6",
"N. c #5BEEDA",
"B. c #64E2C3",
"V. c #6BE3C4",
"C. c #66E6CB",
"Z. c #6CE5CA",
"A. c #73E3C4",
"S. c #7BE3C4",
"D. c #74E4CA",
"F. c #7CE5CB",
"G. c #74E9CC",
"H. c #7CE9CC",
"J. c #6BECD7",
"K. c #77ECD6",
"L. c #7BEAD3",
"P. c #6BF2DB",
"I. c #78F1DD",
"U. c #7CF1E0",
"Y. c #84BB88",
"T. c #84BD94",
"R. c #86C488",
"E. c #85CA97",
"W. c #8CCE95",
"Q. c #84CCA5",
"!. c #83D3AD",
"~. c #88D4A9",
"^. c #95D1A3",
"/. c #88D8B6",
"(. c #85DBBB",
"). c #94DBBC",
"_. c #82E2BE",
"`. c #84DDC2",
"'. c #8CDDC3",
"]. c #93DEC4",
"[. c #83E2C4",
"{. c #8CE3C5",
"}. c #84E4CB",
"|. c #8BE4CB",
" X c #83E9CE",
".X c #8BE9CF",
"XX c #94E3C5",
"oX c #94E5CB",
"OX c #99E6CC",
"+X c #84E7D1",
"@X c #8DE7D1",
"#X c #84EAD2",
"$X c #8CEAD4",
"%X c #83EEDB",
"&X c #8CEEDA",
"*X c #94E7D3",
"=X c #9CE7D2",
"-X c #94EAD5",
";X c #9BEAD6",
":X c #95EDD9",
">X c #9BECD9",
",X c #85F1DE",
"<X c #95F0DC",
"1X c #A2EAD5",
"2X c #A8E8D4",
"3X c #A5EDDB",
"4X c #ACECDC",
"5X c #B7EAD7",
"6X c #B3EDDD",
"7X c #BBEDDD",
"8X c #A8F0DD",
"9X c #B6F0DE",
"0X c #94EFE1",
"qX c #89F2E1",
"wX c #93F2E2",
"eX c #9BF3E4",
"rX c #A5EFE0",
"tX c #B3EFE1",
"yX c #BBEFE1",
"uX c #A4F3E5",
"iX c #ACF2E3",
"pX c #A2F7EB",
"aX c #ADF5E9",
"sX c #B3F2E4",
"dX c #BCF2E4",
"fX c #B3F6EB",
"gX c #BCF6EB",
"hX c #B7F8EE",
"jX c #BBF9F0",
"kX c #C4EEDD",
"lX c #C6EFE2",
"zX c #D3EFE3",
"xX c #C4F2E5",
"cX c #CBF2E5",
"vX c #C3F5EC",
"bX c #CBF4EA",
"nX c #C7F8EF",
"mX c #D3F4EB",
"MX c #D5F5EA",
"NX c #DBF5EC",
"BX c #C6F8F1",
"VX c #CCF9F1",
"CX c #D9F7F0",
"ZX c #D3F9F2",
"AX c #DBF8F3",
"SX c #E2F6EE",
"DX c #E3F7F1",
"FX c #E4F9F2",
"GX c #ECF9F4",
"HX c #ECFAF7",
"JX c #F3FBF9",
"KX c #F5FBF9",
/* pixels */
"W e v ..x > y G M B S J B q C 6 E $.= # 5 p H ; h 1 9 S x b v l ; x A r G .., : j ~ l } ^  .9 C w q ^ A % @ 3 h H & m - N ",
"M S c B 8 A 9 v K V 9 b +.$.C m k S 1 w e < M W + z 9 H c c ^ H x A A Z x B q A 7 v K r q x $.+.n h G C q C 3 z ~ n + n 9 ",
"8 6 r r 7 O.9 = V A 9 r G A Z K f z 1 #.1 f I $.b 1 ; .. .4 } ..~ q 8 7 B 9 7 +.- -  .z e x G B J G c : C E = z m ( , > z ",
"@ G r e - +.v < z v x Z  .x G D z 9 ; a f  .f h K z - 9 r J  .V b w , G r 3 8 @., 4 z G 6 +.B M D m 9 4 y j N J f v K > - ",
"= J D e 3 2 % , q % * 4 l q T $ : x 0 A g h #.T ` _ _ -._ 6.] _ ` ) T ` ! e 6 1 $ b q + > z 8 E d % f 8 x n d G @.< ~ F r ",
"Z < q y C 0 c 4 # s g @ = % u 1 , h m R #.U 5.9.h.(.].(.x.k.k.(.XXXX/.8.-.Y ) L m > + k = = > $ & , 1 z b V C s x Z n M H ",
"9 @.v = v * - > d / b = Z Z ; x @.T U 5.4.(.OXD.M.$XrXtXtXxXyXsX3X@XM.G.oX/.0.U T T k $.% b O.9 : B J d i z 6 9 J N 8 V O.",
"9 A f % J $ @ E E E M g > w W m $.*.u.oX$XC.3XxXmXbXxXdXxXxXgXxXxXlXmXxX3XM.*X{.w.9.-.Q T > > C x J x & b b A J 9 8 j G v ",
"j 3 + , M n % W 8 x S C M s %.R.4.}.*XZ.yXNXcXxX7X5X2XOX;XOX{.;X6XbX9XlXxXNXdXG.-XoX3.%.) ( ; D  .B - o # ; Z / 4 z h b < ",
"H D 0 = w w A m 8 x S ~ k Y q.d.6XF.4XDXcXxX2X}.t.t.F.1.A.S.F.z.}.+Xz.>XoX4XcXDX9XK.uXz.9.] s ~ V 7 r > = e Z @.| Z 9 } q ",
"9 G +.- 3 x M 4 p ! R h _ p.OX:X@XDXDX2Xj.G.b.M.1XXXn..X@XD.dX1X}.*XF.V.b.B.|.>XmXFX#X<X@Xw._ ( $.} } ^ A 7 4 | N @.r | + ",
"} z p a C H S h ! / ( 6.p.;X*X9XGXlXS.@Xt.j.XX*XbXFXKXGXGXJXGXGXJXFXxX=X{.V.D.Z.}.sXGX9X=X1X4.U E +.^ S v - 9  .v - l %.h ",
"x C a f & l 4 S / ! _ p.3X|.cXFX-X;X+XM.1XyXDXSX4XZ.f.,.oXKX|.<.b.b.4XSXFXmX=Xy.;X*XS.GXcX1X1Xw.5.! n C ! y 4 V 8 y ~ D 8 ",
"f 8 D $ = - 9 q R _ p.4X*XmXmX$Xj.v.}.bXSXzXb.,.p.a.d.|.dX9XdX[.h.i.u.,.V.lXNXmX*Xt.S.@XlXNX*X3Xr._ T C A y N S 8 b m q f ",
"> = F y - % < R U 0.4X;XmXxXm.;Xg.2XAXxXn.,.:.;.;.E.d.4XbX<.xX3Xd.:.:.7.q.>.j.yXSX2Xl. X}.mXcX1X3Xp.` T ; < x 4 = ; - 9 B ",
"- 8 } : M f , I 8.OX*XzXlX*XsXM.xXGXOX,.9.Y.-.Y.W.h..XZXC.n.Z.ZX Xa.;.;.Y.7.q.,.OXHXxXB.}.t.NXNX-XOXq.! s q 4 r 8 [ ^ +.B ",
"H = 7 8 @.t @.6.j.&XyXFXy.}.F.cXDX|.e.5.;.;.;.E.E.F.vXiXg./.f.3XgXA.Q.;.;.` W.Y.p.[.FXxX1.g.A.DXyX-Xz.7._ j 9 x q B V $.J ",
" .v 2 G x O.Y.d.iX-XFXF.*X,.7XAXk.w.E.q.6.9.9.E.k.&XAXC.)./.(.M.CX&X_.~.9.E.R.R.W.a.n.AXxXt.V.D.HX*XtXr.] ! z 8 p 4 4 x G ",
"^ $.q $.g $.q.*XD.DX3Xn.y.iXSX[.y.p.8.s.9.a.h.`.J.ZXI.L.}.x.[.L.,XZXK.{.h./.8.~.i.i.e.n.DX7XC.f.@XHXF.*X3.) w G V 6 r & A ",
"C M A A q _ r.*XyXzXS.S.#XFX7Xb.oX[.[.{.;X$X:X%XiXCX:X0X:X>X<XeX0XZXiX%X>X*X@X@X[.`.oXn.5XJX|. X#XcXdX*Xp.( O.! % i R f f ",
"2 B Z b s =.=XD.GX>Xf.v.mXKXsX3XiXaXaXaXfXfXfXBXJXBXhXfXjXjXjXjXjXBXGXBXfXfXaXfXaXaXfX3X4XKXbX*XV.*XFXG.=X-.` f p #.j E Z ",
"z { 2 T ` w.+XxXbXoXM.>XSXmX4Xm.S.A.V.Z.L.%XN.AXfXU.qXqXqXqX,X,XqXU.jXAXN.%XK.D.Z.V.A.2.4XmXNX5XB.oXmXxXF.w.` T ! @.d 7 C ",
"^ 7 4 R 5.].C.NXbXy.Z.bXyX.XdXF././././.].$XuXBXqX:X-X-X>X>X*X@X$X&XqXVXuX#XoX(.a./.h.F.dX X7XZXS.t.sXNXC.]._ L f Z 6 w # ",
"C | E g =.;X4XcXoXV.;XDXV.t.xXuXy.~././.OXJ.ZXaX&X:X@X*X-X;X>X*X*X;X&XaXZXJ.]./.Q.~.f.3XxXl.V.FX-XM.@XcXtX=X7.I 8 V ^ f + ",
": ..8 _ i.M.cXdXH.A.3XNXr.!.b.VX@Xk./.].L.gXBX,X:X*X*X-X;X;X>X;X*X;X;XqXBXjXD.].~.x.@XVXA.h.r.DX:XV.Z.9XcXC.s.` g n z % M ",
"v S < 6._.B.MXxX.X;XbX3Xu.^.p.dXsXV.'.|.&XBXpX&X;X-X:X*X;X>X>X-X-X:X;X&XuXBXqX'.].H.fXxXd.9.a.1XcX[.S.6XMXC.(.6.~ 8 7 f F ",
"x , E _ {.:XzX5Xg.S.GXB.a.W.!.m.AX%X@XK.jXBXI.-X*X>X-X&X:X>X>X>X-X-X*X;XI.BXgXK..X%XCXm.~.9.i.A.GXS.,.2XMX:XXX` R 8 e H o ",
"1 B ( U (.8XxX6X@X:XKXz.q.7.9.d.:XVXJ.eXVX,X:X:X*X:X-X-X:X-X>X:X:X0X*X;X:XU.VXeXJ.mX<Xx.Q.6.q.y.JX|.H.4XcX4XXX-.m g - ^ ; ",
"t [ E 5.`.sXxX{.1.-XGXf.9.;.-.!.Z.BXiXjXjX%X*X>X-X-X*X:X:X>X:X>X:X:X;X;X;XI.fXBXaXBXG.!.q.6.E.e.GX*XS.1XxXdXXXY h W = : $ ",
"N M ! :.{.xXxXsXn.F.FXp.;.-.7./.`.I.GXZXP.>X$X;X:X*X:X>X:X<X:X;X>X:X;X-X>X>XP.VXHXI.'.i.7.6.;.w.GX*XV.=XxXdX'.=.m +.> = V ",
"q D g 5.{.xXxX=Xb.;XDXr.;.;.9.^.'.K.JXVXI.>X*X;X*X:X>X;X:X>X:X:X-X:X-X:X*X;XI.VXJXK.'.i.7.-.:.p.DXsX+X*XcXgX{.-.T O.i V | ",
"F d I 5.|.yXdX@Xy.}.GXp.T.;.:.~.A.uXBXBXwX:X*X-X*X>X>X>X:X>X:X:X;X;X:X-X-X&XwXBXVXuXS.i.9.;.T.w.GX3Xg.|.yXyXXX5.Q 4 i J N ",
"G 7 ! 6.oXrXlX3Xv.}.KXd.E.;.9.s.L.FXJ.uXZXI.>X$X-X:X:X;X:X:X>X:X*X:X;X-X>XI.ZXuXP.FXL.!.E.R.E.p.JX X6X4X7X4X].5./ + G x 3 ",
"W Z ! R.].;XcX6XV.`.HXb.Q.E.Q.v.nXeXL.%XjXaX%X>X-X-X-X>X;X:X>X:X:X-X>X;X%XfXjX,XL.eXVXy.!.E.i.b.JXF.2.6XcX-X].Y ~ < s 8 N ",
"x 9 M ` '.F.mXlXG. XAX}.s.^.a.>XnXL.'.#XuXVXqX0X-X*X:X;X>X-X>X>X>X;X;X:XwXVXuX}.].L.bX:Xs.E.h.$XCX4X;X4XmX#X(.Y ~ ^ # q 9 ",
"> 8 Z ) a.M.mX4Xl.D.6XcXd.!.t.CX&Xj./.XXJ.BXjX%X>X*X*X;X;X;X;X;X-X*X*XI.gXnXJ.OX(.j.:XZXt.~.p.cXxXH.}.7XmXM.a.` I / m - : ",
"@ ~ M Q -.@XyXbX}.M.oXHXl.f.9XsXb.~.!.(.}.<XZXeX:X:X*X*X*X>X>X*X*X=X%XuXVX:X|.].s./.b.sX6Xf.t.HX3X4X3XcXdX.X8.] A z / f 7 ",
"8 A m T -.=X#XNX6XM.k.AX=XB.gX}.a.!./.).].J.BXjXqX:X>X:X*X:X-X=X;X>XqXhXgXK.].!.s.!.a.}.gXb.=XmXj.A.4XNX@XOX5.I +.q R M A ",
"Z n 8 s ` d.B.mX7X3XM.2XMX6X5Xt.n.g.j.A.}.#XJ.AXeX,X<X&X%X%X%X&XwX,XuXFXJ.#XL.n.n.d.f.m.6X6XmXtXA.C.4XNXC.h.` g A Z x A J ",
"9 +.x , ( *.1X*XDX|.G.j.AXJX>X@X<X&XwXeXeXeXeXVXAXpXpXeXpXpXpXpXpXpXAXVXwXeXeX0X0X0X:X&X;XKXAXn.V.-XFX$X1X3.Q C V 9 f M S ",
"c 9 ; , / _ h. XNXxXF.l.OXKXkX1X4X;X3X3XiXsXsXuXZXCXfXfXfXdXfXfXfXAXMXuXiXiXsX3X4X4X3X>X7XKX1XS.x.4XMXD.k.-.( ^ 4 q j M c ",
"k 8 # , ! ) 4.4XF.HXS.S..XcXMXy.r.u.w.w.a.k.n.`.J.ZXJ.G.H.H.H.K.J.CXP.S.d.g.d.a.u.a.r.y.mXcX1.:X:XJXF.;X*.T Q +.N x b N > ",
"S D Z = w P 6.d.3X9XmXB.S.z.FXkXf.!.9.T.E.^.^.).S.fXvXZ.).(.].F.gXiXF./.Q.:.E.;.Q.i.y.xXAXx.#Xl.zX7X4Xn._ P Z @.| S 9 | , ",
"t v J i 9 R ` 4. X#XSX9XH.iX XFXkXd.s.Y._ Y.9.W.!.H.VXK.j./.(.L.ZXD.~.E.E.-.Y.6.i.e.dXDXA.B. XxXAX$X.Xq.` 6 7 | n S N  .$ ",
"} 9 a a x H Q ` p.>XoXGX4XA.D. XDXmXg.4.;.R.6.-.7.x.>XCXm._.M.ZX>Xh.E.;.' 5.R.p.j.cXDXF.S.H.oXHX.X>Xp.` ! ; 9  .v # b %.m ",
"f n j , # < < W 6.j.4X1XDX@XG.G.F.CXDXG.p.0.;.-.9.q.g.sXiX<.3XsXj.q.7.9.5.4.w.}.NXSXA.V.@XiXSX=X4Xz.` E ! y 8 A 6 p ~ f : ",
"f : G $ - = 8 q h -.S.4X1XDX>XM.b.b.3XGXyXOXp.4.8.Q.a.;XmXZ.cX*Xa.i.8.4.y.(.lXGX4Xf.[.b.4XGX1X4Xx.-.T C x ; N V > b f 9 l ",
"= : v y z % : b d T 5.k.1X1XDXdXC.A.b.n.zXAXxX2X`.t.r.<.@XHX.X<.t.e.(.2XxXDXcXF.g.-X1.5XDX1X3Xx.:.) / h # 8 4 2 : - w N } ",
"4 9 [ 3 ~ x 9 y G ~ T =.(.4X1XNXNX#XZ.A.t.F.kXDXmXBXMXkXzXKXzXkXcXcXnXSXzXS.1.1Xf.+XNXNX=X3X'.7./ E ^ c i d 9 N x [ +.$.S ",
"^ : - z  .e .. .A E I I U (.*X*X7XDXdXm.V.g.|.|.;X5XcXxXmXxXxXxXxX7XoXy.<.@X[.2.cXAXdX$X*Xh.=.) n n x ~ m k x 9 8 x l  .^ ",
"$.^ 2 ^ 1 } H S 9 f n n I U a.A.3X=XxXGX7Xv.-Xj.y.t.c.M.+XV.B.M.m.A.S.1XV..XcXDXxX2X>XD.s.-.T < m R q 1 M ! < z p - 9 = F ",
"H $.b $., A R & ; n , 8 Q I _ 8.{.#X3X*XxXJXNX3X}.@X Xn.$Xf.|.:X-X+XF.sXSXJXlX;X3X+Xk.8.I ) q < & W ^ $ , t N D C 0 n $ A ",
"7 8 S x - f * ; n w 2 = S $.f T ' 0.g.-X4XH.;XNXGXGXMXyXyXiXyXxXMXGXGXNX4XS.>X>Xd.u.-.Q 1 < $.V - l k j < e ..h $ F ! M < ",
"- | 3 q y ; M V S f # M K V C b Q ` 5.4.f.|.8X:XZ.+X>XsXxXxXyXiX:XF.n.@X4X.Xe.8.6.) $.u ; H H V x 7 } G y g R < ! #.a w } ",
"G { - b A b % 4 x c h m V N x ^ } @.d I ;.7.u.h.`.1X1X3X3X1X=X=X1X1X[.a.4.8.;.T s w v h h m V 3 G S O.V $ > Z C ! S 8 7 , ",
"+.6 x c M C = n C / D y A A M ! x n Q w P L s ` -.-.*.=.q.q.8.*.*.3.:.) ( ! R Q % W q $.j c S C ! v x M R t 7 % * Z w w o ",
"8 &.C & 2 4 6 i y 8 n m : - i ~ b c z 9 #.m n n $.R s ) Q $.#.( E $.W #.g & 8 8 6 a , w m f 8 # m A z z 8 Z $.g 9 C $.y & ",
": ..& / C 4 x G W t f f t [ = 4 | T $ 9 } $.f n i , E M B } $.Q n Z N  .; ( 9 6 N G W w f 0 [ 9 = B W d ; N O.^ p q % ; W ",
"M < 6 } G v 9 Z N C +.C & ^  .x  .+ m M : S ( x e N j o M K J W - c v 8 9 O.k 9 r } t A $.; v  .A B N y M b q +./ 6 e v u ",
"8 f W $ p K x 9 i k R b D W m y l v x } c [ z < 2 +.& h k c N 9 m j < x ~ + M J 4 9 y ! w k H ! i p v l C Z 9 { f 4 4 +.o ",
"< { V p % z +.Z A V S K F i # > > v ..H W q : m ; x 8 # $ ; 5 X X.o.o.X.5 X.X.o.o.X.o.o.{ X .     X 5 X X X X o.X.    A > "
};
