/* XPM */
static char *_b124f10371c42dd87f8794f20d04068nqbq1GTQIxrTHyYr[] = {
/* columns rows colors chars-per-pixel */
"40 40 179 2 ",
"   c #33262F",
".  c #2D2E31",
"X  c #342730",
"o  c #352932",
"O  c #392E36",
"+  c #3A2F38",
"@  c #2F3332",
"#  c #333335",
"$  c #3A3037",
"%  c #353B37",
"&  c #363339",
"*  c #3C333B",
"=  c #363A3A",
"-  c #3C3A3E",
";  c #403A3F",
":  c #2E4434",
">  c #2D4B39",
",  c #344337",
"<  c #334D3B",
"1  c #394F3E",
"2  c #255534",
"3  c #35543A",
"4  c #3A543B",
"5  c #35593B",
"6  c #3A5C3C",
"7  c #2F613B",
"8  c #34643D",
"9  c #3C613E",
"0  c #44573F",
"q  c #3D3B40",
"w  c #423C42",
"e  c #3E4F41",
"r  c #3E5441",
"t  c #3E5B42",
"y  c #3E6441",
"u  c #3A7943",
"i  c #464146",
"p  c #484147",
"a  c #444C46",
"s  c #4D464B",
"d  c #464B48",
"f  c #4D4A4D",
"g  c #514A4F",
"h  c #425343",
"j  c #485646",
"k  c #405B44",
"l  c #455248",
"z  c #4A5549",
"x  c #544E52",
"c  c #575054",
"v  c #5B5356",
"b  c #5F5658",
"n  c #62595B",
"m  c #695F5E",
"M  c #436543",
"N  c #4A6644",
"B  c #476C46",
"V  c #506D45",
"C  c #477046",
"Z  c #447D44",
"A  c #467549",
"S  c #517446",
"D  c #517B47",
"F  c #547349",
"G  c #547D4A",
"H  c #6B605F",
"J  c #6D6361",
"K  c #726764",
"L  c #726864",
"P  c #458144",
"I  c #498445",
"U  c #4E8A47",
"Y  c #4E8249",
"T  c #4F8A4D",
"R  c #54824C",
"E  c #5D874F",
"W  c #528C4B",
"Q  c #5A8D4D",
"!  c #459546",
"~  c #499244",
"^  c #479648",
"/  c #4B9549",
"(  c #4D9C4D",
")  c #53944C",
"_  c #5B944E",
"`  c #549B4D",
"'  c #5B9B4E",
"]  c #568350",
"[  c #5F8C51",
"{  c #5C9551",
"}  c #559D51",
"|  c #5C9C52",
" . c #628D4E",
".. c #65934F",
"X. c #629B4E",
"o. c #6A9E4F",
"O. c #698954",
"+. c #6D8E58",
"@. c #728855",
"#. c #788C5B",
"$. c #639552",
"%. c #6C9452",
"&. c #639C52",
"*. c #6B9C53",
"=. c #679C59",
"-. c #6D9E59",
";. c #749551",
":. c #729E55",
">. c #7B9B57",
",. c #77915B",
"<. c #7C955E",
"1. c #739E5A",
"2. c #799E59",
"3. c #4CA34E",
"4. c #4BAA4E",
"5. c #55A14E",
"6. c #5BA34F",
"7. c #54AA4E",
"8. c #5AA94F",
"9. c #54A352",
"0. c #5DA353",
"q. c #5BAA54",
"w. c #5FAC59",
"e. c #5FB553",
"r. c #5FB05C",
"t. c #62A04F",
"y. c #60A94F",
"u. c #63A354",
"i. c #6CA356",
"p. c #63AB55",
"a. c #6BAB56",
"s. c #65A45A",
"d. c #6CA45A",
"f. c #65AC5A",
"g. c #6CAB5B",
"h. c #72A356",
"j. c #7BA257",
"k. c #72A954",
"l. c #7BAA57",
"z. c #71A259",
"x. c #75A258",
"c. c #72A659",
"v. c #75A659",
"b. c #74A45A",
"n. c #79A45B",
"m. c #73AB5B",
"M. c #75AD5B",
"N. c #76AA5D",
"B. c #75AD5C",
"V. c #7FAF59",
"C. c #7BAB5C",
"Z. c #79A95E",
"A. c #79AD5D",
"S. c #62B455",
"D. c #69B155",
"F. c #66B25C",
"G. c #6BB25B",
"H. c #73B15D",
"J. c #7BB35D",
"K. c #7B9B64",
"L. c #6EAE60",
"P. c #78A660",
"I. c #74AE60",
"U. c #7CAE60",
"Y. c #73B362",
"T. c #73B264",
"R. c #78B162",
"E. c #7CB361",
"W. c #7FB860",
"Q. c #82925F",
"!. c #81A65C",
"~. c #84AC5D",
"^. c #88AC5E",
"/. c #82B05F",
"(. c #88B55F",
"). c #839C64",
"_. c #82A563",
"`. c #84AC62",
"'. c #83B362",
/* pixels */
"Z.c.~.' p.G.x.Z.Z.d.s.R.) ..g.0.} x.a.f.a.0.n.h.~.' s.D.c.c.C.z.u.Y.{ $.a.s.9.:.",
"&.:.*.Z.*.a.c.*.R.M.G.u.B.*.u.T.} i.~.c.(.N.=.i.:.b.*.a.N.-.E.A.a.u.d.d.0.T.| $.",
"| M.%.h.0.&.u.c.x.F.q.$.0.a.M.a.g.&.i.J.l.-.&.H.%.z.0.&.u.i.c.G.s.X.0.w.B.g.L.| ",
"b.s.u.$.' ) 3._ &.( ' u.s.s.p.c.g.m.9.0.$.(.c.s.o.$.' ` 9.) &.( } | a.i.p.b.s.A.",
"x.a.' 0._ g.I.} 2.&.l.0.0.s.h.i.p.c.` ` g.G.x.i.| 0.{ p.g.| 2.&.C.p.0.i.c.i.u.A.",
"p.^ s.s.u.d.z.I.5.H.x.~ / N.A.&.w.u.=.N.f.=.p.) | d.| g.z.N.9.H.x.U ! c.J.&.f.u.",
"m.g.$.-.a.' m.a.p.V.>.b.$.x.~.C.j.&.3.s.x.-.a.g.$.-.a.| H.a.q.A.>.x.*.h.~.C.j.*.",
"x.q.0.m.a.F.T.a.6.&.J.R.a.%.J.&.E.g.9.0.c.M.x.q.q.c.g.G.H.g.0.&.J.E.a...C.&.A.G.",
"s.q.( ' i.c.s.s.` 4.p.x.f.0.c.` s.{ %.{ T [ [ } ( ' i.c.s.a.) 4.p.z.f.6.c.| g.u.",
"_ a.` ) | ` u.u.6.p.i.i.` &.Q R R V N y y M t A I Z W ) u.u.6.p.i.s.` u.*.' s.:.",
"u.%.a.c.*.D.a.) x.c.b.a.! R N r l d f f f f f d r r N W $.~ :.x.c.M.9.u.*.:./.'.",
"J.&.k.!.'.h.u.| ) &.$.G A r a f g c b b b b v x f f d 4 B Y U X.c.=.F.s.u.*.o.G.",
"A.R.d.u.s.| =.&.c.) G t e f x c b n J J J J H n b c x g d r F / g.q.| n.s.| u.0.",
"*.x.| 5.u.g.' | :.S j f x x x b m J L J L L L J m b c x x f z V  .F.5.Z.p.Y.f.2.",
"C.;.s.s.' c.f.} F z c c c c b J L L L L L L L L J J n x x x x z V %.0.%.u.I.*.| ",
"C.l.' *.' 0.&.A l f c x x c n L L L L L L L L J L J n c c x x x z C { !.| i.g.( ",
"h.z.M.=.d.b.E k i x x x x c n L K K K L K K K K K K n c x x g x f r P n.R.i.&.a.",
"u.s.p.F.:.$.] a i g s s x x b H K K K K K K K K K H n c x s s s f a A $.Z.| :.8.",
":.l.} p.C.&.B e f s x x x x c n H K K L K K K K m n x x x x s s g i h E | s.u.` ",
"i.a.s.0.c.$.t e w i w w s x x x n n H J K K H n b x x x s p w w i q 3 ] _ C.| x.",
"w.0.L.s.x. .y = w w p i w s f x x x b n n b b x x x g g s w w w p q > { g.$.p.A.",
"m.d.J.u.g.X.N - w w w i i i p s s g x c x x x g s s w p w w w w w - > G G.0.0.*.",
"d.h.:.c.&.s.N - w w w w w w p p w w s s s s s w w w w w ; w w w q - 1 R 0.I.} *.",
"| c.%.N.&.{ M & w q w w w w w w w w w w w w w w w w w w w w ; w w = < W d.g.a._ ",
"*.f.*.*.` T 8 & * * * * ; w w * * * * * * * * * ; ; ; ; ; * * * - $ > R g.k.g.d.",
"n.i.0.| _ ` A & $ * ; * * * ; * * ; * + * ; * * * ; ; * ; + + * - = 4 Q u.c.a.J.",
"a.' u.u.| g.E e # $ $ $ $ + $ O $ $ + * O + O + + + + + + + + + & > u -.A.&.q.u.",
"f.&.| -.s.&.$.y % # o   o o o o o o o o o o o X X o o o o o o o # 4 I b.`.n.c.*.",
"x.D.t.c.g.f.G.W 6 % $ o o o o   o O o X o O   X o O     + o o # 0 %.d.%.~.k.!.g.",
"c.7.7.&.i.H.a.d.P 8 < @ X o o   X X X X       X o o     X $ : 7 W b.f.| B.` G.f.",
"' p.( ) X.' u.&.` 7.Y 4 # # @ . .   X         o o . . . @ 3 u 7.u.d.u.t.*.| &.*.",
"{ *.i.s.' w.s.| h.c.b.Q 8 5 3 1 , o . . . . . . , 5 5 6 9 Z i.N.n.a.( u.*.*.E.A.",
"H...k.!./.B.s.` X.*.i.d.r.0.$._ S M 5 5 2 5 9 6 D 2.!.h.s.) ' *.i.d.F.s.*.u.c./.",
"'.I.g.c.m.' u.-.&.9.m.| s.d.p.&.| s.0.0.u.s.E.A.g.b.G.' u.*.&.9.m.0.s.d.f.&.$.0.",
"%.Z.&.` 6.s.&.| /.&.i.e.| `.q.g.f.i.` $.g.F.*.b.u.` 0.i.$.' J.=.u.S.6.C.q.f.g.i.",
"c.;.s.0.&.c.0.f.M.a.l.Z.3.i.s.E.&.b.Y.l.' 0.z.;.0.s.&.b.q.p.M.c.n.C.3.=.a.E.&.-.",
"A.b.u.i.' s.G.q.i.f.g.u.d.2.{ i.c./ k.'.` 6.C.z.0.d.' &.G.f.i.f.g.a.d.2.{ i.N.! ",
"l.C.s...i.a.=.s.:.' n.a.| `.g.s.t.u.z.~.C.z.C.l.s.*.i.g.-.0.%.X.h.s.' ^.N.s.6.s.",
"u.&.M.F.*.h.m.a.g.Z.c.8.s.i.E.=.:.7.w.J.A.0.0.u.g.S.:.z.I.u.m.I.k.y.a.s.A.a.>.q.",
"-.x.( p.C.u.g.H.F.` } k.~.n.*.9.u.0.3.' @.K.).<.+.).).,._.K. .U O.#.#.#.).F $.| "
};
