/* XPM */
static char *_eb7701f83544379ed567681ece81d9aAHZ2qb4kvnlgDYsW[] = {
/* columns rows colors chars-per-pixel */
"40 40 173 2 ",
"   c #34262F",
".  c #342630",
"X  c #332931",
"o  c #392E36",
"O  c #3A2F38",
"+  c #2D3532",
"@  c #263E32",
"#  c #2C3C34",
"$  c #303634",
"%  c #3A3037",
"&  c #313A35",
"*  c #3C333A",
"=  c #353F3B",
"-  c #3D3B3F",
";  c #40393F",
":  c #254133",
">  c #2C4335",
",  c #264833",
"<  c #324136",
"1  c #34443B",
"2  c #38423D",
"3  c #334B3B",
"4  c #30563B",
"5  c #3A563E",
"6  c #345D3D",
"7  c #3D5D3F",
"8  c #3B623E",
"9  c #366E3C",
"0  c #3A6A3E",
"q  c #41633E",
"w  c #3F3B41",
"e  c #423C42",
"r  c #3B5441",
"t  c #3E5C41",
"y  c #3C6043",
"u  c #3B6D40",
"i  c #367B40",
"p  c #3E7C43",
"a  c #454145",
"s  c #494247",
"d  c #444B47",
"f  c #4C454A",
"g  c #454B48",
"h  c #4C4B4C",
"j  c #50494D",
"k  c #435444",
"l  c #554E53",
"z  c #575053",
"x  c #5B5356",
"c  c #5D5558",
"v  c #5F5859",
"b  c #605759",
"n  c #645B5B",
"m  c #685E5E",
"M  c #446441",
"N  c #486147",
"B  c #436942",
"V  c #4B6C43",
"C  c #457444",
"Z  c #4F7647",
"A  c #457D45",
"S  c #4B7C46",
"D  c #4C7348",
"F  c #4D7C49",
"G  c #587646",
"H  c #5C7749",
"J  c #537C49",
"K  c #6B615F",
"L  c #6E6461",
"P  c #726764",
"I  c #726864",
"U  c #4D8947",
"Y  c #4B8249",
"T  c #4C8C4A",
"R  c #56854C",
"E  c #59824B",
"W  c #528A49",
"Q  c #5D8C4E",
"!  c #459747",
"~  c #499244",
"^  c #439944",
"/  c #479648",
"(  c #4D9D4D",
")  c #53934C",
"_  c #5B964D",
"`  c #549B4C",
"'  c #5C9B4E",
"]  c #528D50",
"[  c #4D9D50",
"{  c #569450",
"}  c #5A9651",
"|  c #559C51",
" . c #5C9C52",
".. c #658B4F",
"X. c #64934E",
"o. c #629B4E",
"O. c #6A9E4F",
"+. c #6B8B52",
"@. c #6D8E58",
"#. c #728855",
"$. c #788C5B",
"%. c #629651",
"&. c #6C9551",
"*. c #639C53",
"=. c #6B9C53",
"-. c #669A59",
";. c #6D9E59",
":. c #749553",
">. c #729D54",
",. c #77915B",
"<. c #7C955E",
"1. c #739D59",
"2. c #789E5A",
"3. c #4DA34D",
"4. c #55A14E",
"5. c #5BA34F",
"6. c #54AA4E",
"7. c #55A252",
"8. c #5DA353",
"9. c #5BAB54",
"0. c #5FAC59",
"q. c #5BB253",
"w. c #62A04F",
"e. c #63A355",
"r. c #6CA356",
"t. c #63AA56",
"y. c #6CAA56",
"u. c #65A459",
"i. c #6CA55A",
"p. c #65AC5B",
"a. c #6CAC5B",
"s. c #72A456",
"d. c #7AA356",
"f. c #72A954",
"g. c #7BAA57",
"h. c #76A358",
"j. c #72A659",
"k. c #74A658",
"l. c #74A55A",
"z. c #79A45B",
"x. c #74AB5B",
"c. c #72AC58",
"v. c #76AD5B",
"b. c #76AD5D",
"n. c #79AB5B",
"m. c #7BAB5C",
"M. c #79A95E",
"N. c #7CAE5F",
"B. c #62B455",
"V. c #65B25C",
"C. c #68B15B",
"Z. c #6CB25C",
"A. c #6FB35C",
"S. c #72B15D",
"D. c #7AB35D",
"F. c #7B9B64",
"G. c #6EAF60",
"H. c #78A660",
"J. c #73AE61",
"K. c #7CAE60",
"L. c #75B462",
"P. c #73B264",
"I. c #78B162",
"U. c #7CB362",
"Y. c #7FB860",
"T. c #81A65D",
"R. c #80AE58",
"E. c #84AB5D",
"W. c #82B05E",
"Q. c #839C64",
"!. c #82A563",
"~. c #84AC62",
"^. c #83B362",
/* pixels */
"M.j.R.%.t.A.h.v.N.i.u.I.) &.p.e.| h.y.p.y.8.k.j.R.%.e.A.k.v.M.k.u.I.} &.p.u.| r.",
"*.>.=.M.=.y.s.;.U.b.C.e.i.=.e.P.| =.g.r.E.y.%.=.=.M.=.y.j.;.D.M.S.e.i.r.8.P. .*.",
" .v.&.s. .*.e.s.f.C.8.X.9.t.a.u.e.C 7 q 8 7 6 B G %._ *.8.r.j.C.9.%.8.0.v.p.a.%.",
"j.u.e.%. .` [ _ %.(  .e.r.%.F M t k d d g f g d 5 5 8 A ( _ %.[ { 8.r.r.t.z.i.S.",
"h.u. .5.} p.G. .1.o.g.8.A 8 k g d h z b m m c z g d g t B Y 1.*.g.t.8.r.j.r.t.m.",
"t.) u.r.e.i.s.J.5.S.>.9 r f j l z b m L P L K m c l l h g N Y c.h.~ / k.m.*.9.e.",
"A.y.%.r.i.8.b.p.0.m.H k h l z z b L P P I I P P m c l l l h y %.1.h.%.h.~.E.2.=.",
"h.t.8.c.y.C.S.i.4.X.Z g l z z b L I P P P P I I P L c l l j r C m.D.a.X.m.*.K.A.",
"r.9.( ' r.f.e.r.) i 3 f l z z n P I P I P P I P P L v z z l w r T ;.p.5.v. .C.u.",
") t.4.) ' ' u.e.` 0 1 f l z z n P P P P P I P I I L v z z l r 3 J r. .*.=.' *.s.",
"e.&.y.j.O.C.p.) =.B 2 f z l z n P P P P I P P I I L b z l l e w J y.7.*.=.s.W.W.",
"D.%.f.T.^.s.u.%.W 8 = f l z z x K P P I P P P I P n x z l l w 1 F -.G.9.e.o.=.S.",
"K.I.i.u.9. .e.} J 3 - a j l l z n P P P P P I P L v l l l f e w r T  .M.p. .u.8.",
"=.z. .` e.j._  .Z 2 e s f f l z x K P P P P P P n z l l f f a w 1 W 3.H.t.P.p.2.",
"z.&.i.u. .s.V.9.V 2 w a a e j z z x x m L P n c x l l f e a w w 1 E  .=.e.n.;.} ",
"m.g.5.=. .e.i.7.q 1 - e s s f z z l z x x c x l l l h f s w w w 1 F *.T. .r.y.( ",
"s.y.J.*.r.M.s.*.B & * e e e f f h l l l x l l x l e e e e e e e < Y ` M.I.u.o.t.",
"e.r.e.C.>.r.G.i.C + * e e e e e e j j j x x e l l e e e e e e ; # S y.s.M. .k.6.",
"1.z.| t.D.i.y.p.B + X * e e e e e e e j e e j e e e e e e e ;   # E M.k.*.u.*.` ",
"s.p.-.9.c.i.8.` 0 + O * % e e * e e e e e ; e e e e e e e O o . > Z u.r._ K. .d.",
"0.9.p.i.z.;.4.e.M + o * * * % * e e O e o o O ; O O o w o O O . > C [ L.y.%.t.m.",
"c.i.U.*.p.y.s.k.V + . X . X . X . . . . . . . . X . . X . . . . # R T =.A.5.e.=.",
"r.s.1.j.o.S.h.=.D $ . X . % o . . O o . . . . O o . X O o . . . # Y ;.&.e.b.| ;.",
" .j.+.m.e.e.r.;.Z & X   . . . . . . . . . . . . . . . . . . . . 3 Z 9.p.y.p.p._ ",
"r.a.=.%.' | ` ' } 6 + . . . . . . .   . . .     . . . . . . . + 9 _ e.u.a.h.p.c.",
"z.u.5.8.} 8.G.} =.0 + . . . . . . . . . . . .   . . . . . . X 1 E e.e.r.r.k.r.D.",
"r.' e.e. .J.a.i.*.=.V + X . . . . . . . .       . . . . . X # J d.` [ i.S.*.9.u.",
"C. .*.;.i. .j.x.6.D.+.7 + X . .   . . . . .     . . . . X < p c.1.X.) h.E.z.k.=.",
"k.Z.w.v.p.t.P.t.8.s.E.k.B + X X . . . . X   X     X     > F | y.E.^.i.&.m.j.E.p.",
"s.6.3.w.y.S.r.j.` 3.C.k.7.8 > @ + . X . X X   X   + @ 4 F =.` ( C.c.t.8.v.` A.a.",
"_ t.` W %. .9.*.` q.e.;.e.' Q T y @ @ @ @ @ @ @ , 0 W W  .e.` 9.e.r.e.o.=. .e.=.",
"} r.t.u.o.9.i. .s.k.k.a.( =.-.&.j.:.] ] _  .R Q  . ._ 9.r.' s.j.z.a.( *.O.>.U.n.",
"D.X.y.E.E.b.u.) o.r.r.i.V.e.r.e.n.I.>.*.^ u.S.X.s.E.E.n.u.` ' =.y.i.V.t.=.e.k.^.",
"^.x.i.j.b.' e.;.*.7.S. .u.i.t.o.} e.8.8.e.r.^.b.a.r.S.' u.=.*.| c. .u.j.p.%.%.8.",
"=.v.*.` 8.u.%. .D.e.e.B. .!.9.a.p.y.4.%.a.a.-.z.*.` 8.u.%._ D.=.e.B.| !.9.p.p.;.",
"s.:.u.u.e.k.9.t.v.s.d.M.3.;.p.U.*.1.L.d.| 9.s.:.u.9.*.z.9.t.v.y.d.D.3.-.a.Y.*.;.",
"M.s.8.r._ e.G.9.=.a.a.y.r.2. .r.s.! v.^.`  .M.s.8.r.' e.a.0.r.p.a.y.r.2. .>.k.! ",
"g.M.i.o.r.a.;.8.=. .z.t. .~.a.r.8.e.>.E.U.s.m.m.u.=.r.a.;.0.:.' z.u. .E.a.r.e.9.",
"e.-.f.p.>.h.S.y.c.b.f.5.i.r.U.-.>.6.9.D.M.5.9.*.c.V.=.s.a.i.a.b.s.5.p.r.K.u.>.9.",
"=.m.( t.b.e.a.S.C.| | i.R.M.*. .r.8.3.' #.F.Q.<.@.Q.Q.,.!.F...U +.,.$.$.Q.H %.*."
};
