/* XPM */
static char *_15cb953dbbe4f48a24fc7cb7e2f1f66UjSsdDGmmTooxmhH[] = {
/* columns rows colors chars-per-pixel */
"40 40 215 2 ",
"   c #607F4B",
".  c #4D8947",
"X  c #459546",
"o  c #489446",
"O  c #4C9749",
"+  c #4D9D4D",
"@  c #579847",
"#  c #53944C",
"$  c #5A954D",
"%  c #549B4C",
"&  c #5C9B4E",
"*  c #5A9650",
"=  c #559C51",
"-  c #5C9C52",
";  c #658B4F",
":  c #6F9D47",
">  c #65944E",
",  c #649D4D",
"<  c #6C9D4D",
"1  c #749A4A",
"2  c #729F4C",
"3  c #6B8C57",
"4  c #728856",
"5  c #788C5B",
"6  c #629651",
"7  c #6C9451",
"8  c #639C52",
"9  c #6B9C53",
"0  c #679F58",
"q  c #6C9E59",
"w  c #729D54",
"e  c #799758",
"r  c #739E5A",
"t  c #4DA34D",
"y  c #4BAA4E",
"u  c #55A14D",
"i  c #5BA34E",
"p  c #57AA4C",
"a  c #54A352",
"s  c #5DA353",
"d  c #5BAB54",
"f  c #5AAB55",
"g  c #5CB353",
"h  c #66A246",
"j  c #6BA643",
"k  c #64A54C",
"l  c #6CA14C",
"z  c #61A94E",
"x  c #6BAD4B",
"c  c #75A345",
"v  c #7AA346",
"b  c #7FAB40",
"n  c #72A34E",
"m  c #7BA54C",
"M  c #73AB4C",
"N  c #7BAC4C",
"B  c #6FB045",
"V  c #77B14B",
"C  c #63A354",
"Z  c #6BA355",
"A  c #63AB55",
"S  c #6BAA55",
"D  c #65A459",
"F  c #6CA55A",
"G  c #65AC5A",
"H  c #6CAC5B",
"J  c #72A455",
"K  c #7AA455",
"L  c #73AA55",
"P  c #7BAB55",
"I  c #74A559",
"U  c #79A55A",
"Y  c #73AB5B",
"T  c #75AD5B",
"R  c #7BAB5B",
"E  c #63B156",
"W  c #6CB356",
"Q  c #66B25C",
"!  c #6BB25B",
"~  c #74B355",
"^  c #7DB254",
"/  c #72B25C",
"(  c #7BB35D",
")  c #7FB85D",
"_  c #7B9B64",
"`  c #6EAF60",
"'  c #78A660",
"]  c #73AE61",
"[  c #7AAD60",
"{  c #73B362",
"}  c #7BB362",
"|  c #86A83F",
" . c #8BAE3D",
".. c #99AD3B",
"X. c #8AB339",
"o. c #96B53A",
"O. c #9CBC3C",
"+. c #A6BB29",
"@. c #B4BD2C",
"#. c #A8B734",
"$. c #A4B33C",
"%. c #A3BD3B",
"&. c #ACBC39",
"*. c #B6BD30",
"=. c #B2BE38",
"-. c #BBC529",
";. c #ABC13D",
":. c #B3C130",
">. c #BAC836",
",. c #B6C73B",
"<. c #D6D900",
"1. c #C3CB19",
"2. c #CED615",
"3. c #DDDE1B",
"4. c #E0DE1E",
"5. c #DCE200",
"6. c #E5E600",
"7. c #ECEC00",
"8. c #E6E80C",
"9. c #F2EE00",
"0. c #F5F301",
"q. c #FAF707",
"w. c #FCFB00",
"e. c #E4E31A",
"r. c #E8EA1A",
"t. c #F0EF15",
"y. c #F7F517",
"u. c #C8CA27",
"i. c #C4CB2B",
"p. c #C9D224",
"a. c #D2D625",
"s. c #D6DB29",
"d. c #CCD130",
"f. c #E2E520",
"g. c #809E46",
"h. c #82925F",
"j. c #82A643",
"k. c #84AC44",
"l. c #8DAC43",
"z. c #82A24B",
"x. c #85AA4B",
"c. c #8EAD4E",
"v. c #92AE49",
"b. c #8EB242",
"n. c #89B847",
"m. c #82B44E",
"M. c #8BB34A",
"N. c #85B94E",
"B. c #93B242",
"V. c #99B242",
"C. c #9BB549",
"Z. c #93B84B",
"A. c #9BBA4C",
"S. c #85A756",
"D. c #83AC53",
"F. c #89AE56",
"G. c #81A75A",
"H. c #84AB5C",
"J. c #82B552",
"K. c #88B954",
"L. c #83B25C",
"P. c #89B55C",
"I. c #93B252",
"U. c #92BA54",
"Y. c #A1B246",
"T. c #A2BD43",
"R. c #AABB41",
"E. c #A1BC49",
"W. c #839C64",
"Q. c #82A562",
"!. c #83AD61",
"~. c #82B362",
"^. c #8AB361",
"/. c #98C349",
"(. c #9CC251",
"). c #A8C647",
"_. c #B6CB43",
"`. c #B8D248",
"'. c #A9C956",
"]. c #B3CC58",
"[. c #AED155",
"{. c #B7D357",
"}. c #C5D54C",
"|. c #C8D94B",
" X c #C5D957",
".X c #CEE044",
"XX c #D7E347",
"oX c #D3E54D",
"OX c #DBE953",
"+X c #ECEE51",
"@X c #F4F354",
"#X c #FCFC53",
"$X c #C8DD68",
"%X c #DCE56A",
"&X c #DDE774",
"*X c #FCFE66",
"=X c #EAEF79",
"-X c #FBFD77",
";X c #E7ED84",
":X c #E8F186",
">X c #ECF28C",
",X c #F2F48B",
"<X c #F5F594",
"1X c #FCFC94",
"2X c #F4F69C",
"3X c #F7F8A3",
"4X c #F7F8AD",
"5X c #FBFBAD",
"6X c #FCFBB3",
"7X c #FBFBBB",
"8X c #FCFCC6",
"9X c #FCFCCA",
"0X c #FCFCD6",
"qX c #FCFCE3",
"wX c #FCFBED",
/* pixels */
"U Y R 8 A H U T U ' D { $ 7 H s = J H G S s U I P 0 s ! U Y R U D } * 7 G C a q ",
"8 9 9 U 9 S I q } T Q s F 9 s { - Z R J ^.Y q 9 9 I 9 S I 9 } I ! C F Z s { - 8 ",
"- T 7 J s C 8 Z L H s 8 d A Y G H 6 J ( U q 8 Y 7 w s 0 - Z I Q s 8 s d T H H * ",
"I D C 9 - # a $ - + * C F Z G U H I a d 8 ~.U D C 9 - # a * 8 + * s F Z G U F { ",
"U S - i * ` ` - r 8 P C f Z L Z S T & & ~ Y K S s s * G ` = I 8 P D s q J Z C R ",
"A # C C - F J ] s / J X X U R 8 G Z n K.~ l x @ - F - F J ' = / U o X Y } 0 d C ",
"H F 6 r S - Y G d R e r 8 r F.H.z.< x /.U.w L Y 7 q H - T S d ( e J 8 r H.R U 9 ",
"U d s Y H Q / F s C L.} G 7 R < L.~ V {.'.D.R x z L H Q { H s 8 L.( H 6 R 8 R ! ",
"C d + $ J H C Z # y A J A i L k ~ N '. X'.x.N x u & Z H C Z # y A q G s I - H D ",
"$ A u # * % C C s G Z F % Z 9 l m l._.oX`.b.2 N i $ - * C C i G Z F - C 9 & 8 J ",
"8 7 S I Z W F O J I J H a Z n x.U.E.,.OX|./.x.g.N P < W F O J J I Y a C 9 w ~.~.",
"L.8 H H.~.J C 8 $ 0 F q Q C n v l.%.`.;X$X#.E.j.N S.^.L D , % 8 F F Q C C k 9 Y ",
"] } F D s - 8 8 F s H d 8 R V k.B.+.}.>X&X-.R.A.x.J A * 8 6 I a H d - U G - C C ",
"9 K - % C Y & s ( 9 Z W % G.V A.%.1.XX2X=X2.#.$.j.h k Y 8 i ( q 9 W u ' A { G r ",
"U 7 D D - L G A L Y P D.k z.b.R.*.<.@X7X,X5.i.#.B.M.j K W E L Y I R s q D I 9 * ",
"R R i 9 & D Y A 2 S P N x.Y...@.a.6.@X9X1X7.3.i.#...j.N D.x n C Y S q Q.- Z Y + ",
"Y Z T 8 J U L M z.m v.k...R.>.2.4.0.#X8X1Xw.t.e.i.#.$.C.c.N m m x.S i I } S , A ",
"0 Z A G 2 J ( P N.J. .o.&.-.s.e.y.w.#X9X1Xw.y.t.3.p.@.o.Z.M.N.P n x Y J R - w d ",
"w U % A L.L P K.M.X.o.>.d.3.6.0.w.#X5XqX8X-Xw.w.7.5.s.>.;.).Z.j Z D.F.K , D 8 % ",
"Z G D C ^ U.(.[.`..X%X;X;X2X4X6X5X8XqXwXwX0X6X6X6X3X<X;X&XoX|.{.].Z.m.L & [ - J ",
"A a ` F S.Z./.{. X.X%X;X;X2X7X7X6X9XqXwXwX0X8X7X7X4X<X:X&XoXoX{.].b.B L.I 8 A R ",
"Y H } - W P P U.A.V.).,.u.s.r.y.w.#X6XqX9X-Xy.q.r.f.s.>.;.).T.x.P P $ w ~ i s q ",
"q J w J Z ~ S.m U.M.n.o.&.-.2.t.q.w.*X9X1Xw.q.0.8.u.@.;.V.l.U.F.~ L J w C ` * C ",
"- I 9 U l Z l K D.N.m.| o.%.-.a.r.q.#X8X1Xw.y.4.u.=...l.k.x.J.^ ~ , C S H H S $ ",
"Z H 9 7 s & % , < z j v k.b.%.*.a.7.@X8X1X9.3.i.#...| c h l 2 z & 8 Z S S Y ` F ",
"U D s - * s H - q & K S x x.B.$.:.<.+X7X,X6.u.&. .| < z W - w $ L A s Z C U C } ",
"S & C C - ` Y D 0 L P O % R M. .%.1.XX3X=X2.:.X.j.M , Y Y F 0 L P % + ' U 0 d Z ",
"G 8 - q F 8 I Y p ( e 6 $ K I.v.Y.+.}.>X&X-.%.k.1 K S 8 L / a / e * # J !.U J 8 ",
"U Q , Y S d { G s L H.~.I < F.x.Y.O.`.:X%X%.C.M.c P H d { D s I !.} I 7 R I G.H ",
"Z p u C F / S I + t ! I d , P j K.b.`.OX|.%.v.B p Z Z / S J % t H Y A - Y % ! G ",
"- G + . 8 - s C % g 0 Z C C J l n | _.oX`. .c M h # 8 > s C % g C Z C k w - C 9 ",
"$ q S Z & d Z - J I I H + 9 < 1 P.I.E. X[.m.2 m M C & d Z & Z Y U H + 8 9 9 [ H.",
"/ > H G.!.T F % , 9 Z F Q C Z l S.J.I.[.n.L J.< J S.H.T F # , 8 Z F Q G 9 C L } ",
"~.T F I H & C q - a T s D F W , , S P /.N.J P.R Y J / & C 8 0 = / - C F G 8 6 s ",
"9 R 8 % u D 6 - ~.8 C E - !.s H H J h m J.~ 9 P C = s D 8 $ ~.C C E - !.d G H q ",
"U 7 D D q I d A Y J I R t q G } 8 J ) P , s J e C s 8 U s A Y I U R + 0 G } 0 q ",
"U F C Z & C ! d q G H S F e - J Y o Y !.% u R J s Z & C ` f Z G H S F e - q Y X ",
"R P D 6 F S q C 7 & U A - !.H Z s s w !.!.U R R D 9 Z H Z s 7 - I D - H.H Z C C ",
"C 8 Y G w U ] F Y ] L d F Z [ 0 w p d ( I s s 0 Y Q Z J ] H ! [ L d S Z } C w d ",
"9 R + A T C H ! E = * Z ~.I 8 = Z s t i 4 _ W.e 3 W.W.5 Q.5 ; . 3 5 5 5 h.  6 - "
};
