/* XPM */
static char *de3814eb8aeb43268b01059d462fc1a6KC0JquRGtP2pbJ3W[] = {
/* columns rows colors chars-per-pixel */
"40 40 223 2 ",
"   c #607F4B",
".  c #4D8947",
"X  c #479546",
"o  c #4D9D4D",
"O  c #54944D",
"+  c #5B964E",
"@  c #549A4E",
"#  c #5C9C4E",
"$  c #5B9550",
"%  c #559C52",
"&  c #5C9C52",
"*  c #579E59",
"=  c #658B4F",
"-  c #64934E",
";  c #6E924F",
":  c #6B8C57",
">  c #728856",
",  c #788C5B",
"<  c #649551",
"1  c #6E9552",
"2  c #639C53",
"3  c #6B9C53",
"4  c #6C9D5A",
"5  c #729D55",
"6  c #78985A",
"7  c #4EA44D",
"8  c #54A74E",
"9  c #5CA34E",
"0  c #54A353",
"q  c #5DA353",
"w  c #5BAB54",
"e  c #5BA35D",
"r  c #5CAA59",
"t  c #61A54F",
"y  c #63A354",
"u  c #6BA356",
"i  c #63AA56",
"p  c #6CAA56",
"a  c #64A35A",
"s  c #6CA55B",
"d  c #65AC5A",
"f  c #6CAC5B",
"g  c #72A356",
"h  c #7CA157",
"j  c #71A954",
"k  c #7AAA57",
"l  c #74A459",
"z  c #79A35B",
"x  c #74AC5C",
"c  c #7BAB5C",
"v  c #62B455",
"b  c #66B25D",
"n  c #6CB25C",
"m  c #73B15C",
"M  c #7AB35E",
"N  c #7B9B64",
"B  c #5DAE6D",
"V  c #59B26B",
"C  c #5CB57B",
"Z  c #6CAD63",
"A  c #68AB67",
"S  c #74AF61",
"D  c #7BAD61",
"F  c #70AF6D",
"G  c #68B465",
"H  c #65B36D",
"J  c #73B365",
"K  c #7BB362",
"L  c #7BB865",
"P  c #72B26D",
"I  c #6CB57A",
"U  c #67BA7B",
"Y  c #75B779",
"T  c #6AC17D",
"R  c #7CC07E",
"E  c #82AD5B",
"W  c #86B25E",
"Q  c #839C64",
"!  c #84A763",
"~  c #84AC62",
"^  c #81B363",
"/  c #5BBC88",
"(  c #65BB86",
")  c #68B985",
"_  c #6CBC8A",
"`  c #73BB81",
"'  c #7BBC83",
"]  c #73BF95",
"[  c #14D8B3",
"{  c #59C78C",
"}  c #56C891",
"|  c #6AC183",
" . c #62C18B",
".. c #69C38C",
"X. c #71C285",
"o. c #73C28C",
"O. c #78C48D",
"+. c #66C394",
"@. c #6BC595",
"#. c #64CA9C",
"$. c #68C899",
"%. c #74C493",
"&. c #7CC493",
"*. c #72CB9B",
"=. c #79CB98",
"-. c #7AD29E",
";. c #4DCDA3",
":. c #50CBA1",
">. c #59D6A9",
",. c #4ADBBA",
"<. c #5CD6B2",
"1. c #56DDBD",
"2. c #5ADDBC",
"3. c #62CFA2",
"4. c #6CCCA3",
"5. c #74CFA4",
"6. c #78CDA6",
"7. c #69D2A8",
"8. c #6CD4AB",
"9. c #74D4AD",
"0. c #78D5AA",
"q. c #7CD4AB",
"w. c #6BD6B2",
"e. c #67DAB8",
"r. c #6CDEBE",
"t. c #79D5B5",
"y. c #74DAB6",
"u. c #7BD9B4",
"i. c #75DBBC",
"p. c #7CDCBA",
"a. c #5CE2BF",
"s. c #67E1BE",
"d. c #58DFC2",
"f. c #61DFC0",
"g. c #6DDFC2",
"h. c #75DEC2",
"j. c #7CDEC3",
"k. c #48E1C1",
"l. c #56E1C0",
"z. c #5CE1C2",
"x. c #62E1C2",
"c. c #6BE2C4",
"v. c #75E2C4",
"b. c #7AE2C4",
"n. c #75E5CA",
"m. c #7CE5CA",
"M. c #73E8CC",
"N. c #7AEAD4",
"B. c #85B985",
"V. c #89C38C",
"C. c #85CB96",
"Z. c #88CF99",
"A. c #87CFAA",
"S. c #82DAB5",
"D. c #89D8B4",
"F. c #85DBBC",
"G. c #95DABA",
"H. c #85E0BD",
"J. c #85DEC1",
"K. c #8CDDC0",
"L. c #9DDDC1",
"P. c #84E3C6",
"I. c #8AE2C5",
"U. c #83E5CC",
"Y. c #8BE5CC",
"T. c #85E8CE",
"R. c #8BE8CD",
"E. c #95E5CC",
"W. c #9BE5CD",
"Q. c #85E6D1",
"!. c #8BE7D1",
"~. c #86EAD4",
"^. c #8DEAD4",
"/. c #86EEDB",
"(. c #8CEDDA",
"). c #95E6D2",
"_. c #9CE7D3",
"`. c #95EAD5",
"'. c #9BEAD5",
"]. c #96ECD9",
"[. c #9AECDA",
"{. c #89F1DE",
"}. c #97F0DB",
"|. c #A2E5CA",
" X c #A5E7D2",
".X c #A2EAD4",
"XX c #AAE8D4",
"oX c #A3ECDA",
"OX c #ACEDDC",
"+X c #B7E8D7",
"@X c #B4ECDC",
"#X c #BBECDD",
"$X c #A9F0DE",
"%X c #B3F1DE",
"&X c #95F2E2",
"*X c #9CF2E3",
"=X c #B5EFE1",
"-X c #BBEFE1",
";X c #A3F2E3",
":X c #AAF3E4",
">X c #A7F6E9",
",X c #ACF6E9",
"<X c #ADF8ED",
"1X c #B3F2E4",
"2X c #BCF2E4",
"3X c #B7F5E9",
"4X c #B4F5EA",
"5X c #BBF5EB",
"6X c #BDF8EE",
"7X c #C3EFE2",
"8X c #CBEFE4",
"9X c #C4F1E4",
"0X c #CCF2E6",
"qX c #C6F4EB",
"wX c #CCF4E9",
"eX c #C3F8EF",
"rX c #D1F3E7",
"tX c #D3F4EA",
"yX c #DCF5EE",
"uX c #D4F9F2",
"iX c #D8F9F3",
"pX c #E0F5EF",
"aX c #E7FAF6",
/* pixels */
"c s E & i n z k c s s J O ; f y % g p f p y x g M 2 q n g x c l a M $ < f y % u ",
"2 5 1 c 3 p l 3 K x b y f 3 q J % u k g ~ x 4 3 1 z 3 p l 5 K x n y s u & J 9 2 ",
"& x ; u & 2 q g g b q 2 q i x n Z 2 f L x 4 a m 1 g q 4 y u l n q 2 9 r x f f $ ",
"l a y 3 # o 0 + 2 @ % a p F ` +.9.S.u.u.S.D.5. .Y a * @ 0 O 2 o % y u s d z f x ",
"l y q 9 $ d Z * 4 4 c H $.w.R.'.OX1X5XqX9X:XoX_.h.8.( G J * 6 y k y q s g u y M ",
"i O y u y s l x w L &.e.!.2X0X9X#X X_..X_.#X9X9X9XOXT.y.` S q m k X X l K 2 r y ",
"f p < 4 f # x n C 0.!.-XrX+X).c.r.s.c.m.Y.T.v.b.).-XwX$Xm.*.V K 6 g 3 5 W E h 3 ",
"z i q j f G L U p.oXwXwXT.,.I.OXwXrXtXyXtXrX2X.XU.l.'.wX2X'.5.A ^ c f - c 2 x f ",
"u w o # u x U J.OXwXOXf.R.wX9X Xp.<. XtXg.w.F.@XwX#XR.x.9XwX_.8.G l d q l 9 v y ",
"O i 8 O & B p.@X8X].g.@X9XE.#./ %.F.1XU.=X9._ { 7. XtXW.a.@XwXoX6.F % y 3 $ 4 g ",
"2 1 u x s 8.[.rX).T.9X7X>.( ' B.u.1X).e.$X[.*.B.' ..S.tXOX[ @XrXT...r y u 5 W W ",
"^ 2 p ~ C.!.8XoX,.#X#X:.O.O.&.6.`.4Xh.D.v.5XU.=.&.V.=.w.0X'.,.#X1Xj.T a y 2 3 m ",
"c J Z A y.:X7Xd.OXrXs.p.S.K.Y.N.eX}.~.`.~.4X1XT.Y.F.F.y.P.yXY.n.wX].$.! d & a q ",
"1 z 2 / R.rXY.c.aX#X`.;X*X>X*XuXuX>X<X<X<X>XiX6X;X;X[.;X~.tXyXc.OX2Xh.Y i J d 5 ",
"c 1 Z 8.OXtXa.1X7XoXr.S.i.P./.eX{.~.].(.(./.;X5XN.U.i.y.n.OX0X.Xv.tXR.] y D 3 2 ",
"k c V J.2X_.n.wX2.@X).q.G.I.4X>X`.`.'.'.).).(.6X;XF.A.9.%XR.I.9Xk.@X=XS.e u f o ",
"j g %.m.wX!.oX@X5.F.5Xh.F.*XeX/.`.`.`.[._.'.`.*X6XT.F.`.4X8.S.-Xb.`.9Xr.R u < i ",
"y u *.[.0XP.9XW.*.5.oX:XN.6X*X^.'.`.`.].].`.].^.4X,XM.5XY.&.3.7XW.I.9XY.' & 5 w ",
"6 x $.OX#Xs.wX|.| _ h.5X>X4X~.'.`.`.`.].[.].`.'./.4X<X:X0.C.{ #XOXY.9X XC i 2 @ ",
"l d *.1X2Xc.2XG.U &.S.*XaX/.`.'.`.'.}.}.].].].'.^.>XaXN.A.` / +X$Xm.qX XC ~ & g ",
"r r 4.2X@X2.9XL.) V.S.:XuX&X].).].[.].].].'.`.`.(.,XuX`.6.V.( +X%Xb.9X.X) 3 i c ",
"x f Z.oX2Xx.7X|._ %.U.4X{.6X{.`.`.].].].].].].'.&X6X{.5Xy.C.+.7XXX`.-X).X.9 w 3 ",
"4 5 =.^.wXn.-X.XZ.0.1X].n.4X>X(.`.].'.].[.`.].(.6X[.v.:XoX%.9.2XoX'.9Xj.I m @ 3 ",
"& l ` m.qXv.U.7X<._.:Xt.D.(.eX}.`.).'.'.'.'.!.>X5XR.D.j.5Xp.H.wX`.@X2Xe.P n f + ",
"u f A F.-X=Xd.8Xm.OXj.q.D.j.;X4X/.`.`.!.).'.{.6X(.F.q.7.).'._.-Xh.8X$X6.n l f p ",
"z a d #.[.rXU._.pX.Xv.U.~.^.{.uX;X&X}.&X*X{.6X6X/.^.Q.P.n.-XiXh.!.qXU.) f l u M ",
"u # y I j.qXXX,.pX0X`.].[.;X;X1XuX>X<X4X>X4XuX;X;X[.[.oX!.pX-X2.-XOXw.F D 2 w y ",
"b 2 & Z 9.[.0Xc.Y.0Xi.#.%.6.D.b.,X}.v.H.n.4X].y.5.6.6.:.|.0Xd.[.rXQ.( z ~ l l 4 ",
"l n t x I v.2X#Xm.$XtXH._ B.V.Z.I.5Xv.q.`.5Xu.Z.Y O.#.W.tXc.m.tXoXS.P 3 c g c p ",
"g 8 7 u x *.R.wX@Xk.oXyXY.} _ ` -.oX$X1.2XI.&.T C 3.+XyXm.T.9X2Xb.Y b & l @ J d ",
"# i @ . 4 a 5.'.9X%X,.U.wX7XG.#.#.<.OXoX).;.+.8.E.wX#Xs.v.wX-XI...l y t u # y 3 ",
"+ u i y @ d G 4.).0X9Xm.1.'.9X0XOX|.+XaX_.|.OXtX#XY.z.E.0X#XY.%.D f o 2 3 5 K E ",
"m - j E E c Z e $.R.%XrX$X2.r.).OX2X7X2X1X2X.Xh.f.I.-XwXoXj.( s l s b y u 2 l M ",
"^ x s l f # y 4 A / b.'.9X9X9XY.g.z.n.e.n.n.P.OXwXwX2X!.8.I a * S * y u d < 2 q ",
"3 c 2 % 9 s 2 & K s H 4.i.oX%XwXwX9X-X-X2XqXtXwXoX!.y.@.A % M 4 y v q ! w d f u ",
"l 1 a q y l 0 i l j z K V +.u.v.P.oX%X%X[.`.b.p.9./ A c w i x l z c 7 2 f L 2 4 ",
"c g 9 u # y Z w p f f s s D * Y O./ o.=. ._ O.P r g % 2 Z w u d f u u 6 & u j X ",
"k c f < u p 4 y 1 # z i q ~ f 4 y i 5 ~ K g E k a 3 p f u a 1 # z d # E f s y y ",
"y 4 f d 5 g S p f x j 9 s 3 D 2 g 8 i M c 0 q 4 x d 3 l n f n D j w p u D 4 5 w ",
"3 z o i c y f m b % % u W x 3 * y # 7 # > N Q 6 : ! Q , ! , = . : , , , Q   - % "
};
