/* XPM */
static char *_0c7c2fb898f489c8103f936dd258a82bQfuQJW0hst7fkZN[] = {
/* columns rows colors chars-per-pixel */
"40 40 210 2 ",
"   c #342730",
".  c #352B33",
"X  c #382D35",
"o  c #302738",
"O  c #332C3A",
"+  c #2E3636",
"@  c #343639",
"#  c #3C343B",
"$  c #3E393E",
"%  c #433C3E",
"&  c #47433E",
"*  c #4C463E",
"=  c #6E643C",
"-  c #75693B",
";  c #3B3641",
":  c #3E3A42",
">  c #433D43",
",  c #2E4442",
"<  c #324443",
"1  c #364E4C",
"2  c #384948",
"3  c #3C4B4D",
"4  c #3B5351",
"5  c #3F685B",
"6  c #464045",
"7  c #494246",
"8  c #4C464C",
"9  c #464948",
"0  c #4E494D",
"q  c #524A40",
"w  c #524B4C",
"e  c #464F50",
"r  c #4D4B51",
"t  c #554E52",
"y  c #455153",
"u  c #4C5455",
"i  c #485858",
"p  c #4A5959",
"a  c #565053",
"s  c #5B5356",
"d  c #5F5658",
"f  c #525859",
"g  c #605758",
"h  c #645B5B",
"j  c #685F5E",
"k  c #726740",
"l  c #6A605F",
"z  c #44726A",
"x  c #53726D",
"c  c #497D73",
"v  c #577873",
"b  c #5A7A74",
"n  c #6E6462",
"m  c #726664",
"M  c #726864",
"N  c #647C79",
"B  c #80733E",
"V  c #548D4B",
"C  c #4D974A",
"Z  c #54954C",
"A  c #549C4E",
"S  c #5D9C4F",
"D  c #5D9651",
"F  c #549D51",
"G  c #5C9C52",
"H  c #649D4F",
"J  c #678E52",
"K  c #758D59",
"L  c #649551",
"P  c #6F9556",
"I  c #649D53",
"U  c #6B9D54",
"Y  c #729D55",
"T  c #749758",
"R  c #7B945D",
"E  c #4DA24E",
"W  c #57A34F",
"Q  c #55A152",
"!  c #5DA353",
"~  c #5DA954",
"^  c #5BAA58",
"/  c #63A354",
"(  c #6BA255",
")  c #63AA55",
"_  c #6BAA57",
"`  c #65A45A",
"'  c #6BA45A",
"]  c #65AC5B",
"[  c #6CAB5B",
"{  c #72A456",
"}  c #72A957",
"|  c #7BAA56",
" . c #73A55A",
".. c #7AA45A",
"X. c #74AC5C",
"o. c #7BAC5D",
"O. c #63B056",
"+. c #6AB15B",
"@. c #73B15C",
"#. c #7BB25E",
"$. c #4B8B7A",
"%. c #5A857B",
"&. c #7B9B64",
"*. c #5CA562",
"=. c #5CB378",
"-. c #65AB66",
";. c #6CAB62",
":. c #7DA563",
">. c #74AD62",
",. c #66B46A",
"<. c #69B16D",
"1. c #75B362",
"2. c #7BB465",
"3. c #66B779",
"4. c #6CB579",
"5. c #70BC7F",
"6. c #948637",
"7. c #988737",
"8. c #9A8A36",
"9. c #A69735",
"0. c #B4A233",
"q. c #DDCA2D",
"w. c #E0CB2D",
"e. c #E9D52B",
"r. c #F3E128",
"t. c #83AC5E",
"y. c #849A62",
"u. c #82B062",
"i. c #528D80",
"p. c #4F9282",
"a. c #5B9084",
"s. c #569588",
"d. c #539B8A",
"f. c #5A9B8C",
"g. c #679489",
"h. c #63998C",
"j. c #6E9990",
"k. c #759B94",
"l. c #789B93",
"z. c #5AB292",
"x. c #6BBC81",
"c. c #69B189",
"v. c #64B888",
"b. c #79A59B",
"n. c #66B39E",
"m. c #55B7A2",
"M. c #69B7A2",
"N. c #7CBCAC",
"B. c #5FC18B",
"V. c #6BC083",
"C. c #6BC28F",
"Z. c #75C18A",
"A. c #68C696",
"S. c #6DCA9A",
"D. c #77C796",
"F. c #75D29F",
"G. c #6DCBAC",
"H. c #73CEA5",
"J. c #6AD4A7",
"K. c #6DD1AB",
"L. c #75D3AB",
"P. c #6CDCBF",
"I. c #78D6B5",
"U. c #7DDCBB",
"Y. c #6DDFC1",
"T. c #7CDEC2",
"R. c #7AE3C7",
"E. c #81A39B",
"W. c #8CA19E",
"Q. c #89ABA4",
"!. c #86BBAE",
"~. c #93BEB4",
"^. c #85C8B7",
"/. c #9BC5BB",
"(. c #9AC9BC",
"). c #85D8B6",
"_. c #81D5BD",
"`. c #A1C3BB",
"'. c #84D8C1",
"]. c #8CDCC6",
"[. c #94D6C3",
"{. c #97DBC9",
"}. c #A4CAC1",
"|. c #A3DED0",
" X c #ACDED1",
".X c #B0DCD0",
"XX c #82E2C5",
"oX c #86E6CB",
"OX c #8EE3CA",
"+X c #93E5CE",
"@X c #99E3CD",
"#X c #8CE7D1",
"$X c #9DE5D2",
"%X c #9CE9D3",
"&X c #A7E6D4",
"*X c #AAE2D3",
"=X c #A3EAD7",
"-X c #A3EBD9",
";X c #ABEDDC",
":X c #B7E4D9",
">X c #B3ECDC",
",X c #BAEBDE",
"<X c #B0F0DF",
"1X c #BCEEE3",
"2X c #B5F1E1",
"3X c #BBF1E3",
"4X c #C1E8DC",
"5X c #C6EEE3",
"6X c #C4F2E5",
"7X c #C8F2E5",
/* pixels */
" . .| I ) [  .o.o.' ' X.D L [ ~ G } } [ _ /  . .| I ) [  . .o. .' X.D L _ ) F Y ",
"I { Y ..U _ { { 2.X.+.) ' U ` ;.F U | } t.{ I Y Y  .U _  .{ #.>.+./ ' ' / ;.! I ",
"I } P ( / G I ( { +.! S ! ) } [ ;.^ ' 1.o.;.` _ P Y / G G ( { +.~ I ! ) [ [ [ G ",
" .` / I F A Q D G F D / [ <.V.S.L.).).).).).H.A.4.-.S A Q D I F A / ( ( _  .[ X.",
"{ ) ! S D ] [ G ( ( o.3.A.I.OX-X;X2X1X3X3X<X;X%XXXJ.v.,.;./ U I { / W ( { ( ) X.",
") D G ` / '  .;.) ,.D.I.#X1X6X1X*X[.].[.].|. X:X1X<XOXI.Z.;.) X.| C C  .>.U ) ( ",
"[ ' I Y [ ! X.[ 3.L.+X,X5X|.].G.n.s.s.s.g.f.f.M.^.*X,X;XXXS.,.X.y.( I T t.| ..I ",
" .~ ! { [ +.1.V.U.-X6X,X^.m.h.g.b u y y e y u v s.d.N.:X,X%XK.<.o.2._ U o.( X.@.",
"( ~ C S U [ 3._.;X4X[.n.f.N u e r t a t a t a r e p v d.~..X@XK.3.{ ] / ( ! ) ` ",
"S ) Q A S 3.U.>X4X^.p.x u 0 t t s g h h h h d s t t e y z k.`.@XH.-.S / H H ( { ",
"I U ( } >.J.-X:XN.%.u r t a a d h n m m m n j h d a t t r 4 N `.].A.^ / U Y o.u.",
"#.U ' u.D.+X:X!.c f t a a a d j m n M M M M m m j s s t a t 9 N ~.I.3._ / H U @.",
"o.>.' <.I.&X/.c u t a t a g j m m M m m M m m M m j d a t s t u N N.n.>.) ! / / ",
"Y { ! v.OX}.v u t t t t a h m m m m m M m m M m m m g a a t t t u N M.4._ ;.] Y ",
" .P -.K.{.E.4 r t t t t s h n m M M m M m m m m m m g a t t w t 0 f s.c.` >.( I ",
"t.} =.)./.b 9 0 8 w 8 t t d j m M M m m m m m m m h d t t 8 8 8 0 r v c.*.Y [ A ",
"{ ' C.'.Q.p 7 8 8 0 w t t t d l m m m m m m m n j s a a t t 8 > w w u i.4.( I ) ",
"/ ' D.{.b.4 > 7 7 7 7 8 r r t s h l m m m m l h s t r 0 8 > > 8 7 8 3 a.x.I U ~ ",
"T X.S.|.b.1 : > > 7 > 7 w q w a t g h h h h d s t t w q 0 > > > > > 3 g.3./ I A ",
"_ ;.S.*Xb.1 # > > > 6 = 6.6.- w 0 t t t a a t > 0 B 7.7.k > > > > > 3 a.c.{ I ( ",
") ^ H.*Xb.1 : > > ; & 8.e.e.9.q : t t 0 0 0 8 > q 0.r.e.7.> > % > $ 3 g.x.H ( | ",
"_ [ ).{.b.1 : > : ; * 8.w.q.8.* ; > > > > > > ; * 9.e.q.B % # > > : 3 g.x.! ! ( ",
"{ { x.{.b.1 # # # # % = 7.7.- % ; # # # > % # ; % B 8.7.= # # # $ # 3 $.3.[ F I ",
"H { c._.Q.4 # # % # # # : # # # ; # # # % # # X % % # # > # # # # $ y p.<.X._ D ",
"' ( <.I./.b ; ; # # # X O O O X # # # X # # # X # O o o # # # X ; : x z.[ { X.' ",
"..) ^ A.{.Q.4 O X X . X X X X X X X X X X X .   X X X X X X . X O y f.v.'  .) 2.",
"( S / x.T.}.b 2 X X     X .     .       X .       X     . X   . : %.z.<.| I ^ ` ",
"] / L -.G.&X/.$.4 :     . .       X     X       X       O O @ 3 N N.v...t. .{ Y ",
" .O.H  .5.R.>X(.d.x 6 +     . .                 . . o . X < z E.^.I.1.U o.{ o.} ",
"{ ~ E / ' S.+X6X&Xm.v y < , , + . . .   . .   + + < 2 9 4 c ~.:X_.x.+./ { ! [ [ ",
"G ) E Z L -.H.%X6X$Xm.f.l.l.%.5 2 , 2 2 2 , , 2 x j.k.p.f.`.1XOXC.' / ( U G ) I ",
"S ( ( / S ) ,.S.%X7X,XR.P.@X X/.b.g.b.W.j.g.j.E.(.].P.OX4X,XOXC.>._ W I I U o.#.",
"X.H { t.t.@.' *.S.#X2X6X-XY.XX+X%X>X>X>X&X>X@XXXT.OX>X6X;XT.v.-. .' ] ) ( I ..#.",
"2. .[ { [ I / U ;.z.T.%X3X6X2X@XXXR.XXP.oXoX#X;X6X6X2X+XK.3.` ! ' ! ` ' ) G I / ",
"Y { I F ! ` G I @.' 3.F.U.-X<X6X7X2X<X<X2X3X7X6X;X#XI.S.-.I o.( / O.! ..) ] ] ( ",
" .T / / I { ~ ) X.} ..@.=.A.I.XX+X=X>X;X=X%XOX_.H.B.,.} ) ^ X.}  .X.Q U ( 2.' U ",
"o.{ / / S / ;.^ ( _ [ _ _ T *.4.V.v.D.!.C.C.Z.<.] ' G / [ ] I ' X.' ' T I ( { C ",
"|  .' I ( ' ' / U I  ./ / o.} _ / ! { u.#.{ t.} ( I / _ ' / U I { ) I t.;.' / ! ",
"/ ( [ _ {  .[ _ [  .{ / `  .>.U U ~ ~ @.| / / ( [ +.( { ;._ [ X.} ) ) { X.I P ~ ",
"Y  .F ) | ( [ X.+.Q F { 2. .U ! ( ! E S K &.&.R P y.y.R :.R J V J K K K y.J L G "
};
