/* XPM */
static char *c72b713fc96c46caf81cd03528d45c402z9UuAmpkVcq0YYT[] = {
/* columns rows colors chars-per-pixel */
"40 40 181 2 ",
"   c #34272F",
".  c #2E2B31",
"X  c #342630",
"o  c #342A32",
"O  c #392E36",
"+  c #332D3D",
"@  c #382E38",
"#  c #2C3432",
"$  c #2F3934",
"%  c #333634",
"&  c #313D35",
"*  c #36363A",
"=  c #3B333B",
"-  c #373E3D",
";  c #3C3B3F",
":  c #40373E",
">  c #423A3D",
",  c #254534",
"<  c #2C4535",
"1  c #274935",
"2  c #2C4B37",
"3  c #2F4338",
"4  c #2D4D38",
"5  c #36413B",
"6  c #344C39",
"7  c #2D5037",
"8  c #375B3B",
"9  c #3C633E",
"0  c #38683E",
"q  c #4D463F",
"w  c #5C543E",
"e  c #64593C",
"r  c #685E3C",
"t  c #756A3D",
"y  c #7F733F",
"u  c #363341",
"i  c #3E3B41",
"p  c #433D43",
"a  c #453F4B",
"s  c #3E5D41",
"d  c #3D6342",
"f  c #3E6C42",
"g  c #4A4345",
"h  c #434D47",
"j  c #474248",
"k  c #4C454B",
"l  c #454C49",
"z  c #4D494C",
"x  c #514B4F",
"c  c #415C41",
"v  c #4A5D42",
"b  c #5F5644",
"n  c #5A524C",
"m  c #4C4651",
"M  c #554E52",
"N  c #575053",
"B  c #5A5356",
"V  c #5E5658",
"C  c #655C41",
"Z  c #605658",
"A  c #665D5D",
"S  c #695F5E",
"D  c #426543",
"F  c #486445",
"G  c #446C43",
"H  c #4B6A43",
"J  c #556D48",
"K  c #497446",
"L  c #4C7249",
"P  c #537747",
"I  c #607F4B",
"U  c #6D6361",
"Y  c #726764",
"T  c #726864",
"R  c #82773C",
"E  c #438E47",
"W  c #4C8847",
"Q  c #4D8649",
"!  c #4C8A4A",
"~  c #5A854C",
"^  c #538C4B",
"/  c #5C8D4C",
"(  c #459546",
")  c #4C9346",
"_  c #479349",
"`  c #4B934A",
"'  c #4D9D4D",
"]  c #54934C",
"[  c #5A944D",
"{  c #549B4D",
"}  c #5B9B4E",
"|  c #529250",
" . c #5C9550",
".. c #559C51",
"X. c #5C9C52",
"o. c #61854D",
"O. c #658D4F",
"+. c #65934F",
"@. c #629B4E",
"#. c #6A9E4F",
"$. c #698C54",
"%. c #728855",
"&. c #788C5B",
"*. c #639551",
"=. c #6D9451",
"-. c #639C53",
";. c #6B9C54",
":. c #659D59",
">. c #6C9E59",
",. c #759451",
"<. c #729E55",
"1. c #7B9B57",
"2. c #7C955E",
"3. c #739E59",
"4. c #789E5A",
"5. c #4DA24E",
"6. c #4AA94E",
"7. c #55A14E",
"8. c #5BA24E",
"9. c #54AA4E",
"0. c #54A252",
"q. c #5CA353",
"w. c #57AC51",
"e. c #5BAB54",
"r. c #5FA259",
"t. c #5FAC59",
"y. c #61A54F",
"u. c #63A354",
"i. c #6BA355",
"p. c #63AA55",
"a. c #6CAA56",
"s. c #65A45A",
"d. c #6CA45A",
"f. c #65AC5A",
"g. c #6CAC5B",
"h. c #72A356",
"j. c #7BA157",
"k. c #72A954",
"l. c #7BAA57",
"z. c #72A659",
"x. c #75A559",
"c. c #74A45A",
"v. c #79A45B",
"b. c #75AD5B",
"n. c #73AB5C",
"m. c #79A95E",
"M. c #7CAC5C",
"N. c #62B455",
"B. c #6AB356",
"V. c #65B15C",
"C. c #6BB25C",
"Z. c #73B25C",
"A. c #7BB35D",
"S. c #7B9B64",
"D. c #6EAF60",
"F. c #78A660",
"G. c #73AE61",
"H. c #7CAE60",
"J. c #73B363",
"K. c #7BB362",
"L. c #7FB860",
"P. c #AC9935",
"I. c #B3A035",
"U. c #BAA633",
"Y. c #C4AF32",
"T. c #C4B231",
"R. c #CBB830",
"E. c #D7C52D",
"W. c #D7C030",
"Q. c #E2C92F",
"!. c #EAD32C",
"~. c #F7E328",
"^. c #82925F",
"/. c #81A65D",
"(. c #83AC5D",
"). c #81B15F",
"_. c #88B55F",
"`. c #839C64",
"'. c #82A563",
"]. c #84AC62",
"[. c #83B362",
/* pixels */
"m.z.M.-.p.C.j.b.m.d.s.J.[ *.f.u.{ c.a.f.a.u.m.z.M.@.p.C.j.b.m.c.s.K. .-.g.u.0.<.",
"-.<.;.v.;.a.z.;.A.b.C.u.z.;.u.J...i.(.h.[.n.-.<.;.m.;.a.n.;.A.m.B.u.d.d.X.J.} -.",
"X.b.=.h.q.-.u.h.z.C.q.@.q.p.b.g.f.-.i.A.l.;.X.b.=.i.q.:.-.i.z.V.u.-.q.p.b.f.g.*.",
"c.s.u.-.X.] 5.[ -.' } u.d.u.f.c.g.g.7.q.*.].c.s.u.=.} ] 0.] -.' { r.s.i.f.z.d.J.",
"c.i.q.8. .f.D.X.3.-.l.u.q.>.z.i.u.;.! ! X.[ O.X.X.q.] s.g...4.-.l.u.0.i.h.a.s.b.",
"p.` u.i.u.d.c.G.{ A.c.( _ c.>.^ ] D c D d c d d !  ./ D.z.n.0.A.j.) ( m.M.-.p.u.",
"g.g.+.d.d.q.n.f.t.M.1.>./ o.J F v l l l z l l l s c K Q ;.a.e.b.1.c.;.<._.v.j.;.",
"v.p.8.n.g.V.n.a.8.u.M.>.G s l l z M B A U S B M l z l d L *.0.-.).A.g.*.M.-.b.C.",
"i.e.' } i.n.u.i.{ 6.] F l k M M B S S Y Y Y S S B M M l h G Q 6.p.c.f.8.h.0.C.u.",
"] f.{ ] [ } u.u.7.u.D h M N M B S Y T Y Y Y Y Y A B M M M l 0 q.i.d.{ :.;.-.:.h.",
"-.=.a.n.i.B.d.] h.O.6 M N M N A Y Y Y Y Y Y Y Y Y A M M B z 6 O.c.g.0.u.;.<.[.[.",
"_.@.a./.[.a.s.@.] 9 - M M M B U Y Y Y Y Y Y Y Y Y U B M N x 5 D :.>.C.q.y.#.=.C.",
"b.J.d.u.q.X.:.-.-., i x M M B T Y Y Y Y Y Y Y Y Y U N M N x i 4 :.w.X.v.f.X.s.q.",
";.v.X.7.u.n.} q.h., p x N M N S Y Y Y Y Y Y Y Y Y S N M M M ; 2 O.N.0.v.p.J.f.3.",
"v.=.d.d.X.c.V.p.~ 3 ; z M N N Z Y Y Y Y Y Y Y Y U Z N N M z ; 6 ~ v.q.;.u.b.;.*.",
"l.M.7.;.} q.d.0.8 - p g z M M N S Y Y Y Y Y Y Y S N M M z j p - d X.i.'.X.;.g.' ",
"z.a.G.-.d.n.c.X.< i > a a z z M V A U Y Y Y S S B N B k g g p p 6 8.7.v.K.i.#.p.",
"u.i.u.C.<.;.D.u.2 > p p t R R n M B Z S U S Z B M n R R t a ; ; 2 } n.i.m.X.<.9.",
",.M...p.A.i.a.g.1 * u b Y.E.Y.e m M N B B B N N k C R.R.U.g + * 4 ;.(.v.X.s.-.{ ",
"a.f.s.q.n.d.q.{ , @ + w Q.~.Q.b a M M M M M M M a r !.~.E.q + O 6 [ s.d.X.M.X.z.",
"p.q.D.d.v.;.7.-., o + q I.Y.U.C a k k x x x k z a w U.T.P.q + . 6 ! 5.J.d.-.p.M.",
"z.d.A.r.f.a.z.h.< o @ > e r r > a j g p g p g a p q e r e : O o 4 ;.! ;.C.8.e.;.",
"i.j.<.z.#.C.c.=.2 . O O = u = ; > p ; = : = : p ; = = = = = O . 4 u.i.=.u.G.{ ;.",
"X.c.O.n.u.u.i.;.4   O O X O O @ O = O O O O O @ O O o @ @ O o o 4 / t.f.g.g.g.[ ",
"i.f.;.*.} X.' / , o   o X @ o o o @ X X X O o O X X X O o o X o 1 [ u.i.g.z.g.b.",
"v.i.q.q.X.0.D.] <     X   @ X X X @ X X   X X O X X X O X X X o 6 -.q.i.i.c.u.A.",
"i.8.u.u.X.G.d.s.9 #   X   o X X X O X X X X X X X X X O X   o # H ) ' d.b.-.e.i.",
"V.X.*.>.d.-.c.g.( 5 o X X X X X X   X X X X X X X X X X X X . 6 o.[ [ c.].v.z.:.",
"v.B.@.b.g.p.Z.p.0.G %   X X X   X X X     X X X X X     X o % G v.K.z.;.(.c./.g.",
"d.9.5.y.i.Z.d.g.) _ D % X X X X X X X X X X X X X       X & 8 E a.c.f.} n.{ C.f.",
"} p.{ ^ @.} u.u.{ w.^ F & X X X   X X X X X X X X X     3 G W w.-.d.u.y.;.} u.;.",
"X.;.p.i.} t.s.X.z.c.c.X.0 & # # X X X X X X X     # # < K ^ i.z.b.g.' ;.#.;.H.A.",
"A.[ n./._.b.s.] @.i.i.d.r.K D 9 5 % # # # # % # & F P P -.] @.;.i.d.V.p.;.u.l.A.",
"[.n.d.n.g.} s.;.-.0.b.0.u.-.0.~ D f f 0 G G L L P *.i.] X.;.X.0.b.r.u.d.f.X.+.q.",
";.m.-.} 8.s.-.X.A.-.u.N.X.'.q.f.r.*._ / u.-./ ;. .{ 0.i.-.[ ).u.u.N.X.'.t.f.g.i.",
"z.,.s.q.-.c.e.f.b.z.j.M.5.d.g.A.-.3.J.j.{ 0.z.,.r.s.X.v.e.p.b.z.l.M.5.:.s.L.:.>.",
"m.h.q.i.} u.g.e.i.f.g.d.i.v.| c.z.( b.[.} 7.M.z.q.g.X.-.C.e.i.f.g.i.d.4. .i.n.( ",
"l.l.s.;.i.g.>.q.=.@.b.u.X.].g.i.q.u.<.(.H.c.l.l.s.=.i.g.>.r.=.} c.f.} (.n.i.u.u.",
"u.-.g.p.<.h.n.d.b.G.k.y.d.;.K.-.h.9.p.Z.m.q.q.:.g.N.<.c.C.d.g.H.k.y.f.i.J.u.1.w.",
";.M.' f.M.u.g.Z.N.....a.).c.:.q.i.X.6.} %.S.`.2.$.'.`.&.'.S.O.Q $.&.&.&.^.I *.X."
};
