/* XPM */
static char *_7259d09d0bb4ade93b6047e43915ee31ehrPoCP1GTXbKET[] = {
/* columns rows colors chars-per-pixel */
"40 40 181 2 ",
"   c #33272F",
".  c #2E2F31",
"X  c #342630",
"o  c #362A33",
"O  c #392E37",
"+  c #342D3C",
"@  c #392F38",
"#  c #2E3232",
"$  c #263D35",
"%  c #2B3F34",
"&  c #313334",
"*  c #393037",
"=  c #35343A",
"-  c #3B333B",
";  c #333C3A",
":  c #3E393F",
">  c #413A3F",
",  c #264135",
"<  c #294236",
"1  c #2B4438",
"2  c #2E483A",
"3  c #304837",
"4  c #3A4D39",
"5  c #35553A",
"6  c #34543B",
"7  c #335C3B",
"8  c #3B5C3D",
"9  c #37673E",
"0  c #3A613E",
"q  c #594E3E",
"w  c #405F3F",
"e  c #5E523D",
"r  c #62573C",
"t  c #655A3B",
"y  c #40633F",
"u  c #776A3D",
"i  c #2D2942",
"p  c #342E41",
"a  c #343042",
"s  c #3C3742",
"d  c #3D3942",
"f  c #423C42",
"g  c #3E5241",
"h  c #3C5A40",
"j  c #3D6542",
"k  c #3E6941",
"l  c #454145",
"z  c #494247",
"x  c #434A46",
"c  c #4C454B",
"v  c #454A48",
"b  c #4C4B4C",
"n  c #514A4E",
"m  c #425343",
"M  c #435D42",
"N  c #5B5349",
"B  c #4A4651",
"V  c #554E52",
"C  c #575054",
"Z  c #5A5356",
"A  c #5F5658",
"S  c #605759",
"D  c #635A5B",
"F  c #695F5E",
"G  c #436341",
"H  c #4A6343",
"J  c #476A42",
"K  c #4A7547",
"L  c #457C45",
"P  c #557D4A",
"I  c #587849",
"U  c #6B6242",
"Y  c #6A605F",
"T  c #6E6461",
"R  c #726764",
"E  c #726864",
"W  c #81743A",
"Q  c #4C8C47",
"!  c #4B8249",
"~  c #54864B",
"^  c #5A844B",
"/  c #538C4C",
"(  c #5B8B4D",
")  c #459546",
"_  c #4C9146",
"`  c #429844",
"'  c #479648",
"]  c #4B964A",
"[  c #4D9D4D",
"{  c #519247",
"}  c #54944D",
"|  c #5B954E",
" . c #549B4D",
".. c #5B9B4E",
"X. c #5B9551",
"o. c #559C51",
"O. c #5C9C52",
"+. c #6C8D4F",
"@. c #63934E",
"#. c #629B4E",
"$. c #69984F",
"%. c #628B51",
"&. c #6B8C56",
"*. c #728855",
"=. c #788C5B",
"-. c #639552",
";. c #6D9452",
":. c #639C52",
">. c #6B9C53",
",. c #679C59",
"<. c #6D9E59",
"1. c #769452",
"2. c #729E55",
"3. c #7B9B57",
"4. c #77915B",
"5. c #7C955E",
"6. c #739E5A",
"7. c #789E5A",
"8. c #4CA24D",
"9. c #4BAA4E",
"0. c #55A14E",
"q. c #5BA34E",
"w. c #54AA4E",
"e. c #54A352",
"r. c #5DA353",
"t. c #5BAB54",
"y. c #5EAB59",
"u. c #5BB253",
"i. c #61A54F",
"p. c #63A354",
"a. c #6CA356",
"s. c #63AA55",
"d. c #6BAB56",
"f. c #65A459",
"g. c #6CA45A",
"h. c #65AC5A",
"j. c #6CAC5B",
"k. c #72A356",
"l. c #7AA356",
"z. c #73A955",
"x. c #7BAA57",
"c. c #72A659",
"v. c #75A659",
"b. c #74A45A",
"n. c #7AA45A",
"m. c #75AD5B",
"M. c #74AB5C",
"N. c #76A95E",
"B. c #75AC5C",
"V. c #7CAC5B",
"C. c #79A95E",
"Z. c #79AD5D",
"A. c #62B455",
"S. c #65B25C",
"D. c #6BB25B",
"F. c #73B15D",
"G. c #7BB35D",
"H. c #7B9B64",
"J. c #6EAE61",
"K. c #74AE60",
"L. c #7CAE60",
"P. c #73B263",
"I. c #7CB361",
"U. c #BDA933",
"Y. c #D2BE2E",
"T. c #C1AE30",
"R. c #CEB830",
"E. c #D0BA30",
"W. c #DAC52D",
"Q. c #EFD72C",
"!. c #F4DE29",
"~. c #FAE428",
"^. c #82925F",
"/. c #81A75B",
"(. c #84AC5D",
"). c #82B05F",
"_. c #88B55F",
"`. c #839C64",
"'. c #82A563",
"]. c #84AC62",
"[. c #82B362",
/* pixels */
"C.c.(...s.F.k.m.C.g.a.P.| @.S.p.O.k.d.h.d.r.b.z.(.O.p.D.b.m.V.7.h.I.X.@.g.s.e.k.",
":.2.>.C.>.d.c.2.I.C.S.p.g.<.r.P. .a.(.k._.m.:.k.2.b.>.d.b.g.I.M.D.r.g.g.r.P.O.-.",
"O.m.;.k.r.:.:.a.c.S.r.#.r.s.F.g.S.-.a.G.x.<.:.F.;.a.O.:.r.a.b.S.r.-.r.t.m.g.S.#.",
"c.f.p.-.O.] e.| #.[ O.p.a.a.h.b.g.M.e.t.-.[.b.f.:.>.O. .e.| O. .X.p.f.a.s.n.g.P.",
"b.g...q.X.h.J.O.7.:.x.p.r.a.k.a.s.m.o.o.j.j.l.g.O.r.X.h.J.o.7.:.x.a.r.a.k.a.i.C.",
"s.{ p.f.p.g.b.K...F.k.) ] M.Z.:.s.X.X.a.p.X.0.{ r.g.O.j.k.M.o.F.k.) ] M.L.:.s.f.",
"j.g.-.g.g.r.M.d.t.G.3.g.:.6.n.7.+.G 7 8 M 8 G K ^ -.g...F.d.t.G.3.b.-.2.(.(.n.>.",
"n.u.q.m.d.S.F.g.q.:.[.L.:.^ J 6 M v x x x v v x 8 j ~ r.M.g.q.:.).I.d.$.C.p.Z.D.",
"a.t.[ ..k.d.f.a.{ 9.p.%.j h v x x V C C V C C b x x m G ! -.{ 9.t.b.s.q.b.e.S.f.",
"} h.0.} .. .p.p.0...G h g b V V V A D F F F D Z V V b x g j L r.a.g.o.>.>...:.k.",
"p.;.d.b.>.D.g.] ;.H v v V V V Z F T R R R R R F D Z V V b x M I <.m.e.f.>.2._.[.",
"_.-.d./.[.k.f./ 8 x V Z V Z Z F E T R R R R R R T D Z V C V b m P -.S.p.p.#.$.F.",
"m.P.g.f.r...( M v V C V V Z F R E R R R R R R R R R S V V Z V b M L X.C.h.O.:.r.",
">.l.O.0.p.:.7 v V V V V V Z R R R E R E E R E R R E D C V V V V b M Q b.s.P.h.n.",
"n.;.g.g.O.( 2 n b V c V V Z Y E R R R R R R R R R R S V V n n n n x L -.f.M.,...",
"V.x.0.>.| 0 x c n n n V Z Z S R E R E E R R R R R T Z Z V V c c V b h &.O.a.m.] ",
"z.a.m.:.@.2 l b z n c n V C Z S T R R R R R R R F Z V C V V B c n c < %.K.a.#.s.",
"r.a.s.D.;., d l f c f l B B B Z A D T R R R F S Z V B B f f f f z f < ^ b.O.7.t.",
"3.n.o.p.a., : f f c f l U U U n V C A A A S Z V n N U U N f f f z z < %.O.h.:. .",
"g.h.f.r.>.< d f f l a q T.Y.U.l f b V V V V V c f U Y.E.W s f f f f < ~ X.x.O.c.",
"s.t.J.g.;., d f > f i e Q.~.W.> p f n c c c c f + W ~.!.W a f f f d , X.g.>.s.x.",
"M.g.G.O.r.1 - f > > + q R.W.T.f p f f f f f f s p u W.Y.W f @ > d : $ P D.0.r.a.",
"g.k.k.b.| 1 * - - > + > r t r : p - @ - > > @ > @ z t t c @ - > - : , P r.K. .>.",
"O.k.&.m.| 5 = - - : * - - a @ * > f > @ @ > @ @ - : + @ - f @ @ : - 6 | g.j.j.| ",
"a.g.>.-...L $ - O - O * O - O O O - @ @ O - @ @ O - O o @ @ @ @ - ; K O.j.z.g.j.",
"n.f.r...|  .j & o O o o o O o o o O o o o O o X o O o o O O o X & 8 / <.a.c.f.G.",
"d...p.p.O.J.-.h # = X X X O X X o O X X o O X X X O X X o O o # 4 k ] g.Z.#.t.a.",
"S.:.O.<.g.O.k.-.9 w &   X o X X X X X X X X X X X o X X o o 3 G I ( { n.[.n.c.,.",
"C.d.#.b.g.s.P.s.| ( H & . & . . X X X X X X X     . . # # 4 L ( 7.].g.$.V.b.V.g.",
"k.w.9.p.d.F.d.g.] 8...G 0 8 8 5 & . . . . . . . % 8 8 G 0 P _ 8.D.b.S...m. .D.j.",
"..s.[ { >...p.p. .u.r.%.{ / ( ! 8 8 G 8 6 8 5 8 9 L ~ ~ } X. .u.p.a.p.i.<.O.p.:.",
"| <.a.p...t.f.O.k.b.b.d.] >.-.;.<.;.( / } ../ ( #.p.| t.a.O.a.c.C.d.[ $.>.>.I.(.",
"F.@.z.(.(.F.g. .#.>.g.g.S.p.a.p.b.I.2.:.` p.G.@.g.(.(.m.g. ...>.a.g.S.s.f.p.l.G.",
"[.m.j.g.j...p.,.O.r.m.r.p.g.s.-.O.r.r.r.p.g.I.m.g.k.F...p.<.:.0.M.r.p.g.h.:.#.r.",
",.M.:. .r.f.-.O.).:.a.u.O.].t.j.S.a.0.-.j.j.:.C.:. .q.a.-...G.a.p.A.O.L.t.h.j.a.",
"n.1.p.p.:.M.t.s.m.d.l.m.8.,.d.I.-.b.G.l.o.r.c.1.f.y.:.b.r.s.m.g.n.V.[ ,.g.I.:.<.",
"L.2.p.a. .f.j.t.a.j.j.a.g.n.X.a.c.' m.[... .Z.k.r.g. .:.D.y.a.h.j.a.g.7.X.a.m.` ",
"x.x.f.;.a.g.<.p.>...b.s.O.].j.g.r.p.<.(.G.b.V.l.g.-.a.j.<.p.;.#.n.h.q.].j.a.p.p.",
"p.:.M.S.2.k.P.d.m.M.z.i.g.<.I.:.2.w.t.G.C.q.O.p.j.S.>.b.J.g.D.Z.d.q.g.a.L.f.3.t.",
",.x.[ s.x.p.j.F.S.[ o.a.).K.:.O.a.r.8...*.H.`.`.;.`.`.4.'.5.%.Q +.=.=.=.`.I @.O."
};
