/* XPM */
static char *_ed815631fde4f47f9691668317faaa2oMmc04P0xl2OmtrZ[] = {
/* columns rows colors chars-per-pixel */
"40 40 171 2 ",
"   c #1E3B35",
".  c #35262F",
"X  c #2D2D31",
"o  c #2E2639",
"O  c #342630",
"+  c #342A32",
"@  c #392D36",
"#  c #342C3D",
"$  c #392F38",
"%  c #2D3532",
"&  c #243C34",
"*  c #2C3D34",
"=  c #313333",
"-  c #323A35",
";  c #37323A",
":  c #3C343B",
">  c #323D39",
",  c #3E393E",
"<  c #41393E",
"1  c #254037",
"2  c #2B4136",
"3  c #2E4439",
"4  c #2F4B3A",
"5  c #34443C",
"6  c #39453F",
"7  c #334C3B",
"8  c #384A3D",
"9  c #3C563C",
"0  c #325C3B",
"q  c #3A5D3D",
"w  c #3D633F",
"e  c #3B6A3E",
"r  c #41723F",
"t  c #7E713D",
"y  c #3F3C41",
"u  c #413B41",
"i  c #413C4C",
"p  c #3D4643",
"a  c #3D4B41",
"s  c #3C6741",
"d  c #3C6A40",
"f  c #464045",
"g  c #434A46",
"h  c #4B454A",
"j  c #4E4A4D",
"k  c #514B4E",
"l  c #544E52",
"z  c #584F54",
"x  c #575053",
"c  c #5A5255",
"v  c #5E5658",
"b  c #605758",
"n  c #645B5B",
"m  c #695F5F",
"M  c #426342",
"N  c #426E45",
"B  c #4A6A43",
"V  c #447444",
"C  c #4C7546",
"Z  c #447A44",
"A  c #4A7D45",
"S  c #4E7049",
"D  c #4C7D49",
"F  c #547B4A",
"G  c #587F4A",
"H  c #607F4B",
"J  c #6A605F",
"K  c #6E6462",
"L  c #726764",
"P  c #736864",
"I  c #438747",
"U  c #4A8346",
"Y  c #408844",
"T  c #4C8947",
"R  c #4E8E4A",
"E  c #51874B",
"W  c #5B834E",
"Q  c #538F4F",
"!  c #5C8D4D",
"~  c #449446",
"^  c #499145",
"/  c #479648",
"(  c #4D914C",
")  c #4D9D4D",
"_  c #53934D",
"`  c #5B944D",
"'  c #549B4C",
"]  c #5C9B4E",
"[  c #5A8750",
"{  c #578950",
"}  c #5B8D53",
"|  c #5B9551",
" . c #559C51",
".. c #5C9C52",
"X. c #638A4D",
"o. c #64934E",
"O. c #629B4E",
"+. c #6A9E4F",
"@. c #698954",
"#. c #6D8E58",
"$. c #728855",
"%. c #788C5B",
"&. c #629651",
"*. c #6C9552",
"=. c #639C53",
"-. c #6B9C53",
";. c #679C59",
":. c #6E9E59",
">. c #749553",
",. c #739D55",
"<. c #7A9A57",
"1. c #7C955E",
"2. c #729D59",
"3. c #789E5A",
"4. c #4DA34D",
"5. c #4BAB4E",
"6. c #55A14E",
"7. c #5BA34F",
"8. c #54AA4E",
"9. c #54A352",
"0. c #5DA353",
"q. c #55A951",
"w. c #5BAA54",
"e. c #5FAC59",
"r. c #5BB253",
"t. c #62A04F",
"y. c #60A94F",
"u. c #63A355",
"i. c #6CA356",
"p. c #63AA56",
"a. c #6CAA56",
"s. c #65A459",
"d. c #6CA45A",
"f. c #65AC5A",
"g. c #6CAB5B",
"h. c #72A456",
"j. c #7AA456",
"k. c #72A954",
"l. c #7BAA57",
"z. c #72A659",
"x. c #74A658",
"c. c #74A45A",
"v. c #79A55B",
"b. c #74AB5B",
"n. c #75AD5B",
"m. c #76AD5D",
"M. c #7EAE58",
"N. c #79A95E",
"B. c #7BAC5C",
"V. c #62B455",
"C. c #65B25C",
"Z. c #6CB25B",
"A. c #72B25D",
"S. c #7BB35D",
"D. c #7B9B64",
"F. c #6EAF60",
"G. c #73AE61",
"H. c #7CAE60",
"J. c #74B363",
"K. c #7CB361",
"L. c #AF9D35",
"P. c #B6A332",
"I. c #DCC92D",
"U. c #ECD62C",
"Y. c #80A65C",
"T. c #84AB5D",
"R. c #83B15E",
"E. c #839C64",
"W. c #82A563",
"Q. c #84AC62",
"!. c #82B362",
/* pixels */
"N.z.T...p.A.h.n.N.d.s.G.` o.g.0. .h.a.g.a.] v.k.R...p.Z.h.n.B.c.s.S.| o.g.u. .i.",
"=.,.*.N.-.a.z.,.K.n.Z.u.d.:.0.J. .i.M.:.R.n.=.-.-.v.-.a.c.*.K.H.Z.u.d.:.0.J...=.",
"..n.*.h...=.t.i.c.Z.0.=.w.p.n.g.g.! W o.X.G D } G i...;...h.c.Z.w.=.0.p.n.a.F.` ",
"z.s.u.&...) 9.` ] ) ..u.i.u.u.X.{ E 4 5 5 8 5 7 9 F U T 9._ ..) | 0.s.i.f.c.d.J.",
"c.a...7.| f.F...2.=.l.u.0.;.G 7 3 a l c l c c l j 5 2 N } R 2.;.l.u.0.d.z.i.u.n.",
"p._ u.u.u.d.c.G.7.A.h.^ I [ a k c v L L L L L L J c l g 8 S ( n.h.^ / z.B.=.f.u.",
"g.d.&.:.a...b.a.w.M.<.:.C g l b K L P P L L P P P K m c k g N i.<.c.-.h.Q.T.j.-.",
"j.r.0.b.a.C.J.a.7.u.R.d.7 j n K P P L L L L L L P P P J c l a V N.K.a.o.n.=.H.Z.",
"i.w.) ] i.k.u.i._ 5.p.F 6 x K L P L P L L L L L P P P K b l g d ' 2.f.7.c...f.u.",
"Q f.6._ ] ] u.s.6.p.| 4 l c L P L L L L L L L L P P L L n z k a C i.' -.=...-.h.",
"O.*.a.h.+.Z.a._ h.h.G 5 l v K P L P L P P L L L P L P K n c l p S s.9.u.-.,.R.!.",
"S.=.n.Y.!.i.s.] ` ! 7 k l c K P L L L P L L L L P P P K v l l p M } C.0.u.+.+.Z.",
"K.G.d.u.0...;.=.i.R 3 k x x v K P P L P L L L L L P K n l l l f 5 Z ..N.f...u.u.",
"-.j...' u.b.....S.! 3 h l l x m K K L L L L L L L K n x l l f u > V ' z.u.J.f.2.",
"v.*.a.f.| c.f.e.h.=.2 y j k x x c m K K L L L K m n c l k h y y 5 C 9.*.u.n.;.=.",
"M.v...-.0.0.g.w.-._ 1 y t t k l x x c m m m m n c l l l h u i y > V ;.W...i.a.) ",
"k.i.G.=.:.m.c.s.,.! & , U.I.u i x x x l z z z z z k k k h h u < > V ' B.K.s.+.p.",
"u.i.u.Z.,.i.F.a.g...  < U.U.< i k k k l k z k k k h u h u u u $ % V d.i.v...h.7.",
",.v. .w.S.i.a.A.p.Y & ; P.L.u i u h f h u k h i u u h u u u < @ % C v.j...u.;.' ",
"d.a.s.0.n.d.0.9.` | * @ < u u u u u u u u u h u u u u u u u $ + % N u.d...B...h.",
"e.9.F.d.j.*.9.i.*.{ 2 ; o # u u u u u u u u u u u u u u u : : @ - e ) A.d.=.p.n.",
"b.a.K.=.C.a.i.S.z.{ 3 + $ @ u u u u u u u u y u u u y u , @ + + 8 W ( -.Z.0.u.-.",
"d.,.h.c.=.A.c.:.K.:.d X + + $ < u u u u y u y u u u y $ $ + O % V s.d.*.u.G. .-.",
"..h.*.c.=.i.i.h.m.Z.' & + . . . , , , , : < : u u $ y $ @ O O * Z | 0.f.a.Z.g.` ",
":.g.-.*.' | ) ] =.9.( w X + O + : + $ : $ : ; ; $ $ @ . . O O 4 Z 0.u.i.g.z.g.a.",
"v.s.7.0...0.C.| -.' h._ * O . . + . + $ @ $ + $ @ $ O O . O % d -.u.0.i.i.n.i.S.",
"i.] u.0...F.n.d.;.n.l.^ 0 = + + . . O O . . O . O O O O + + 7 ! l.' ) d.n.=.w.u.",
"C...=.:.d.=.z.m.q.S.>.| T M = + O O O O . . O O O O O + = 9 I n.<.` ` c.T.v.z.;.",
"h.Z.O.b.g.w.J.p.w.h.T.!.i.W B = + + . O . O O O . + + = 9 E 0.i.T.!.d.*.T.z.Y.g.",
"i.8.8.O.i.J.f.z.' 4.Z.h.C.] *.0 = = O O . . O O + + % 9 E c.' 4.Z.z.f.] n.' Z.f.",
"..p.) Q =.] u.=.' r.u.i.7.i.-.R d 9 - % % % % X % * q A ..u.' r.0.:.u.u.-...s.-.",
"` d.a.u.] p.s.] h.c.c.a.) -.-.-.G.>.s q w w q r w Z ` w.i.] h.h.n.a.) +.-.-.l.S.",
"S.o.a.Y.T.n.d.' O.-.i.z.C.u.i.u.n.K.*...~ 0.n.` d.Y.T.n.s.' O.-.i.d.C.0.-.u.h.S.",
"K.m.b.h.g.] u.;...0.A...u.d.p.=.=.u.0.0.u.s.K.n.g.h.b.] u.-.=.9.b.0.s.z.f.=.&.u.",
"*.m.=.' 7.s...] K.u.O.V...Q.0.f.f.s.' &.b.g.;.v.u.' 0.s.=.` S.;.=.V...H.w.f.C.i.",
"h.>.s.0.=.m.0.f.n.h.v.B.4.;.g.K.=.2.K.l. .w.,.>.s.u...v.w.p.n.h.v.H.4.;.g.K.;.:.",
"H.c.u.i.' u.F.e.i.g.Z.i.d.3.| h.n.~ k.!.] ' n.h.0.i.] u.g.e.i.f.g.d.s.3.| h.n.~ ",
"l.l.s.o.i.g.:.0.*.] v.p...Q.g.s.u.u.,.T.S.z.Y.l.s.-.i.g.:.0.*...c.f.] Q.g.i.u.u.",
"u.=.m.f.,.h.m.a.b.G.k.7.i.d.K.=.,.8.p.A.N.0.0.=.a.C.i.h.F.a.g.H.k.y.a.i.B.;.,.q.",
"*.n.) f.n.i.g.A.C.9. .i.R.c.;.0.u.0.4.] $.D.E.1.#.E.E.%.W.1.X.T @.%.%.%.E.G o.=."
};
