/* XPM */
static char *ee1e5d2241864390c061c67aebbf7566XYW1L9YUDPyp3j2S[] = {
/* columns rows colors chars-per-pixel */
"40 40 182 2 ",
"   c #34262F",
".  c #2D2730",
"X  c #2D2930",
"o  c #28213A",
"O  c #342630",
"+  c #342A32",
"@  c #382E36",
"#  c #362C3D",
"$  c #3B2F38",
"%  c #2B3232",
"&  c #323837",
"*  c #353139",
"=  c #3C343B",
"-  c #37383E",
";  c #3C3A3E",
":  c #40373F",
">  c #40393F",
",  c #254434",
"<  c #2B4636",
"1  c #254C35",
"2  c #2B4B36",
"3  c #2D4E38",
"4  c #32433A",
"5  c #334D3A",
"6  c #3A4B3F",
"7  c #275F37",
"8  c #2D5439",
"9  c #2C5D3A",
"0  c #31533B",
"q  c #3B503D",
"w  c #325D3C",
"e  c #3A5C3E",
"r  c #3A663F",
"t  c #3C703D",
"y  c #445F3F",
"u  c #63583E",
"i  c #6E623E",
"p  c #1B1B42",
"a  c #272140",
"s  c #2E2A41",
"d  c #2D294E",
"f  c #312D4A",
"g  c #3C3642",
"h  c #3A3445",
"j  c #3D3A40",
"k  c #413B41",
"l  c #3E4644",
"z  c #3D4A42",
"x  c #3E6340",
"c  c #386B40",
"v  c #3C7144",
"b  c #484247",
"n  c #424947",
"m  c #42434B",
"M  c #4C454A",
"N  c #434849",
"B  c #4B4A4C",
"V  c #514A4E",
"C  c #554E52",
"Z  c #584F54",
"A  c #565053",
"S  c #5A5355",
"D  c #5F5659",
"F  c #605758",
"G  c #655C5C",
"H  c #685E5D",
"J  c #446142",
"K  c #436B41",
"L  c #447243",
"P  c #427A46",
"I  c #487D44",
"U  c #4B7748",
"Y  c #4A7E48",
"T  c #507544",
"R  c #6A615F",
"E  c #6C6261",
"W  c #726764",
"Q  c #736864",
"!  c #867739",
"~  c #8A7A3A",
"^  c #488746",
"/  c #4C8644",
"(  c #4D8A4A",
")  c #5A854B",
"_  c #5C8B4C",
"`  c #459546",
"'  c #499244",
"]  c #479648",
"[  c #499449",
"{  c #4D9D4D",
"}  c #54944D",
"|  c #5A954E",
" . c #549B4D",
".. c #5C9B4E",
"X. c #5C9551",
"o. c #559D51",
"O. c #5C9C52",
"+. c #61874F",
"@. c #658B4F",
"#. c #65934F",
"$. c #629A4D",
"%. c #6A9D4F",
"&. c #6B8C56",
"*. c #728855",
"=. c #788C5B",
"-. c #649552",
";. c #6C9452",
":. c #639C53",
">. c #6B9C54",
",. c #679C59",
"<. c #6D9E59",
"1. c #769452",
"2. c #729E55",
"3. c #7B9B57",
"4. c #7C955E",
"5. c #739E5A",
"6. c #789E5A",
"7. c #4CA34E",
"8. c #4BAA4E",
"9. c #55A14E",
"0. c #5BA34F",
"q. c #54AA4E",
"w. c #54A352",
"e. c #5CA353",
"r. c #5BAA53",
"t. c #5FAC59",
"y. c #62A04F",
"u. c #60A94F",
"i. c #63A354",
"p. c #6BA356",
"a. c #63AA55",
"s. c #6CAB56",
"d. c #65A459",
"f. c #6CA45A",
"g. c #65AC5A",
"h. c #6CAC5B",
"j. c #72A356",
"k. c #7BA256",
"l. c #72A954",
"z. c #7BAA57",
"x. c #71A259",
"c. c #75A258",
"v. c #72A659",
"b. c #75A659",
"n. c #74A55A",
"m. c #79A55B",
"M. c #73AB5B",
"N. c #75AD5B",
"B. c #76AA5D",
"V. c #75AD5C",
"C. c #7FAF59",
"Z. c #7BAB5C",
"A. c #79A95E",
"S. c #79AD5D",
"D. c #62B455",
"F. c #6BB456",
"G. c #66B25C",
"H. c #6BB25C",
"J. c #73B15C",
"K. c #7BB35D",
"L. c #7B9B64",
"P. c #6EAF60",
"I. c #78A660",
"U. c #74AE60",
"Y. c #7CAE60",
"T. c #73B263",
"R. c #7CB362",
"E. c #9E8F34",
"W. c #A59236",
"Q. c #C1AF33",
"!. c #DCC32F",
"~. c #F7EB26",
"^. c #82925F",
"/. c #81A65D",
"(. c #84AC5D",
"). c #88AC5E",
"_. c #82B05F",
"`. c #88B55F",
"'. c #839C64",
"]. c #82A563",
"[. c #84AC62",
"{. c #83B362",
/* pixels */
"A.v.(...a.J.c.N.A.f.d.T.| #.h.a.o.j.s.g.s.i.B.j.C.:.a.H.c.N.Z.x.d.V.X.-.g.i.O.2.",
":.2.>.A.>.s.b.>.R.S.H.i.f.<.i.T.o.<.(.j.{.M.:.2.>.B.<.s.c.>.R.Y.H.i.f.f.i.T.o.:.",
"O.J.;.j.e.:.y.j.b.g.e.$.e.a.J.g.g.:.p.K.z.>.:.M.;.p.e.:...p.v.G.a.:.e.a.N.g.h.$.",
"x.d.i.-.O.} 7.| O. .o.i.p.p.a.b.h.M.9.e.>.{.v.i.:.;.O.} w.| :.{  .e.p.p.a.m.f.T.",
"c.p.e.0.X.P.P.o.x.$.z.a.e.p.b.p.a.A. .| H.h.j.f.O.e.X.g.T.o.5.:.z.d.w.f.j.p.a.N.",
"a.[ i.p.e.f.v.I.0.V.c.' ] B.S.:.a.i.d.B.g.:.a.} e.f.O.v.j.M.w.V.k.' ` M.Y.:.a.i.",
"h.h.-.x.h.O.M.g.a.K.3.v.-.c.).A.k.:.7.i.b.>.h.h.-.<.g.O.N.s.r.Z.6.j.>.c.).m.m.>.",
"m.a.0.v.h.G.J.s.9.:.{.R.p.-.l.L x r 9 w x K +.a.0.l.h.G.J.h.e.i.(.R.g.-.Z.:.S.h.",
"p.r.{ ..p.l.d.p. .8.a.>.v 7 e 6 N l N N N z 6 7 7 I :.h.d.d.} 8.a.5.g.0.v.O.h.a.",
"} a.9.} ..| i.i.0.a.U x z N n S G H H G H R V l z q x ^ i.i.0.a.d.f. .p.>.| :.j.",
"y.;.s.b.%.H.p.} 2.T l l D H H E Q Q Q Q W E E G S B z x t ^ j.k.b.B.w.i.p.2._.{.",
"`.-.h./.{.s.a...t z C F E Q W Q W Q Q Q Q Q Q W E G S B z J ^ :.v.f.G.e.y.i.%.J.",
"V.T.f.d.r.O.:.K l C F W Q Q W W W W W Q W Q Q W Q E D C C N J ( h.r.O.m.a.O.d.e.",
">.k.O. .i.v.L n C A R Q W W Q W W W W W W W W W Q W H S C C B J _ F.w.I.a.T.a.c.",
"A.;.p.d...<.8 B A A E Q W Q W W W W W W W W W W Q Q E F A A A z J ;.e.;.d.U.>.-.",
"z.A.0.>.| P 4 V A C D W W W W W W W Q W Q W W W Q W R S C C V j 4 Y d./.O.<.h.{ ",
"l.p.N.:.-.3 - C Z Z S F H W W W W W W W W W W W W E S Z C V M k ; r [ m.R.d.$.a.",
"i.<.a.H.>.2 - C S C C C C F W W Q Q Q Q Q W E H G F C C V M M k j 4 -.p.m.O.c.r.",
"2.m.o.a.Y 4 j b M C D Z Z C F G G G G G G G S C C C C M b k b k j 4 ;.x.:.d.:. .",
"j.g.:.i.3 > k k j f d k C Z C C C C C C C C C C C V V M k k k k k & L :.O.Z.O.j.",
"g.w.G.f.3 g k k h ~ E.u h S C C Z Z Z Z Z C C M V V k k k k k k k @ , ,.f.>.a.C.",
"M.f.K.O.8 j k g s !.~.! p b M M C C V C C V V k k k k k k k k k = + & ( H.w.e.>.",
"j.j.6.<.2 * k g s !.~.~ p k M k k b k M k m b b k k k k k k k k = + 4 ) i.M. .>.",
"O.c.;.v.2 . $ j # W.Q.i s k k k k k k k k k k k k k k k g k k k - + 2 } g.h.h.| ",
"d.h.>.-.1 X @ = $ o a h > ; k k k : : k > : > k k k k k $ $ $ $ @ . < [ h.v.h.f.",
"m.p.e..., + $ $ = @ $ k : @ $ : ; @ = : ; $ = g : : $ k = $ $ @   + & _ p.b.p.K.",
"p...a.i.r %   $ @ @ @ @ @ @ @ @ @ @ @ @ @ @ @ @ + + $ @ @ @ @ O O X w :.S.:.t.g.",
"G.O.X.<.:.1 +   O O O O   O O O             O O O O O O O O O O + 5 / c.).b.j.:.",
"b.H.$.l.d.t %     O   O                                 O O O X 6 ;.j.:.A.v.m.h.",
"j.q.q.i.p.h.c X X   O O O O O O O O O O O O O O O O     O O X 3 } b.g.O.M. .J.g.",
"o.a.{ ( -...O.c 1 % X X O O O O O O O O   O O O O O   . X X 3 [ e.f.i.$.j.O.i.>.",
"X.2.s.a...a.f.| %.K 0 0 % + . . . . . . X X O X . . % 2 0 w ) b.b.s.9.:.>.>.K.(.",
"K.#.j./.).J.f. .$.-.p.,.v 1 2 3 0 0 2 2 1 2 0 2 2 5 J _ ,.} ..>.p.f.G.a.<.p.c.R.",
"R.U.h.j.h.$.i.<.:.w.M.O.e.<.a.-.X.e.e.O.i.d.Y.M.f.p.M...a.>.:.9.M.e.i.f.a.O...e.",
">.b.:. .0.d.-.o.R.:.i.D.O.].q.P.g.p. .-.h.h.-.A.i. .e.d.-. .R.>.i.D.O.].a.h.h.p.",
"c.1.d.t.:.b.r.g.N.l.m.C.7.<.a.R.:.x.R.z.o.e.v.1.d.e.:.m.r.g.v.v.z.S.7.,.a.R.:.<.",
"A.x.e.s.| i.P.r.p.h.h.p.f.6.o.c.v.` M.{.| w.A.b.w.j. .i.h.t.p.a.h.p.f.6.O.>.v.` ",
"z.z.f.-.i.h.f.e.>...b.a.O.[.h.p.e.a.2./.{.x.z.z.d.>.p.h.<.e.>.$.m.a...[.M.p.i.a.",
"a.:.M.g.2.k.U.p.M.B.l.y.f.<.R.:.2.q.a.J.N.e.e.i.h.G.j.j.J.f.h.U.s.u.g.>.R.g.6.r.",
">.m.{ a.K.i.h.J.G.{ o.s.(.B.:.O.p.e.7...*.L.'.4.&.'.'.=.].L.@./ &.=.=.=.^.T -.:."
};
