/* XPM */
static char *_a92d5475473454aea0cc2a7f8bd41c1UTkJeEoL4PtuUD6j[] = {
/* columns rows colors chars-per-pixel */
"40 40 175 2 ",
"   c #33262F",
".  c #2E2E31",
"X  c #342630",
"o  c #332931",
"O  c #382D35",
"+  c #312638",
"@  c #312B3F",
"#  c #2E3232",
"$  c #253C32",
"%  c #293E34",
"&  c #313134",
"*  c #3D333B",
"=  c #36383B",
"-  c #3C3A3E",
";  c #40373F",
":  c #264134",
">  c #2A4236",
",  c #274937",
"<  c #2B4A36",
"1  c #2D4438",
"2  c #244E39",
"3  c #2D4C39",
"4  c #324638",
"5  c #334B3A",
"6  c #2D5539",
"7  c #2F5B3B",
"8  c #33543A",
"9  c #3B553D",
"0  c #355C3B",
"q  c #395A3D",
"w  c #3D643F",
"e  c #54483A",
"r  c #43573F",
"t  c #5F553D",
"y  c #7E703B",
"u  c #3E3740",
"i  c #3E3A40",
"p  c #3B3648",
"a  c #413B41",
"s  c #3C4242",
"d  c #3A5B40",
"f  c #3E6842",
"g  c #474146",
"h  c #4B4344",
"j  c #444D46",
"k  c #474148",
"l  c #4B444B",
"z  c #454C48",
"x  c #4B4A4C",
"c  c #534B44",
"v  c #524C4F",
"b  c #4C4753",
"n  c #544E52",
"m  c #575053",
"M  c #5B5356",
"N  c #61575A",
"B  c #655C5C",
"V  c #695F5E",
"C  c #416141",
"Z  c #446C45",
"A  c #496C45",
"S  c #497C42",
"D  c #587B48",
"F  c #6B605F",
"G  c #6D6261",
"H  c #726764",
"J  c #726864",
"K  c #3C8B41",
"L  c #408744",
"P  c #478647",
"I  c #4B8A49",
"U  c #508745",
"Y  c #568749",
"T  c #5F864E",
"R  c #558C4B",
"E  c #5D8C4C",
"W  c #459546",
"Q  c #499244",
"!  c #479449",
"~  c #4C934A",
"^  c #4D9D4D",
"/  c #54934D",
"(  c #5B954D",
")  c #549B4C",
"_  c #5B9B4E",
"`  c #568950",
"'  c #5E8E50",
"]  c #4E9E51",
"[  c #539251",
"{  c #5A9551",
"}  c #559C51",
"|  c #5C9C52",
" . c #658D4F",
".. c #688A4D",
"X. c #65934F",
"o. c #629B4E",
"O. c #6A9E4F",
"+. c #668950",
"@. c #698954",
"#. c #6D8E58",
"$. c #728855",
"%. c #788C5B",
"&. c #639551",
"*. c #6C9552",
"=. c #639C53",
"-. c #6B9C53",
";. c #679D59",
":. c #6D9E59",
">. c #769452",
",. c #729D54",
"<. c #7A9B57",
"1. c #77915B",
"2. c #7C955E",
"3. c #739E5A",
"4. c #789E5A",
"5. c #4DA34D",
"6. c #4BAB4E",
"7. c #55A14E",
"8. c #5BA34F",
"9. c #54AA4E",
"0. c #55A352",
"q. c #5DA353",
"w. c #55A951",
"e. c #5BAA54",
"r. c #5FAC59",
"t. c #5BB253",
"y. c #62A04F",
"u. c #60A94F",
"i. c #63A355",
"p. c #6CA356",
"a. c #63AA55",
"s. c #6CAA56",
"d. c #65A459",
"f. c #6CA45A",
"g. c #65AC5A",
"h. c #6CAC5B",
"j. c #72A356",
"k. c #79A456",
"l. c #72A954",
"z. c #7BAA57",
"x. c #72A659",
"c. c #75A559",
"v. c #74A45A",
"b. c #79A55A",
"n. c #74AB5B",
"m. c #75AD5B",
"M. c #76AD5D",
"N. c #7FAF59",
"B. c #79A95E",
"V. c #7BAC5C",
"C. c #62B455",
"Z. c #65B25C",
"A. c #6CB25B",
"S. c #72B25C",
"D. c #7BB35E",
"F. c #7B9B64",
"G. c #6EAF60",
"H. c #78A660",
"J. c #73AE61",
"K. c #7CAE60",
"L. c #74B363",
"P. c #7CB362",
"I. c #AF9E34",
"U. c #C3AD32",
"Y. c #D4BD30",
"T. c #ECD42D",
"R. c #F8E229",
"E. c #81A65D",
"W. c #84AB5D",
"Q. c #82B05E",
"!. c #88B55F",
"~. c #839C64",
"^. c #82A563",
"/. c #84AC62",
"(. c #82B362",
/* pixels */
"B.x.W.| a.S.j.m.N.f.d.L.{ +.g.i.| c.s.d.s.q.x.j.N.| a.A.j.B.N.H.d.S.{ &.g.d.0.-.",
"=.,.-.B.-.s.j.,.P.B.A.q.n.-.i.L.) p.D.j.!.n.;.,.*.B.-.s.c.-.L.n.A.i.f.3.q.L._ =.",
"| m.*.j.| =.| j.c.g.e.&.0.a.m.g.h.&.j.m.,.&.{ p...-.q.=.=.p.c.A.e.=.q.g.n.g.M.&.",
"x.d.i.&.| ^ 0.( o.^ | q.f.p.g.x.d.p.! 0 5 9 9 8 8 C / / ] / =.^ { q.p.p.a.b.d.S.",
"c.p.| 8.{ g.G.| 3.=.z.i.q.:.-.E 0 8 6 z x x x x z s < 7 Z [ v.=.z.d.q.d.j.p.a.V.",
"a./ i.d.i.f.j.J.q.S.j.Q ! ;.C 5 x x v V G V F F G B x x z A ) S.k.Q W x.D.=.r.i.",
"h.h.X.j.g.| M.g.e.N.<.:.E r z x M V F J H H H H H H G B m j w x.<.j.-.,.W.V.k.-.",
"b.e.8.m.h.A.S.f.q.=.P.j.q x m M G H H J H H J J J J H G G n z w V.(.g.&.V.=.V.A.",
"p.e.^ _ j.s.i.p./ 6.a.T 1 v M V H J J H H J H H J J J H H B x 6 8.3.g.8.c.q.g.d.",
"/ a.7./ _ ) i.i.q.a.{ q x m M H H H J H H H H H J J H J H G n j f :.) O.-.( ;.j.",
"i.*.s.c.O.A.g./ j.c.*.1 n n M H H H H H H H J H J H H J H V m z 9 ;.w.;.-.,.Q.Q.",
"D.=.l.E.(.j.d.=.( =.' % v n M G H H H H J H H H J J H J G G n n z f g.e.i.o.p.S.",
"V.L.f.p.e.| i.&.p.~ d i n m m N H H H H J J J H H J H J G M m m z 6 | b.g.| d.q.",
"*.k.| 7.i.f._ | D.E % i g n m m N H H H J J J J H H J J G m m m x 0 ^ H.a.L.d.c.",
"B.*.d.d.| c.C.r.c.{ 1 i a k n m m N H H H H J J H H F M M m b b s 0 { -.i.n.-.{ ",
"N.z.| -.| i.f.r.-./ % i a a k n m m M N G H H H F M M m m m c h - 6 ;.E.| p.n.^ ",
"l.p.J.=.-.M.x.d.,.E > i a a v l n n m m N N M N m m m n a F Y.I.= 2 { B.L.d.=.a.",
"i.p.a.A.,.p.G.h.h.{ $ O a a g l a l n n M n n n n n m v p y R.Y.- 2 d.j.B.=.j.8.",
",.b.} i.D.p.s.S.a.L $ o a a a a a v a h n l b a v a n l a y T.U.= 3 k.b._ d.i.) ",
"j.g.;.e.n.h.| w.( { % X O a a a a a a a a v a a a a a a a e t e & 8 i.f._ W.| j.",
"r.0.G.f.b.-.| p.&.R % O * a a a a a a a a a a a ; a a a - ; @ + = 6 ^ L.n.&.a.z.",
"n.f.P.=.g.s.p.D.4.` < o X O u a a a a a a a a a a a a a a ; O * & 8 I &.A.8.0.-.",
"p.j.j.j.i.A.c.-.P.B.[ $ X X O u O a a a a a a a a a a a - * X X & w :.*.i.L.) :.",
"| m.@.M.=.p.p.j.n.h._ $ X X X u a a a a a a u a a a a * O X X X 5 R e.a.g.h.s.( ",
"-.h.*.-.) | ) _ &.0.I < o X X X O - * - * * * * * * O ;   X   o 7 | i.i.h.c.g.m.",
"b.d.8.q.| 0.G.{ -.) j.I $ o X X   X * O O O * O * X X X   X o < X.i.i.p.p.c.p.D.",
"p._ i.i.| G.f.f.=.m.k.P , X X X X X X X X X X X       X     o f l.) ^ f.B.=.e.d.",
"Z.=.| :.d.=.m.h.9.D.<.( S 4 X X X X X X X X X X   X X X   & 7 p.<.X.( c.(.b.j.;.",
"x.A.o.m.h.r.L.a.e.j.W.P.p.D 5 X X X X X X X X X X X X   & 0 _ p.W.(.f.*.W.l.E.A.",
"p.9.9.y.j.S.g.j.) 5.A.c.g.| E 1 X X X X   X X X X   o # q &.) 5.A.x.g.8.m.) A.d.",
"{ a.^ R &._ i.=.) t.=.p.q.i.&.P < $ X X .       o . $ 8 / i.) t.i.:.i.y.-.| ;.-.",
"| ,.s.a._ a.d._ j.c.B.s.^ -.-.*.c.+.< $ : : $ % > 0 U 8.p._ j.c.b.h.5.=.O.-.P.D.",
"S.X.s.W.W.V.d.) o.-.p.x.Z.i.i.-.m.L.../ K { p.Y &.4.W.n.d.) o.-.p.f.Z.g.p.i.k.D.",
"(.n.f.j.h.o.d.:.| 7.J.| d.f.a.=.{ q.d.q.i.:.P.n.h.j.L.o.i.:.=.0.m.| i.f.g.| X.q.",
"*.B.;.) 8.d.=.( (.i.i.t.| /.w.h.G.p.) =.g.h.-.B.=.) 8.d.&._ (.i.i.t.| V.e.h.Z.,.",
"c.>.d.e.=.m.0.g.n.l.k.N.5.;.h.P.=.j.P.k._ 0.j.>.q.i.=.c.w.a.n.l.b.V.7.;.d.P.;.-.",
"B.j.i.p._ i.G.e.d.g.h.p.f.4.{ p.n.W l.(.) 0.K.j.e.3.) ;.G.e.p.d.h.p.p.4.{ j.m.W ",
"z.z.d.&.p.h.:.e.,.o.c.a.| /.g.f.i.i.-././.3.N.z.f.&.p.h.:.q.*.o.z.d.| W.h.p.i.d.",
"i.;.h.g.,.c.M.s.n.M.l.e.d.-.(.=.,.9.a.D.M.7.q.=.h.C.,.x.L.g.M.J.s.u.g.p.K.d.<.w.",
"-.z.^ a.n.i.h.S.C.} { l.Q.c.;.q.i.q.5._ $.F.~.2.#.^.~.%.^.1.+.I @.1.%.%.~.D &.| "
};
