/* XPM */
static char *_6dd0ff6f6c74c7dc43b7a2c20059071cnsJSMxjEsPkwqdK[] = {
/* columns rows colors chars-per-pixel */
"40 40 186 2 ",
"   c #34262F",
".  c #2B2730",
"X  c #2B2831",
"o  c #352630",
"O  c #352A33",
"+  c #382C36",
"@  c #362D3A",
"#  c #382F39",
"$  c #2C3232",
"%  c #343B35",
"&  c #3C343B",
"*  c #353A3D",
"=  c #3D393E",
"-  c #40393F",
";  c #2D4435",
":  c #324136",
">  c #36443D",
",  c #38443E",
"<  c #344A3C",
"1  c #3A4A3E",
"2  c #2E5039",
"3  c #2F583A",
"4  c #32553B",
"5  c #335E3C",
"6  c #3B5E3E",
"7  c #3A623F",
"8  c #37693E",
"9  c #3A6C3D",
"0  c #564E3E",
"q  c #655C3B",
"w  c #363143",
"e  c #3B3641",
"r  c #3E3A40",
"t  c #423C42",
"y  c #423D49",
"u  c #374340",
"i  c #394240",
"p  c #3E4C43",
"a  c #3A5C40",
"s  c #3C6442",
"d  c #3B7843",
"f  c #464146",
"g  c #484247",
"h  c #4B454A",
"j  c #464849",
"k  c #4B494C",
"l  c #514A4D",
"z  c #435344",
"x  c #425B41",
"c  c #475349",
"v  c #4B534A",
"b  c #5A5243",
"n  c #4D4851",
"m  c #544E52",
"M  c #565053",
"N  c #5B5356",
"B  c #5E5758",
"V  c #5F5859",
"C  c #615744",
"Z  c #635A5B",
"A  c #685F5E",
"S  c #446741",
"D  c #486742",
"F  c #466C42",
"G  c #4C6C44",
"H  c #526B46",
"J  c #437543",
"K  c #4C7346",
"L  c #437A45",
"P  c #4B7B47",
"I  c #4D744A",
"U  c #4C7A4A",
"Y  c #547D49",
"T  c #597E4B",
"R  c #6A605E",
"E  c #6D6361",
"W  c #726764",
"Q  c #726864",
"!  c #857736",
"~  c #478747",
"^  c #4B8B46",
"/  c #4C834A",
"(  c #4A8948",
")  c #51814A",
"_  c #558A4B",
"`  c #5C8E4C",
"'  c #469645",
"]  c #459546",
"[  c #479648",
"{  c #4B974A",
"}  c #4C9C4D",
"|  c #54944C",
" . c #5A944D",
".. c #549B4C",
"X. c #5B9B4E",
"o. c #5C8E53",
"O. c #5B9551",
"+. c #559D51",
"@. c #5C9C52",
"#. c #658B4F",
"$. c #63934E",
"%. c #6A974E",
"&. c #629B4E",
"*. c #698C52",
"=. c #6D8E58",
"-. c #728855",
";. c #788C5B",
":. c #649551",
">. c #6C9451",
",. c #639C52",
"<. c #6B9C53",
"1. c #679C59",
"2. c #6D9E59",
"3. c #769452",
"4. c #729E55",
"5. c #7B9B57",
"6. c #77915B",
"7. c #7C955E",
"8. c #749E59",
"9. c #789E5A",
"0. c #4CA34D",
"q. c #4BAA4E",
"w. c #55A14E",
"e. c #5BA34F",
"r. c #54AA4E",
"t. c #59A84F",
"y. c #4FA151",
"u. c #54A352",
"i. c #5DA353",
"p. c #5BAB54",
"a. c #5FAC59",
"s. c #5DB353",
"d. c #62A04F",
"f. c #60A94F",
"g. c #63A354",
"h. c #6BA356",
"j. c #63AB55",
"k. c #6BAB56",
"l. c #65A459",
"z. c #6CA45A",
"x. c #65AC5A",
"c. c #6CAB5B",
"v. c #72A355",
"b. c #7BA257",
"n. c #72A954",
"m. c #7BAA57",
"M. c #71A259",
"N. c #75A258",
"B. c #72A659",
"V. c #75A659",
"C. c #74A55A",
"Z. c #79A45B",
"A. c #73AB5B",
"S. c #75AD5B",
"D. c #76AA5D",
"F. c #75AD5C",
"G. c #7BAB5C",
"H. c #79A95E",
"J. c #79AD5D",
"K. c #62B455",
"L. c #6AB356",
"P. c #65B25C",
"I. c #6BB25B",
"U. c #73B15D",
"Y. c #7BB35D",
"T. c #7B9B64",
"R. c #6EAF60",
"E. c #78A660",
"W. c #73AE61",
"Q. c #7CAE60",
"!. c #73B262",
"~. c #7CB361",
"^. c #7FB860",
"/. c #998837",
"(. c #AE9B34",
"). c #BCAA30",
"_. c #DFC82E",
"`. c #81A65D",
"'. c #84AB5D",
"]. c #88AC5E",
"[. c #82B05F",
"{. c #88B55F",
"}. c #839C64",
"|. c #82A563",
" X c #84AC62",
".X c #82B362",
/* pixels */
"H.B.'.X.j.U.N.S.H.z.h.!. .:.x.g.+.v.k.c.k.g.H.v.Y.,.g.I.B.F.J.M.l.~. .:.c.g.+.4.",
",.4.<.D.<.k.C.<.~.H.P.g.M.<.g.!.+.h.G.v..XF.,.4.<.Z.<.k.C.<.~.Q.I.g.x.8.i.!.@.,.",
"@.U.>.v.i.,.d.v.v.P.i.&.p.x.S.c.x.:.v.Y.m.<.@.A.3.v.@.,.,.h.C.I.i.,.u.j.F.z.c.@.",
"M.l.g.>.+...y. .,.} X.g.z.g.x.N.c.A.u.p.,.'.Z.l.,.,.@...u.| ,.} O.g.z.h.j.D.z.!.",
"C.l.@.e.O.R.R.+.8.,.m.g.i.h.v.h.l.S...O.c.P.N.c.u.i.O.x.R.+.8.1.m.g.p.h.v.h.g.J.",
"j.| g.h.,.z.B.E.e.U.N.] { D.J.,.a.g.l.D.x.1.g...@.z.@.z.v.D.w.U.b.[ [ z.Y.,.x.g.",
"I.z.:.h.k.X.A.x.p.Y.5.v.,.8.].G.b.,.0.g.v.<.c.k.:.8.c.X.A.k.p.J.5.v.,.8.].G.b.<.",
"b.j.i.D.k.P.!.k.e.,..X~.l.>.G.X.Y.c.u.g.C.F.N.j.p.A.c.P.U.S.e.g.'.~.k.%.S.,.J.I.",
"g.p.} X.h.A.g.h...q.j.M.x.e.C.e.x.O.>.) L Y U ~ ] _ <.c.g.h.| q.j.2.x.e.v.@.P.g.",
" .x.w.|  .X.g.g.i.j.h.z...<.$./ K S z i i i i , 6 8 J { ,.g.u.j.h.z.X.g.<.X.1.v.",
"&.>.k.C.h.L.l.| N.B.B.k.y. .K z u i M Z Z Z Z Z j * , F ) ^ v.b.D.A.u.,.<.4.{..X",
".X,.k.`..Xn.g.@. .g.M.o./ a p k B A E Q Q W W W R R B k p F | &.z.z.P.a.g.,.%.U.",
"Y.!.z.h.i.@.1.:.z.@.,.J p k N A E W Q W W Q W Q Q W W E N z I ..k.p.@.Z.x.@.g.g.",
"<.b.@.w.g.B.X.i.Y.` G c m N Z W Q Q W W Q Q W W W W W E R M c G $.I...H.j.!.x.8.",
"Z.3.l.l.+.C.K.j.$.I v m m B A W W W W Q Q Q Q W W W Q Q E N m c Y b.@.1.g.F.2.X.",
"H.m.u.<.,.i.z.+.F < g m m B A W Q Q Q W Q Q Q W W Q Q E A M M j s O.h.|.@.h.A.{ ",
"A.h.A.,.h.D.h._ x , f l m M Z E W W W W W W W W W W W Z Z M M h 1 L @.Z.~.h.,.j.",
",.h.j.P.8.h.z.U 1 = g h h l m B Z A R W W E W W E A N M m m m g > 9 h.h.Q.@.C.e.",
"4.Z.+.g.Y.h.,.K , - t g f h M m M M B Z Z Z Z Z Z Z l l n h g g * x *.M.@.l.,...",
"h.c.l.i.A.z./ 4 * - t t t g h l l m m m M m m M l m l l C b t t = > P h.O.J.@.v.",
"a.p.R.h.N.<.L : & = = r t t g g y l l m m m m m l h y b (./.t r r , d !.B.,.j.S.",
"A.k.~.@.I.h.Y : o = t t - t t t y y g l h h h h h f w q _.).t e = , 8 :.I.e.i.<.",
"M.v.8.M.<.k.) : O & = = & - t = = t t t - t t t t t e 0 /.! & & @ ; I 1.g.W...8.",
"+.C.>.C.g.,.) :   O & & & - r & t - - - - - - - t & e r & @ + & O % L g.k.c.c. .",
"h.c.%.,.@.| L : o o O # & & & & & & & & & & & & & & & & @ @ & # O : P g.c.B.c.k.",
"Z.h.i.@.X.u.@.6 % X O O O O O O O O O O O o O O O o O O O O O O $ 7 | 2.l.B.h.Y.",
"l.X.g.g.@.R.z.o.0 ;   O o o o O o o     o o o   o o o o o o o   % 9 { z.V.,.p.g.",
"I.@.,.2.z.,.C.c.{ G % O o o o o o o o o o o o o o o o o o o O % G _  .A..Xb.C.z.",
"N.I.d.v.c.p.!.k.i.$.H % .   o o o o o o   o o o         . $ 2 K 4. XA.>.J.v.`.k.",
"h.r.r.g.h.U.k.z.{ 0.g.G 4 ; $ . . . . . . . . . . . $ 2 4 F ^ { I.D.x.X.S...!.x.",
"+.l.{ | >.+.g.g...s.,.1.| _ F 5 6 6 S 7 7 5 5 7 3 3 S ) O.@...s.g.h.g.&.<.@.g.,.",
" .4.k.g.X.j.h.+.n.V.C.k.} <.,.>.H.Z.:.@.g.l. .%.g.g. .p.l.X.h.A.C.c.w.&.<.4.~.'.",
"Y.$.n.`.].U.l. .&.h.h.z.P.g.l.h.C.^.<.g.] g.Y.:.n.'. XS.z...X.h.h.z.P.g.2.,.v.Y.",
"^.W.z.B.c.,.g.2.@.w.U.@.g.z.l.&.@.g.g.i.g.z.~.F.c.h.V.X.g.1.,...V.i.g.z.x.,.,.i.",
"1.D.,...u.h.&.+.~.h.g.K.@.|.t.P.x.h...,.I.c.:.H.1...i.h.,.X.~.h.g.s.u.|.p.x.R.v.",
"v.3.l.g.,.C.p.x.C.h.b.J.0.l.c.{.,.N.!.b.+.p.M.3.i.g.@.D.t.x.C.v.Z.J.w.z.x.~.,.<.",
"J.M.i.h.X.g.R.p.h.x.I.h.z.b.O.h.n.] V..X..e.J.N.i.h.+.,.R.a.<.x.c.h.h.9.@.<.A.] ",
"m.m.l.%.h.c.z.g.<.&.Z.g.@. Xc.z.g.g.v.'.J.8.H.m.z.<.h.k.2.i.<.X.Z.x.e.].R.h.g.i.",
"g.1.S.K.4.N.V.k.B.W.n.e.z.h.~.1.8.r.j.Y.J.e.i.g.c.K.v.A.W.c.c.Q.n.j.g.h.Q.1.4.p.",
"<.H.} l.S.g.c.U.P.+.+.k.'.B.<.u.h.u.0.X.-.T.}.7.=.}.}.;.|.6.#.( *.;.;.;.}.T $.,."
};
