/* XPM */
static char *_39d3cc8a103433dee7f3793dcda36430076pES97CCwr1pg[] = {
/* columns rows colors chars-per-pixel */
"40 40 133 2 ",
"   c #607F4B",
".  c #4D8947",
"X  c #4D8F48",
"o  c #459546",
"O  c #4B9546",
"+  c #449B46",
"@  c #479648",
"#  c #4E954B",
"$  c #4D9C4C",
"%  c #53954D",
"&  c #5B954E",
"*  c #549B4D",
"=  c #5C9B4E",
"-  c #4F9D50",
";  c #569753",
":  c #5B9651",
">  c #559C51",
",  c #5C9C52",
"<  c #658B4F",
"1  c #64944E",
"2  c #629A4E",
"3  c #6A9C4F",
"4  c #698955",
"5  c #6D8E58",
"6  c #728855",
"7  c #788C5B",
"8  c #639651",
"9  c #6C9551",
"0  c #639C53",
"q  c #6B9C53",
"w  c #679F58",
"e  c #6B9E59",
"r  c #749452",
"t  c #739D55",
"y  c #7B9B57",
"u  c #77915B",
"i  c #7C955E",
"p  c #739E5A",
"a  c #789E5B",
"s  c #4DA34D",
"d  c #4BAA4E",
"f  c #55A14E",
"g  c #5BA34F",
"h  c #55AA4E",
"j  c #5AA94F",
"k  c #4CA252",
"l  c #55A352",
"z  c #5CA353",
"x  c #55A951",
"c  c #5CAA54",
"v  c #5EAD59",
"b  c #5BB253",
"n  c #63A34F",
"m  c #60A94F",
"M  c #63A354",
"N  c #6BA355",
"B  c #63AB56",
"V  c #6BAA56",
"C  c #65A459",
"Z  c #6CA45A",
"A  c #65AC5A",
"S  c #6CAB5B",
"D  c #72A356",
"F  c #7BA356",
"G  c #72A954",
"H  c #7AA956",
"J  c #7CAB57",
"K  c #73A258",
"L  c #75A158",
"P  c #76A358",
"I  c #71A758",
"U  c #74A658",
"Y  c #74A55A",
"T  c #76A45A",
"R  c #73A65D",
"E  c #77A75D",
"W  c #7AA55A",
"Q  c #72AB5B",
"!  c #72AF5A",
"~  c #77AC5A",
"^  c #74AE5B",
"/  c #73A95D",
"(  c #75AB5C",
")  c #72AD5D",
"_  c #77AC5D",
"`  c #78A85D",
"'  c #7EA95D",
"]  c #7DAF5D",
"[  c #7CAE5F",
"{  c #62B455",
"}  c #6CB357",
"|  c #65B15C",
" . c #68B15B",
".. c #6CB15B",
"X. c #68B55B",
"o. c #69B15C",
"O. c #6FB35C",
"+. c #76B15A",
"@. c #70B15C",
"#. c #72B25D",
"$. c #75B05E",
"%. c #7BB35D",
"&. c #7CB35C",
"*. c #7AB45F",
"=. c #7B9B64",
"-. c #6EAF60",
";. c #6EAF61",
":. c #79A761",
">. c #73AE61",
",. c #7CAE60",
"<. c #6BB261",
"1. c #70B162",
"2. c #74B462",
"3. c #72B264",
"4. c #73B264",
"5. c #78B161",
"6. c #78B162",
"7. c #7CB362",
"8. c #7AB560",
"9. c #7FB860",
"0. c #80AB57",
"q. c #81A75B",
"w. c #80AE58",
"e. c #83AC5D",
"r. c #87AC5E",
"t. c #88AC5E",
"y. c #81B15E",
"u. c #85B05F",
"i. c #839C64",
"p. c #81A562",
"a. c #84AD61",
"s. c #82B362",
"d. c #88B363",
/* pixels */
"` I w.0 B ! P ^ ` Z Z 6.& 8 S z l Y V Z V z ` D &.0 z @.P ` [ e N 6.: 1 V C > N ",
"0 t q ` q V P e 8._ o.z E q M 1.* N %.D d.( 0 t t P q V Q q %.[ X.M Z e z 4.= 0 ",
", ^ 9 D z 0 2 N Y  .z 2 l B _ S S 0 e &.H q 0 @.9 N 0 0 M N Y  .c 0 c B ( V <., ",
"Y C M 8 > * l & 2 s : M N N A I Z Q x z 0 d.Y C 0 w = * l % 0 $ ; 0 C N B Y Z 6.",
"Y N , g : -.-.; D 0 H M z N I N B ^ * ; S ..K N , z : A <.; p 0 H M c q U N M ~ ",
"B # C N 0 S I / = +.Y o # ( ` 0 v M w ! A 0 B % z Z , S P ( l +.K O O R %.0 B M ",
"S V 8 N V , ( V c [ y P 0 p t.H y 0 s M Y q V S 8 e S : _ S c [ y K 0 P t.' F q ",
"Y B z / V X.1.V f M s.7.C 9 ~ 0 7.S l C ~ [ P B j ^ V X.@.V g 0 y.7.V 1 ~ 0 $...",
"N c $ = q ! M N * d B Y B n Q > S 0 0.A > N N c $ = q Q M N % d B e A g Y > S M ",
"% A f % = = M M * B N Z * q 3 = C t ( C z 0 & B f % = * M C g B N Z = M w 2 w K ",
"0 9 V Y q A N % P P I ! x C q t s.y.9 , z A V 9 N ( 3 } Z * D D Y ! x C q t r.s.",
"&.0 Q q.d.V C , % M Z e X.z M 0 e @.Z M + e y.0 V q.d.Y C 2 * 2 Z e | z M n 3 @.",
"[ %.Z C z , w 0 D l ) x 0 W A , M z > > V V ` ,.Z C B , C 0 K > S c , W A , C z ",
"q F , f M ( : z %.N N } f :.c 4.B H B q S S 0 a 0 * M Z = = y.N q } f :.B 1.B P ",
"E 9 V N = D { v Y V ` ` l 9 C [ 0 0 >.[ % k ~ r C C , K { v G Q _ E l 9 C _ q 2 ",
"H ` > q , M Z v q z S C N p.: I V * F a.N M H H f w , z Z v q z >.C N q., e ( # ",
"I N ! 0 N ^ R M t N F B z ' 2.C 0 c K e.>.e G N >.Z q ` Y C t e H A = W 6.N 2 A ",
"M N M  .t q 1.S ..S n M ! K ` , P g l } K c M N M V P N @.S @.S n M Q N ` , p j ",
"r ' > B %.C V $.M @ ; [ H W = N 0 * l 0 K o.P W x z %.C V @.V o > ( ' W , M 0 * ",
"I A C M Q E , x & V I N C N : [ , t I $.0 q Z A 0 z ( Z , x & C ~ N M N , [ , I ",
"v c -.N Y e * N q 0 E ; l 4.Z 0 B H e V B N A x -.Z W t l M q 0 ~ ; $ >.I 0 B [ ",
"Q V 5., o.N D %.P 8 e R X 9 $.l M N N C A z E Z 2.0 S V Y [ H 0 e ( % q @.g g q ",
"P D t I N } P e 9.` | V N 9 C <.* Q ~ V w.~ N t P N 3 } W e >.:.| A Z 9 , _ ; N ",
": Y 5 ( 0 M N K _ @.B = c A V @.B 2 W H w.N , I 9 ( M M N t ^ @.A 2 M A V <.V & ",
"N S 3 q = ; $ = 0 l * M M M ..D S N c A w W K A q 9 l : $ = 0 l $ 0 M M ..Y S Z ",
"E M z = : c -.: e = K M C N N Y C [ $ * M %.W N = M & z <.; e = K M M N N Y C &.",
"N f M M , >.Z C 0 ^ H # * E ( , v M N Z @.0 M n z M , 5.( C w Q ~ * * Z [ 0 v V ",
" .0 0 e V 0 K ! x &.r 2 & I a.P I 0 l N N e A M : e C 0 Y ! h ~ y & & K r.I D 0 ",
"Y } M Y Z b 4.A c D e.s.Z 9 w.D w.V k z ` R Y S n I S c 6.A M N e.s.Z 9 ' I ' S ",
"K h s M N 2.A D * s } Y B 0 ( * 4.V I C C V P x s M N _ A D * s ..E A g ~ * @.A ",
"= B @ % 0 = M 0 * b M e z M q * 0 q e.A > 0 & B * # 3 = z M * b M N M n w , 0 q ",
"& e V M = v N = D Y K } $ e 0 t 6.' e , M A 0 q V M = c N = D U K S $ 0 3 t %.y.",
"+.1 Q e.t._ C * 3 q N Z X.M M N P 9.e z + C &.2 N q.r._ C % 2 e N Z  .c N M H 6.",
"s._ S D S , C w , l ~ , Z Z A 2 8 v M z M N 6._ S P @.= M 0 0 f ~ z C I A , & M ",
"q E 0 * g N 0 & y.N n b , a.h Z A N * 0 S S q E C * z C 0 & y.Z 0 { > p.v A S N ",
"I r C z 0 ( l v ~ N Y [ s e A 6.0 p 8.F > z D r z M 0 Y c A G U F [ s e Z 7.0 e ",
"' K M N = M -.v N A S N Z a : K ! @ G s.= f ` P z N * 0 <.v N A S V N a : N Y O ",
"H H C 8 N V N M q 2 I A , a.S N z M t a.y.K H ~ Z 9 N S e C 9 = Y C = a.>.N z M ",
"z w ! B t K 1.N Q ~ G c C N 6.N t h B &.` h z C S { t P S C ) >.G m A N [ 0 t c ",
"e F $ A ~ M ) @.A > > D r.K 0 z N > s = 6 =.i.i 5 p.i.7 p.=.< . 4 u 7 7 i.  8 , "
};
