/* XPM */
static char *_a1f59763add4bd78f8e8ecc5250fe42TxvVgnES6X4galOU[] = {
/* columns rows colors chars-per-pixel */
"40 40 204 2 ",
"   c #352E2B",
".  c #3C2C2F",
"X  c #2F3F2D",
"o  c #3A342E",
"O  c #3B3A2E",
"+  c #3B3836",
"@  c #4C302E",
"#  c #453531",
"$  c #433C33",
"%  c #493D33",
"&  c #413D39",
"*  c #3C4833",
"=  c #3D5933",
"-  c #3B6938",
";  c #4B4234",
":  c #454934",
">  c #46413B",
",  c #474738",
"<  c #4C453A",
"1  c #494E3B",
"2  c #524634",
"3  c #544935",
"4  c #5B4D37",
"5  c #544B3A",
"6  c #5B4E3A",
"7  c #485738",
"8  c #56553C",
"9  c #5C513B",
"0  c #655439",
"q  c #63553D",
"w  c #65593E",
"e  c #6B5B3E",
"r  c #705F3F",
"t  c #446438",
"y  c #4B653B",
"u  c #446C3B",
"i  c #4D6D3C",
"p  c #44743B",
"a  c #49793D",
"s  c #53753D",
"d  c #615A41",
"f  c #6C5D41",
"g  c #705F41",
"h  c #5C6E42",
"j  c #4D7441",
"k  c #4F7D42",
"l  c #537443",
"z  c #5E7547",
"x  c #547D44",
"c  c #5C7A45",
"v  c #6F6043",
"b  c #736343",
"n  c #796644",
"m  c #7C6946",
"M  c #76654C",
"N  c #776849",
"B  c #7C6A48",
"V  c #637D47",
"C  c #7C724D",
"Z  c #727D4F",
"A  c #7F7750",
"S  c #846D46",
"D  c #816E4A",
"F  c #8B6D4B",
"G  c #8D7447",
"H  c #83704A",
"J  c #8B744A",
"K  c #907748",
"L  c #957B4C",
"P  c #837150",
"I  c #8B7351",
"U  c #887C56",
"Y  c #957952",
"T  c #93795A",
"R  c #9C7C59",
"E  c #A07D52",
"W  c #49803F",
"Q  c #4C8244",
"!  c #4B8B46",
"~  c #558445",
"^  c #5C8345",
"/  c #548D47",
"(  c #5B824A",
")  c #538D49",
"_  c #5C8B4B",
"`  c #459445",
"'  c #489647",
"]  c #4D9D4D",
"[  c #54944C",
"{  c #5C944E",
"}  c #549B4D",
"|  c #5C9B4E",
" . c #5B9651",
".. c #559D51",
"X. c #5C9C51",
"o. c #68864A",
"O. c #638B4C",
"+. c #74874E",
"@. c #738C4E",
"#. c #63944F",
"$. c #62994F",
"%. c #6B984E",
"&. c #698C53",
"*. c #6A8D56",
"=. c #768550",
"-. c #7B8754",
";. c #748A52",
":. c #7A8B5B",
">. c #649451",
",. c #6D9452",
"<. c #639C53",
"1. c #6B9C53",
"2. c #659D58",
"3. c #6C9D59",
"4. c #739453",
"5. c #7B9355",
"6. c #729E55",
"7. c #739E59",
"8. c #7B985A",
"9. c #789D5A",
"0. c #4DA34E",
"q. c #55A14E",
"w. c #5BA34E",
"e. c #57AC4E",
"r. c #54A352",
"t. c #5CA353",
"y. c #56AA52",
"u. c #5CAA53",
"i. c #5FAC59",
"p. c #61A84F",
"a. c #63A354",
"s. c #6BA356",
"d. c #62AB55",
"f. c #6BAB56",
"g. c #65A459",
"h. c #6CA45A",
"j. c #65AB5A",
"k. c #6CAC5B",
"l. c #72A356",
"z. c #7BA157",
"x. c #71A953",
"c. c #7BAA57",
"v. c #72A659",
"b. c #74A45A",
"n. c #7AA45B",
"m. c #75AD5B",
"M. c #74AB5C",
"N. c #7BAC5C",
"B. c #66B356",
"V. c #66B15B",
"C. c #6BB25C",
"Z. c #73B15C",
"A. c #7BB35D",
"S. c #7B9B64",
"D. c #6EAF61",
"F. c #78A660",
"G. c #74AE60",
"H. c #7AAD61",
"J. c #74B363",
"K. c #7BB362",
"L. c #7FB860",
"P. c #81885D",
"I. c #98825D",
"U. c #84975C",
"Y. c #A5895B",
"T. c #A9885A",
"R. c #81A75B",
"E. c #83AB5C",
"W. c #82B05F",
"Q. c #9F8768",
"!. c #839C64",
"~. c #A58B63",
"^. c #AD8E62",
"/. c #B58E63",
"(. c #AE9265",
"). c #AD9269",
"_. c #B49365",
"`. c #B99564",
"'. c #BA9866",
"]. c #B4966A",
"[. c #B99769",
"{. c #B5996D",
"}. c #BB9B6B",
"|. c #BB9C73",
" X c #81A463",
".X c #85AD62",
"XX c #82B362",
"oX c #BFA275",
"OX c #C19D6D",
"+X c #C5A16D",
"@X c #C9A26D",
"#X c #C5A372",
"$X c #CCA573",
"%X c #CEA976",
"&X c #CAA578",
"*X c #CCAB7B",
"=X c #D3A774",
"-X c #D2A976",
";X c #D7AA79",
":X c #D4AB7A",
">X c #D8B17C",
",X c #DBAF80",
"<X c #DCB282",
"1X c #DBB489",
/* pixels */
"n.v.N.<.d.Z.l.m.n.h.g.J.{ >.V.a...c.f.g.f.<.M.b.A.$.a.C.n.N.N.F.s.K. .>.h.d.r.l.",
"<.l.1.n.1.f.v.6.K.N.C.a.k.1.g.J.} s.A.l.XXM.<.6.4.M.1.f.v.1.J.M.V.a.h.s.t.J.| <.",
"X.m.,.l.X.<.X.l.l.V.t.<.u.d.M.h.C.>.1.A.c.1.<.Z.,.l.X.<.X.s.c.j.u.<.r.j.M.k.k.{ ",
"b.g.a.<.X.] r.{ <.] | t.s.s.j.v.k.m.r.u.1.XXv.g.a.<.| } 0.{ <.0. .t.h.s.j.v.h.J.",
"b.d.X.w. .D.D...9.$.c.a.t.s.l.s.g.m.} } k.k.l.l.X.t. .j.J...9.<.c.a.r.s.x.s.a.M.",
"d.[ a.s.a.h.s.F.q.Z.c.` ' m.c.p.d.t.a.m.C.a.d.} t.h.X.k.v.v.r.M.c.! ' v.H.<.d.s.",
"m.h.>.3.h.t.M.f.u.W.8.h.1.5.U.P.-.+.O.@.;.+.4.@.o.-.5.>.M.f.i.N.7.v.1.6.E.E.z.1.",
"n.u.e.Z.h.V.Z.k.w.a.R.U.=.D Y.T._.`./.`.`._./././.T.Y Z 7.6.w.a..XK.f.>.N.a.H.C.",
"s.u.] | s.v.a.s.} q.+.F Y T.'.+X+X$X$X@X#X+X+XOX$X$X^.E I A O.0.d.7.j.w.v.X.V.a.",
"[ d.q.[ | | g.g.{ +.J T.'.$X#X}.'.'.'.[.`.`.'.`.'.@X%X$X`.Y C ,.s.s.} s.<. .<.x.",
"a.,.f.v.1.B.g.{ U T ^.OX$X+X`.'.@X+X#X#X#X#X#X+X'.`.#X%X=X'.T P 8.k.r.h.s.l.W.XX",
"A.<.v.R.XXx.g.&.U _.@X%X$X}.}.#X}.{.).~.~.).{.#X=X+X'.+X%X;XOXR -.g.V.t.s.$.%.Z.",
"H.A.h.g.u.X.2.*.I.+X%X*X{.OX$XOX).[.}.+X}.}.'.(.}.%X+X}.$X-X%X_.:.u.<.n.j.X.g.t.",
"1.b.X.} a.v.X.>.~.#X=X%X].OX=XOX{.}.+X}.OX}.}.(.}.;X%X`.#X;X>X[.:.B.r.n.u.J.j.b.",
"n.,.h.g.X.b.B.2.Q.#X$X#X}.#X=X$X#X].].(.).].].{.*X;X%X}.#X>X>X#X:.n.t.1.s.M.1.>.",
"c.N.w.1.X.a.j. .T OX&X#X#X}.}.*X%X#X[.].{.+X$X%X:X$X}.#X:X;X1X#X-.j.3. XX.s.k.} ",
"b.l.M.<.s.M.b.>.M ~.%X$X@X&X#X].#X$X-X*X:X=X;X-X#X#X:X-X=X<X*XQ.=.d.X.n.J.s.$.d.",
"t.s.d.V.6.s.D.,.d H '.=X=X&X$X$X&X]._.].).].|.#X*X%X>X;X<XoXQ.N V a.k.l.n.X.l.u.",
"9.n...d.N.h.k.<.q f I (.}.$X=X=X=X$XOX#X$X$X&X;X;X<X,X&X|.I.N q l M.N.n.t.g.<.} ",
"x.j.g.t.M.h.t.[ d f N D Y ~.}.@X,X,X,X,X1X1X1X;X%XOX~.I.P N v 9 c s.s.h.X.N.X.l.",
"i.t.j.h.n.1.| ^ 9 g n g b H Y Y./.[.}.[.[.|.]._.Y.J n b w v f 9 z  .] J.h.<.d.N.",
"v.k.K.a.V.k.&.e d g g d e B H B S F L L K G S S b f f f q f f w 5 z [ >.Z.t.t.1.",
"s.l.6.v.1.k.Z q b n q 6 e S C b m S J L J J D m n b f d q q f b 9 7 3.1.t.J...s.",
"X.b.,.n.<.c 8 g S b 4 3 b m m v g m F G J S n g g f f w 6 6 w N b 5 x a.<.k.f.{ ",
"s.k.1.>.x 9 d n n 4 2 3 r S m v r r n S S b q 0 w f g f d 5 6 f M v 8 j >.>.k.v.",
"n.g.t.V 5 6 r g 4 2 2 4 n G b v e 0 r S m e 0 0 0 f g b f 5 > 5 f b f 9 l ( { N.",
"s.| a.h @ 3 2 2 % % ; e S m r e w w g n n g q 4 6 e g b M 5 & > > 6 d 0 % a ! <.",
"V.X.<.j O , ; , :   4 S S b e q 6 0 n m n b f 5 5 d f g g d > & : 1 1 1 , c ^ { ",
"v.f.p.O.~ ! { / p o b D m e 9 6 5 5 b D n f 9 < & 5 0 e M n d 1 s V x i ^ ~ o.<.",
"l.e.0.a.s.Z.s.1.p 3 D m f w 9 2 $ 2 f D C f 5 > + + 2 4 g m f 6 7 i a a ^ a [ a.",
"| d.} [ <.X.X.l 4 b e e q 6 < + O ; d H H f < & + + o 2 9 q g g 4 : t W a Q  .1.",
" .1.a.s.| d.O.6 w 0 0 q 3 $ . : y ; 9 M N 9 < + * t = O ; 5 6 w e 2 * s Q ,.K.N.",
"A.#.s.E.E.A.( # ; $ ; ; O * t p s 7 5 d v 9 $ * a c V 7 o % $ ; ; % 7 Q ~ $.N.A.",
"L.G.h.b.k.|  .t u - l u u i a ~ X.) ; 9 q < . 7 _ ^ / p p y u - j p j ( g.X.<.t.",
"1.m.<.} t.g.<.[ N.<.| e. .9.} j.k.<.- 9 8 # O i k [ } $.{ [ N.$.$.u.} n.u.j.D.s.",
"b.4.g.g.<.m.t.d.N.x.n.N.0.3.j.L.<.b.1.5 . X y s X.a.a.c.u.d.m.s.N.N.0.3.k.K.<.1.",
"n.s.t.s.| a.D.u.s.j.k.s.s.9. .s.v.' v.4.x ! 6.1.u.s.} a.D.u.s.j.k.s.s.9. .s.M.' ",
"c.N.g.%.s.k.s.a.1.X.n.d.t..Xf.h.t.a.l..XK.c.N.N.g.1.s.h.3.g.,.$.v.j.| .XM.g.t.a.",
"a.<.M.V.6.s.M.h.v.G.x.p.h.s.K.<.6.y.u.A.n.q.t.<.k.V.l.l.k.h.C.H.x.u.f.s.G.<.7.u.",
"1.N.] d.N.s.k.C.V.....s.W.F.<.X.s.t.0.| ;.S.!.8.*.!.!.5. XS.O.! &.:.:.:.!.V >.X."
};
